<?xml version="1.0" standalone="no"?>
<!DOCTYPE svg PUBLIC "-//W3C//DTD SVG 1.1//EN" "http://www.w3.org/Graphics/SVG/1.1/DTD/svg11.dtd" >
<svg xmlns="http://www.w3.org/2000/svg" xmlns:xlink="http://www.w3.org/1999/xlink" version="1.1">
<metadata>
Created by FontForge 20170731 at Mon Jul  5 06:57:02 2021
 By Aleksey,,,
EmilyHuo
</metadata>
<defs>
<font id="NicoClean-Monospaced" horiz-adv-x="1536" >
  <font-face 
    font-family="NicoClean"
    font-weight="500"
    font-stretch="normal"
    units-per-em="2048"
    panose-1="2 0 6 9 0 0 0 0 0 0"
    ascent="1536"
    descent="-512"
    x-height="1152"
    cap-height="1536"
    bbox="-256 -512 1792 1536"
    underline-thickness="102"
    underline-position="-458"
    unicode-range="U+0020-3000"
  />
<missing-glyph 
d="M68 0v1364h544v-1364h-544zM136 68h408v1228h-408v-1228z" />
    <glyph glyph-name=".notdef" 
d="M68 0v1364h544v-1364h-544zM136 68h408v1228h-408v-1228z" />
    <glyph glyph-name=".null" horiz-adv-x="0" 
 />
    <glyph glyph-name="nonmarkingreturn" 
 />
    <glyph glyph-name="space" unicode=" " 
 />
    <glyph glyph-name="exclam" unicode="!" 
d="M640 0h-128v256h256v-256h-128zM640 512h-128v256h-128v640h128v128h256v-128h128v-640h-128v-256h-128z" />
    <glyph glyph-name="quotedbl" unicode="&#x22;" 
d="M512 896v128v384h256v-384h-128v-128h-128zM128 896v128v384h256v-384h-128v-128h-128z" />
    <glyph glyph-name="numbersign" unicode="#" 
d="M768 0h-128v384h-128v-128h-128v-256h-256v384h-128v256h256v256h-128v256h256v256h128v128h256v-256h-128v-128h256v256h128v128h256v-256h-128v-128h256v-256h-256v-128h-128v-128h256v-256h-256v-128h-128v-256h-128zM640 640h128v256h-128v-128h-128v-128h128z" />
    <glyph glyph-name="dollar" unicode="$" 
d="M1024 1024v128h-256v-384h384v-128h128v-384h-128v-128h-128v-128h-256v-128h-256v128h-256v128h-128v384h128v-128h128v-128h128v384h-128v128h-128v128h-128v384h128v128h256v128h256v-128h256v-128h128v-256h-128zM896 256h128v256h-256v-256h128zM512 896v128v128
h-128v-256h128z" />
    <glyph glyph-name="percent" unicode="%" 
d="M1280 0h-128h-128v128h-128v384h128v128h384v-128h128v-384h-128v-128h-128zM128 0h-128v256h128v128h128v128h128v128h128v128h128v128h128v128h128v128h128v128h128v128h256v-256h-128v-128h-128v-128h-128v-128h-128v-128h-128v-128h-128v-128h-128v-128h-128v-128
h-128v-128h-128zM1280 128v128h128v128h-128v128h-128v-128h-128v-128h128v-128h128zM512 768h-128h-256v128h-128v384h128v128h384v-128h128v-384h-128v-128zM384 896v128h128v128h-128v128h-128v-128h-128v-128h128v-128h128z" />
    <glyph glyph-name="ampersand" unicode="&#x26;" 
d="M1280 0h-128v128h-256v-128h-512v128h-128v128h-128v384h128v128h128v256h-128v384h128v128h640v-256h128v-256h-128v-128h-128v-256h128v-128h128v256h256v-256h-128v-256h128v-256h-128zM768 256h128v128h-128v128h-128v128h-128v-128h-128v-128h128v-128h256z
M768 1024v128h128v128h-128v128h-128v-128h-128v-128h128v-128h128z" />
    <glyph glyph-name="quotesingle" unicode="'" 
d="M256 896v128h-128v512h384v-512h-128v-128h-128z" />
    <glyph glyph-name="parenleft" unicode="(" 
d="M512 -384v128h-128v128h-128v256h-128v896h128v256h128v256h256v-256h-128v-384h-128v-640h128v-384h128v-256h-128z" />
    <glyph glyph-name="parenright" unicode=")" 
d="M128 -384v128v128h128v384h128v768h-128v256h-128v256h256v-256h128v-256h128v-896h-128v-256h-128v-128h-128v-128h-128z" />
    <glyph glyph-name="asterisk" unicode="*" 
d="M768 768h-128v128h-256v-128h-256v256h128v128h-128v256h256v128h256v-128h256v-256h-128v-128h128v-256h-128z" />
    <glyph glyph-name="plus" unicode="+" 
d="M640 128h-128v384h-384v256h384v384h256v-384h384v-256h-384v-384h-128z" />
    <glyph glyph-name="comma" unicode="," 
d="M256 -256v128h128v-128h-128zM384 -128v128h-128v256h256v-384h-128z" />
    <glyph glyph-name="hyphen" unicode="-" 
d="M896 512h-128h-640v256h896v-256h-128z" />
    <glyph glyph-name="period" unicode="." 
d="M384 0h-128v256h256v-256h-128z" />
    <glyph glyph-name="slash" unicode="/" 
d="M128 -128h-128v256h128v256h128v256h128v256h128v384h128v256h256v-384h-128v-256h-128v-384h-128v-256h-128v-256h-128v-128h-128z" />
    <glyph glyph-name="zero" unicode="0" 
d="M896 0h-128h-512v128h-128v256h-128v768h128v256h128v128h768v-128h128v-256h128v-768h-128v-256h-128v-128h-128zM768 256h128v128h128v768h-128v128h-512v-128h-128v-768h128v-128h384z" />
    <glyph glyph-name="one" unicode="1" 
d="M1152 0h-128h-1024v256h512v896h-128v-128h-128v-128h-256v256h128v128h128v128h128v128h384v-1280h512v-256h-128z" />
    <glyph glyph-name="two" unicode="2" 
d="M1152 0h-128h-1024v384h128v128h128v128h128v128h256v128h256v128h128v128h-128v128h-512v-128h-128v-128h-256v256h128v128h128v128h896v-128h128v-512h-128v-128h-128v-128h-256v-128h-256v-128h-128v-128h896v-256h-128z" />
    <glyph glyph-name="three" unicode="3" 
d="M896 0h-128h-512v128h-128v128h-128v256h256v-128h128v-128h384v128h256v256h-128v128h-512v256h256v128h128v128h-640v256h1024v-384h-128v-256h128v-128h128v-512h-128v-128h-128v-128h-128z" />
    <glyph glyph-name="four" unicode="4" 
d="M896 0h-128v384h-768v384h128v128h128v128h128v128h128v128h128v128h128v128h256v-896h256v-256h-256v-384h-128zM640 640h128v384h-128v-128h-128v-128h-128v-128h256z" />
    <glyph glyph-name="five" unicode="5" 
d="M896 0h-128h-512v128h-128v128h-128v256h256v-128h128v-128h512v128h128v256h-128v128h-768v128h-128v640h1152v-256h-768v-256h640v-128h128v-128h128v-512h-128v-128h-128v-128h-128z" />
    <glyph glyph-name="six" unicode="6" 
d="M1024 0h-128h-768v128h-128v1152h128v128h128v128h768v-128h128v-256h-256v128h-512v-128h-128v-256h896v-128h128v-640h-128v-128h-128zM768 256h128v128h128v256h-768v-256h128v-128h384z" />
    <glyph glyph-name="seven" unicode="7" 
d="M512 0h-128h-128v256h128v256h128v256h128v256h128v128h128v128h-896v256h1280v-384h-128v-128h-128v-256h-128v-256h-128v-256h-128v-256h-128z" />
    <glyph glyph-name="eight" unicode="8" 
d="M1024 0h-128h-768v128h-128v768h128v512h128v128h768v-128h128v-512h128v-768h-128v-128h-128zM768 256h128v128h128v256h-128v128h-512v-128h-128v-256h128v-128h384zM768 1024h128v256h-512v-256h384z" />
    <glyph glyph-name="nine" unicode="9" 
d="M768 0h-128h-384v128h-128v256h256v-128h512v128h128v256h-768v128h-128v128h-128v384h128v128h128v128h768v-128h128v-128h128v-1024h-128v-128h-256v-128h-128zM768 896h128v128h128v128h-128v128h-512v-128h-128v-128h128v-128h384z" />
    <glyph glyph-name="colon" unicode=":" 
d="M384 0h-128v256h256v-256h-128zM384 768h-128v384h256v-384h-128z" />
    <glyph glyph-name="semicolon" unicode=";" 
d="M384 -256h-128v128h128v128h-128v256h256v-512h-128zM384 896h-128v256h256v-256h-128z" />
    <glyph glyph-name="less" unicode="&#x3c;" 
d="M1024 0h-128v128h-128v128h-256v128h-256v384h256v128h256v128h128v128h256v-256h-256v-128h-128v-128h-128v-128h128v-128h128v-128h256v-256h-128z" />
    <glyph glyph-name="equal" unicode="=" 
d="M1024 256h-128h-640v256h896v-256h-128zM1024 768h-128h-640v256h896v-256h-128z" />
    <glyph glyph-name="greater" unicode="&#x3e;" 
d="M384 0h-128v256h256v128h128v128h128v128h-128v128h-128v128h-256v256h256v-128h128v-128h256v-128h256v-384h-256v-128h-256v-128h-128v-128h-128z" />
    <glyph glyph-name="question" unicode="?" 
d="M512 0h-128v256h256v-256h-128zM512 384h-128v256h128v256h128v128h128v256h-384v-128h-256v256h128v128h640v-128h128v-512h-128v-128h-128v-128h-128v-256h-128z" />
    <glyph glyph-name="at" unicode="@" 
d="M1024 -256h-128v128h-384v128h-128v128h-128v128h-128v768h128v256h128v128h256v128h768v-128h128v-128h128v-128h128v-768h-128v-128h-384v128h-128v-128h-512v128h-128v512h128v128h128v128h640v128h-896v-256h-128v-768h128v-128h256v-128h640v-128h-256v-128h-128z
M1536 512h128v384h-128v256h-128v-640h128zM1024 512h128v384h-384v-384h256z" />
    <glyph glyph-name="A" unicode="A" 
d="M1280 0h-128h-128v384h-768v-384h-384v128h128v256h128v384h128v384h128v256h128v128h256v-128h128v-256h128v-384h128v-384h128v-256h128v-128h-128zM768 640h128v128h-128v384h-256v-384h-128v-128h384z" />
    <glyph glyph-name="B" unicode="B" 
d="M1024 0h-128h-896v1536h1024v-128h128v-384h-128v-128h128v-128h128v-640h-128v-128h-128zM768 256h128v128h128v256h-768v-384h512zM640 896h128v128h128v256h-640v-384h384z" />
    <glyph glyph-name="C" unicode="C" 
d="M1024 0h-128h-384v128h-128v128h-128v128h-128v768h128v128h128v128h128v128h640v-128h128v-128h128v-256h-256v128h-128v128h-384v-128h-128v-128h-128v-512h128v-128h128v-128h384v128h128v128h256v-256h-128v-128h-128v-128h-128z" />
    <glyph glyph-name="D" unicode="D" 
d="M896 0h-128h-640v1536h896v-128h128v-128h128v-128h128v-768h-128v-128h-128v-128h-128v-128h-128zM768 256h128v128h128v128h128v512h-128v128h-128v128h-512v-1024h384z" />
    <glyph glyph-name="E" unicode="E" 
d="M1280 0h-128h-896v1536h1152v-256h-896v-384h768v-256h-768v-384h896v-256h-128z" />
    <glyph glyph-name="F" unicode="F" 
d="M384 0h-128v1536h1152v-256h-896v-384h640v-256h-640v-640h-128z" />
    <glyph glyph-name="G" unicode="G" 
d="M1152 0h-128h-640v128h-128v128h-128v1024h128v128h128v128h768v-128h128v-128h128v-256h-256v128h-128v128h-512v-128h-128v-768h128v-128h512v128h128v128h-384v256h640v-640h-128v-128h-128z" />
    <glyph glyph-name="H" unicode="H" 
d="M1152 0h-128v640h-768v-640h-256v1536h256v-640h768v640h256v-1536h-128z" />
    <glyph glyph-name="I" unicode="I" 
d="M1280 0h-128h-1024v256h512v1024h-512v256h1280v-256h-512v-1024h512v-256h-128z" />
    <glyph glyph-name="J" unicode="J" 
d="M1024 0h-128h-512v128h-128v256h256v-128h384v128h128v1152h256v-1408h-128v-128h-128z" />
    <glyph glyph-name="K" unicode="K" 
d="M1280 0h-128v128h-128v128h-128v128h-128v128h-128v128h-128v-128h-128v-512h-256v1536h256v-640h128v128h128v128h128v128h128v128h128v128h256v-256h-128v-128h-128v-128h-128v-128h-128v-128h128v-128h128v-128h128v-128h128v-128h128v-256h-128z" />
    <glyph glyph-name="L" unicode="L" 
d="M1280 0h-128h-896v1536h256v-1280h896v-256h-128z" />
    <glyph glyph-name="M" unicode="M" 
d="M1280 0h-128v896h-128v-128h-128v-128h-256v128h-128v128h-128v128h-128v-1024h-256v1536h384v-256h128v-128h128v-128h256v128h128v384h384v-1536h-128z" />
    <glyph glyph-name="N" unicode="N" 
d="M1152 0h-128v128h-128v256h-128v128h-128v128h-128v128h-128v128h-128v-896h-256v1536h256v-128h128v-256h128v-128h128v-128h128v-128h128v-128h128v896h256v-1536h-128z" />
    <glyph glyph-name="O" unicode="O" 
d="M1024 0h-128h-512v128h-128v128h-128v128h-128v768h128v128h128v128h128v128h768v-128h128v-128h128v-128h128v-768h-128v-128h-128v-128h-128v-128h-128zM896 256h128v128h128v128h128v512h-128v128h-128v128h-512v-128h-128v-128h-128v-512h128v-128h128v-128h384z" />
    <glyph glyph-name="P" unicode="P" 
d="M384 0h-128v1536h896v-128h128v-128h128v-512h-128v-128h-128v-128h-640v-512h-128zM896 768h128v128h128v256h-128v128h-512v-384h128v-128h256z" />
    <glyph glyph-name="Q" unicode="Q" 
d="M1280 -128h-128h-128v128h-640v128h-128v128h-128v128h-128v768h128v128h128v128h128v128h768v-128h128v-128h128v-128h128v-768h-128v-128h-128v-128h128v-256h-128zM640 256h128v128h-128v256h256v-128h128v-128h128v128h128v512h-128v128h-128v128h-512v-128h-128
v-128h-128v-512h128v-128h128v-128h128z" />
    <glyph glyph-name="R" unicode="R" 
d="M1280 0h-128v128h-128v128h-128v128h-128v128h-384v-512h-256v1536h896v-128h128v-128h128v-512h-128v-128h-128v-128h128v-128h128v-128h128v-256h-128zM768 768h128v128h128v256h-128v128h-512v-384h128v-128h256z" />
    <glyph glyph-name="S" unicode="S" 
d="M1024 0h-128h-384v128h-128v128h-128v256h256v-128h128v-128h384v128h128v128h-128v128h-384v128h-256v128h-128v384h128v128h128v128h640v-128h128v-256h-256v128h-512v-256h128v-128h384v-128h256v-128h128v-384h-128v-128h-128v-128h-128z" />
    <glyph glyph-name="T" unicode="T" 
d="M768 0h-128v1280h-512v256h1280v-256h-512v-1280h-128z" />
    <glyph glyph-name="U" unicode="U" 
d="M1024 0h-128h-512v128h-128v128h-128v1280h256v-1152h128v-128h512v128h128v1152h256v-1280h-128v-128h-128v-128h-128z" />
    <glyph glyph-name="V" unicode="V" 
d="M768 0h-128v128h-128v256h-128v384h-128v256h-128v384h-128v128h384v-384h128v-384h128v-256h256v256h128v384h128v384h384v-128h-128v-384h-128v-256h-128v-384h-128v-256h-128v-128h-128z" />
    <glyph glyph-name="W" unicode="W" 
d="M1152 0h-128v256h-128v384h-256v-384h-128v-256h-256v384h-128v512h-128v640h256v-512h128v-384h128v256h128v256h256v-256h128v-256h128v384h128v512h256v-640h-128v-512h-128v-384h-128z" />
    <glyph glyph-name="X" unicode="X" 
d="M1280 0h-128v128h-128v256h-128v128h-256v-128h-128v-256h-128v-128h-256v256h128v256h128v128h128v256h-128v128h-128v256h-128v256h256v-128h128v-256h128v-128h256v128h128v256h128v128h256v-256h-128v-256h-128v-128h-128v-256h128v-128h128v-256h128v-256h-128z" />
    <glyph glyph-name="Y" unicode="Y" 
d="M768 0h-128v768h-128v256h-128v256h-128v128h-128v128h384v-256h128v-256h256v256h128v256h384v-128h-128v-128h-128v-256h-128v-256h-128v-768h-128z" />
    <glyph glyph-name="Z" unicode="Z" 
d="M1280 0h-128h-1024v256h128v128h128v128h128v128h128v128h128v256h128v128h128v128h-896v256h1280v-384h-128v-128h-128v-128h-128v-128h-128v-256h-128v-128h-128v-128h768v-256h-128z" />
    <glyph glyph-name="bracketleft" unicode="[" 
d="M640 -384h-128h-256v1920h512v-256h-256v-1408h256v-256h-128z" />
    <glyph glyph-name="backslash" unicode="\" 
d="M896 -128h-128v128h-128v256h-128v256h-128v384h-128v256h-128v384h256v-256h128v-256h128v-384h128v-256h128v-256h128v-256h-128z" />
    <glyph glyph-name="bracketright" unicode="]" 
d="M512 -384h-128h-256v256h256v1408h-256v256h512v-1920h-128z" />
    <glyph glyph-name="asciicircum" unicode="^" 
d="M896 896h-128v128h-128v128h-128v-256h-384v128h128v128h128v256h128v128h256v-128h128v-256h128v-256h-128z" />
    <glyph glyph-name="underscore" unicode="_" 
d="M1024 -256h-128h-768v256h1024v-256h-128z" />
    <glyph glyph-name="grave" unicode="`" 
d="M512 1280h-128v256h256v-256h-128z" />
    <glyph glyph-name="a" unicode="a" 
d="M1024 0h-128v128h-128v-128h-512v128h-128v384h128v128h256v128h384v128h-512v-128h-256v256h128v128h768v-128h128v-1024h-128zM640 256h128v128h128v128h-384v-128h-128v-128h256z" />
    <glyph glyph-name="b" unicode="b" 
d="M768 0h-128h-256v128h-128v-128h-256v1536h256v-512h128v128h512v-128h128v-128h128v-640h-128v-128h-128v-128h-128zM640 256h128v128h128v384h-128v128h-384v-128h-128v-384h128v-128h256z" />
    <glyph glyph-name="c" unicode="c" 
d="M896 0h-128h-384v128h-128v128h-128v640h128v128h128v128h512v-128h128v-128h128v-256h-256v256h-384v-128h-128v-384h128v-128h384v128h256v-256h-128v-128h-128z" />
    <glyph glyph-name="d" unicode="d" 
d="M1024 0h-128v128h-128v-128h-512v128h-128v128h-128v640h128v128h128v128h512v-128h128v512h256v-1536h-128zM640 256h128v128h128v384h-128v128h-384v-128h-128v-384h128v-128h256z" />
    <glyph glyph-name="e" unicode="e" 
d="M896 0h-128h-384v128h-128v128h-128v640h128v128h128v128h512v-128h128v-128h128v-384h-768v-128h128v-128h384v128h256v-256h-128v-128h-128zM768 640h128v128h-128v128h-256v-128h-128v-128h384z" />
    <glyph glyph-name="f" unicode="f" 
d="M512 0h-128v640h-256v256h256v512h128v128h512v-128h128v-256h-256v128h-256v-384h512v-256h-512v-640h-128z" />
    <glyph glyph-name="g" unicode="g" 
d="M768 -512h-128h-256v128h-128v128h-128v256h256v-128h128v-128h256v128h128v256h-512v128h-128v128h-128v512h128v128h128v128h384v-128h128v128h256v-1408h-128v-128h-128v-128h-128zM640 384h128v128h128v256h-128v128h-256v-128h-128v-256h128v-128h128z" />
    <glyph glyph-name="h" unicode="h" 
d="M1024 0h-128v768h-128v128h-256v-128h-128v-768h-256v1536h256v-512h128v128h384v-128h128v-128h128v-896h-128z" />
    <glyph glyph-name="i" unicode="i" 
d="M768 0h-128h-256v256h128v512h-128v256h384v-768h128v-256h-128zM640 1152h-128v256h256v-256h-128z" />
    <glyph glyph-name="j" unicode="j" 
d="M512 -384h-128h-128v128h-128v256h256v-128h128v128h128v1152h256v-1280h-128v-128h-128v-128h-128zM768 1280h-128v256h256v-256h-128z" />
    <glyph glyph-name="k" unicode="k" 
d="M1024 0h-128h-128v256h-128v128h-256v-384h-256v1536h256v-768h128v128h128v128h128v128h256v-256h-128v-128h-128v-256h128v-256h128v-128h128v-128h-128z" />
    <glyph glyph-name="l" unicode="l" 
d="M768 0h-128h-256v256h128v1024h-128v256h384v-1280h128v-256h-128z" />
    <glyph glyph-name="m" unicode="m" 
d="M1152 0h-128v896h-128v-128h-128v-512h-256v512h-256v-768h-256v1152h256v-128h128v128h256v-128h128v128h384v-128h128v-1024h-128z" />
    <glyph glyph-name="n" unicode="n" 
d="M1024 0h-128v768h-128v128h-256v-128h-128v-768h-256v1152h256v-128h128v128h384v-128h128v-128h128v-896h-128z" />
    <glyph glyph-name="o" unicode="o" 
d="M896 0h-128h-512v128h-128v256h-128v384h128v256h128v128h768v-128h128v-256h128v-384h-128v-256h-128v-128h-128zM768 256h128v128h128v384h-128v128h-512v-128h-128v-384h128v-128h384z" />
    <glyph glyph-name="p" unicode="p" 
d="M256 -384h-128v1536h256v-128h128v128h512v-128h128v-896h-128v-128h-512v128h-128v-512h-128zM640 256h128v128h128v384h-128v128h-256v-128h-128v-384h128v-128h128z" />
    <glyph glyph-name="q" unicode="q" 
d="M1024 -384h-128v512h-128v-128h-512v128h-128v128h-128v640h128v128h128v128h512v-128h128v128h256v-1536h-128zM640 256h128v128h128v256h-128v256h-384v-128h-128v-384h128v-128h256z" />
    <glyph glyph-name="r" unicode="r" 
d="M384 0h-128v1152h256v-128h128v128h384v-128h128v-256h-256v128h-256v-128h-128v-768h-128z" />
    <glyph glyph-name="s" unicode="s" 
d="M896 0h-128h-512v128h-128v256h256v-128h384v128h-128v128h-384v128h-128v384h128v128h768v-128h128v-256h-256v128h-512v-128h256v-128h384v-128h128v-384h-128v-128h-128z" />
    <glyph glyph-name="t" unicode="t" 
d="M896 0h-128h-128v128h-128v768h-256v256h256v256h256v-256h256v-256h-256v-640h256v-256h-128z" />
    <glyph glyph-name="u" unicode="u" 
d="M1024 0h-128v128h-128v-128h-512v128h-128v1024h256v-896h256v128h128v128h128v640h256v-1152h-128z" />
    <glyph glyph-name="v" unicode="v" 
d="M640 0h-128v128h-128v256h-128v256h-128v256h-128v256h256v-128h128v-256h128v-256h256v256h128v256h128v128h256v-256h-128v-256h-128v-256h-128v-256h-128v-128h-128z" />
    <glyph glyph-name="w" unicode="w" 
d="M896 0h-128v256h-256v-256h-256v128h-128v256h-128v256h-128v512h256v-384h128v-256h128v256h128v128h128v-128h128v-256h128v256h128v384h256v-512h-128v-384h-128v-256h-128z" />
    <glyph glyph-name="x" unicode="x" 
d="M1024 0h-128v128h-128v128h-128v128h-128v-128h-128v-128h-128v-128h-256v256h128v128h128v128h128v128h-128v128h-128v128h-128v256h256v-128h128v-128h128v-128h128v128h128v128h128v128h256v-256h-128v-128h-128v-384h128v-128h128v-256h-128z" />
    <glyph glyph-name="y" unicode="y" 
d="M384 -384h-128h-128v128h128v128h128v256h128v128h-128v128h-128v256h-128v512h256v-512h128v-128h256v256h128v384h256v-512h-128v-256h-128v-256h-128v-256h-128v-128h-128v-128h-128z" />
    <glyph glyph-name="z" unicode="z" 
d="M1024 0h-128h-768v256h128v128h128v128h128v128h128v128h128v128h-640v256h1024v-384h-128v-128h-128v-128h-128v-128h-128v-128h512v-256h-128z" />
    <glyph glyph-name="braceleft" unicode="{" 
d="M512 -384h-128v128h-128v640h-128v128h-128v128h128v128h128v640h128v128h256v-256h-128v-640h-128v-128h128v-640h128v-256h-128z" />
    <glyph glyph-name="bar" unicode="|" 
d="M384 -384h-128v1920h256v-1920h-128z" />
    <glyph glyph-name="braceright" unicode="}" 
d="M256 -384h-128v256h128v640h128v128h-128v640h-128v256h256v-128h128v-640h128v-128h128v-128h-128v-128h-128v-640h-128v-128h-128z" />
    <glyph glyph-name="asciitilde" unicode="~" 
d="M256 384v128v128h128v128h384v-128h256v128h128v-256h-128v-128h-384v128h-256v-128h-128z" />
    <glyph glyph-name="uni00A0" unicode="&#xa0;" 
 />
    <glyph glyph-name="exclamdown" unicode="&#xa1;" 
d="M384 -384h-128v128h-128v640h128v256h256v-256h128v-640h-128v-128h-128zM384 768h-128v256h256v-256h-128z" />
    <glyph glyph-name="cent" unicode="&#xa2;" 
d="M896 896v128h-128v-512h128v128h128v-128h128v-128h-128v-128h-256v-256h-256v256h-256v128h-128v768h128v128h256v256h256v-256h256v-128h128v-128h-128v-128h-128zM512 512v128v384h-128v-512h128z" />
    <glyph glyph-name="sterling" unicode="&#xa3;" 
d="M1152 0h-128h-896v256h128v384h-128v256h128v384h128v128h128v128h512v-128h128v-128h128v-128h-256v128h-384v-128h-128v-256h384v-256h-384v-384h640v-128h128v-128h-128z" />
    <glyph glyph-name="currency" unicode="&#xa4;" 
d="M1024 128h-128v128h-128v-128h-256v128h-128v-128h-256v128h128v256h-128v128h128v256h-128v128h256v-128h128v128h256v-128h128v128h256v-128h-128v-256h128v-128h-128v-256h128v-128h-128zM640 384h128v128h128v128h-128v128h-256v-128h-128v-128h128v-128h128z" />
    <glyph glyph-name="yen" unicode="&#xa5;" 
d="M640 0h-128v384h-256v128h256v128h-256v128h256v128h-128v128h-128v128h-128v256h256v-128h128v-128h256v128h128v128h256v-256h-128v-128h-128v-128h-128v-128h256v-128h-256v-128h256v-128h-256v-384h-128z" />
    <glyph glyph-name="brokenbar" unicode="&#xa6;" 
d="M384 -384h-128v896h256v-896h-128zM384 896h-128v640h256v-640h-128z" />
    <glyph glyph-name="section" unicode="&#xa7;" 
d="M896 1152v128h-128v128h-384v-256h128v-128h384v-128h128v-384h-128v-128h128v-384h-128v-128h-640v128h-128v256h128v-128h128v-128h256v128h128v128h-256v128h-256v128h-128v384h128v128h-128v384h128v128h640v-128h128v-256h-128zM640 512h128v256h-384v-128h128v-128
h128z" />
    <glyph glyph-name="dieresis" unicode="&#xa8;" 
d="M768 1280v128h-128v128h256v-256h-128zM384 1280v128h-128v128h256v-256h-128z" />
    <glyph glyph-name="copyright" unicode="&#xa9;" 
d="M1152 896v128h128v-128h-128zM1024 128h128v-128h-512v128h384zM1280 256h128v-128h-256v128h128zM640 128h-128h-128v128h256v-128zM1408 256v128v128h128v-256h-128zM384 256h-128v256h128v-256zM1024 512h128v-128h-512v128h-128v512h128v128h512v-128h-256v-128h-128
v-256h128v-128h128zM1536 512v128v384h128v-512h-128zM1152 512v128h128v-128h-128zM256 512h-128v512h128v-512zM1536 1024h-128v256h128v-256zM256 1024v128v128h128v-256h-128zM1408 1280h-128h-128v128h256v-128zM512 1408h128v-128h-256v128h128zM1152 1408h-128h-384
v128h512v-128z" />
    <glyph glyph-name="ordfeminine" unicode="&#xaa;" 
d="M640 768h-128h-384v384h256v128h-256v128h128v128h384v-128h128v-640h-128zM384 896h128v128h-256v-128h128zM512 1280v128h-128v-128h128z" />
    <glyph glyph-name="guillemotleft" unicode="&#xab;" 
d="M1152 128h-128h-128v256h-128v128h-128v128h128v128h128v128h128v128h128v-384h-128v-256h128v-128h128v-128h-128zM512 128h-128v128h-128v128h-128v256h128v256h256v128h128v-256h-128v-128h-128v-128h128v-256h128v-128h-128z" />
    <glyph glyph-name="logicalnot" unicode="&#xac;" 
d="M1152 128h-128v256h-768v256h896v-128h128v-384h-128z" />
    <glyph glyph-name="registered" unicode="&#xae;" 
d="M768 640v128h128v-128h-128zM512 640v128v384h256v-128h128v-128h-128v128h-128v-128h128v-128h-128v-128h-128zM896 512h128v-128h-640v128h512zM1024 512v128h128v-128h-128zM384 512h-128v128h128v-128zM1152 640v128v384h128v-512h-128zM256 640h-128v512h128v-512z
M1152 1152h-128v128h128v-128zM256 1152v128h128v-128h-128zM1024 1280h-128h-512v128h640v-128z" />
    <glyph glyph-name="macron" unicode="&#xaf;" 
d="M640 1536h128v-128h-512v128h384z" />
    <glyph glyph-name="degree" unicode="&#xb0;" 
d="M640 896h-128h-256v512h128v128h384v-128h128v-384h-128v-128h-128zM640 1024v128v256h-128v-128h-128v-128h128v-128h128z" />
    <glyph glyph-name="plusminus" unicode="&#xb1;" 
d="M1024 0h-128h-768v256h1024v-256h-128zM640 384h-128v256h-384v256h384v256h256v-256h384v-256h-384v-256h-128z" />
    <glyph glyph-name="uni00B2" unicode="&#xb2;" 
d="M128 1024v128v128h128v-256h-128zM640 640h128v-128h-640v256h128v-128h384zM384 896h128v-128h-256v128h128zM512 896v128h128v-128h-128zM640 1024v128v128h128v-256h-128zM640 1280h-128h-256v128h384v-128z" />
    <glyph glyph-name="uni00B3" unicode="&#xb3;" 
d="M128 1152v128h128v-128h-128zM512 640h128v-128h-384v128h256zM640 640v128v128h128v-256h-128zM256 640h-128v128h128v-128zM640 896h-128h-256v128h384v-128zM640 1024v128v128h128v-256h-128zM640 1280h-128h-256v128h384v-128z" />
    <glyph glyph-name="acute" unicode="&#xb4;" 
d="M256 1152h-128v256h128v128h384v-128h-128v-128h-128v-128h-128z" />
    <glyph glyph-name="uni00B5" unicode="&#xb5;" 
d="M256 -256h-128v1408h256v-896h384v768h128v128h128v-128h128v-1024h-768v-256h-128z" />
    <glyph glyph-name="paragraph" unicode="&#xb6;" 
d="M768 0v128v1280h-128v-1408h-128v640h-256v128h-128v128h-128v512h128v128h768v-1536h-128zM512 768v128v512h-128v-640h128z" />
    <glyph glyph-name="periodcentered" unicode="&#xb7;" 
d="M384 384h-128v384h256v-384h-128z" />
    <glyph glyph-name="cedilla" unicode="&#xb8;" 
d="M384 -256h128v-128h-384v128h256zM512 -256v128h128v-128h-128zM512 -128h-128h-128v256h128v-128h128v-128zM384 128v128h128v-128h-128z" />
    <glyph glyph-name="uni00B9" unicode="&#xb9;" 
d="M384 512h-128v768h-128v128h-128v128h512v-1024h-128z" />
    <glyph glyph-name="ordmasculine" unicode="&#xba;" 
d="M640 768h-128h-256v128h-128v512h128v128h512v-128h128v-512h-128v-128h-128zM512 896h128v384h-128v128h-128v-128h-128v-256h128v-128h128z" />
    <glyph glyph-name="guillemotright" unicode="&#xbb;" 
d="M896 128h-128v256h128v128h128v128h-128v128h-128v256h128v-128h128v-128h128v-128h128v-128h-128v-256h-128v-128h-128zM256 128h-128v128h128v128h128v256h-128v128h-128v256h256v-128h128v-128h128v-384h-128v-128h-128v-128h-128z" />
    <glyph glyph-name="onequarter" unicode="&#xbc;" 
d="M256 640v128h-128v640h-128v128h384v-896h-128zM1536 0h-128v128h-256v128h-128v128h128v256h128v128h128v128h128v-128h128v-768h-128zM384 0h-128v128h128v256h128v256h128v128h128v256h128v256h128v128h128v128h128v-256h-128v-128h-128v-256h-128v-256h-128v-128
h-128v-256h-128v-256h-128zM1408 384v128h-128v-128h128z" />
    <glyph glyph-name="onehalf" unicode="&#xbd;" 
d="M256 640v128h-128v640h-128v128h384v-896h-128zM1536 128h128v-128h-640v256h128v128h128v128h128v128h-384v128h128v128h384v-256h128v-128h-128v-128h-128v-128h-128v-128h256zM384 0h-128v128h128v256h128v256h128v128h128v256h128v256h128v128h128v128h128v-256h-128
v-128h-128v-256h-128v-256h-128v-128h-128v-256h-128v-256h-128z" />
    <glyph glyph-name="threequarters" unicode="&#xbe;" 
d="M1664 0h-128v128h-256v128h-128v128h128v128h128v256h128v128h256v-896h-128zM512 0h-128v128h128v256h128v256h128v128h128v256h128v256h128v128h128v128h128v-256h-128v-256h-128v-128h-128v-256h-128v-256h-128v-128h-128v-256h-128zM1536 384v128h-128v-128h128z
M384 640h-128h-128v128h-128v128h512v128h-256v256h128v128h-256v128h512v-256h-128v-128h128v-384h-128v-128h-128z" />
    <glyph glyph-name="questiondown" unicode="&#xbf;" 
d="M768 -384h-128h-384v128h-128v384h128v256h128v128h128v128h256v-256h-128v-128h-128v-128h-128v-256h384v128h256v-256h-128v-128h-128zM640 768h-128v384h256v-384h-128z" />
    <glyph glyph-name="Agrave" unicode="&#xc0;" 
d="M1280 0h-128v128h-128v256h-512v-128h-128v-256h-384v128h128v384h128v384h128v384h128v256h384v-128h128v-384h128v-384h128v-384h128v-256h-128zM768 640h128v256h-128v256h-128v-384h-128v-128h256z" />
    <glyph glyph-name="Aacute" unicode="&#xc1;" 
d="M1280 0h-128v128h-128v256h-512v-128h-128v-256h-384v128h128v384h128v384h128v384h128v256h384v-128h128v-384h128v-384h128v-384h128v-256h-128zM768 640h128v256h-128v256h-128v-384h-128v-128h256z" />
    <glyph glyph-name="Acircumflex" unicode="&#xc2;" 
d="M1280 0h-128v128h-128v256h-512v-128h-128v-256h-384v128h128v384h128v384h128v384h128v256h384v-128h128v-384h128v-384h128v-384h128v-256h-128zM768 640h128v256h-128v256h-128v-384h-128v-128h256z" />
    <glyph glyph-name="Atilde" unicode="&#xc3;" 
d="M1280 0h-128v128h-128v256h-512v-128h-128v-256h-384v128h128v384h128v384h128v384h128v256h384v-128h128v-384h128v-384h128v-384h128v-256h-128zM768 640h128v256h-128v256h-128v-384h-128v-128h256z" />
    <glyph glyph-name="Adieresis" unicode="&#xc4;" 
d="M1280 0h-128v128h-128v256h-512v-128h-128v-256h-384v128h128v384h128v384h128v384h128v256h384v-128h128v-384h128v-384h128v-384h128v-256h-128zM768 640h128v256h-128v256h-128v-384h-128v-128h256z" />
    <glyph glyph-name="Aring" unicode="&#xc5;" 
d="M1280 0h-128v128h-128v256h-512v-128h-128v-256h-384v128h128v384h128v384h128v384h128v256h384v-128h128v-384h128v-384h128v-384h128v-256h-128zM768 640h128v256h-128v256h-128v-384h-128v-128h256z" />
    <glyph glyph-name="AE" unicode="&#xc6;" 
d="M1664 0h-128h-640v384h-384v-128h-128v-256h-384v128h128v384h128v384h128v384h128v256h1280v-256h-512v-384h512v-256h-512v-384h512v-256h-128zM768 640h128v640h-128v-128h-128v-384h-128v-128h256z" />
    <glyph glyph-name="Ccedilla" unicode="&#xc7;" 
d="M1280 1024v128h-128v128h-512v-128h-128v-128h-128v-512h128v-128h128v-128h512v128h128v128h128v-128h128v-128h-128v-128h-128v-128h-384v-128h128v-384h-384v128h256v128h-256v256h-128v128h-128v128h-128v128h-128v768h128v128h128v128h128v128h640v-128h256v-128
h128v-128h-128v-128h-128z" />
    <glyph glyph-name="Egrave" unicode="&#xc8;" 
d="M1024 0h-128h-768v1536h1024v-256h-768v-384h768v-256h-768v-384h768v-256h-128z" />
    <glyph glyph-name="Eacute" unicode="&#xc9;" 
d="M1024 0h-128h-768v1536h1024v-256h-768v-384h768v-256h-768v-384h768v-256h-128z" />
    <glyph glyph-name="Ecircumflex" unicode="&#xca;" 
d="M1024 0h-128h-768v1536h1024v-256h-768v-384h768v-256h-768v-384h768v-256h-128z" />
    <glyph glyph-name="Edieresis" unicode="&#xcb;" 
d="M1024 0h-128h-768v1536h1024v-256h-768v-384h768v-256h-768v-384h768v-256h-128z" />
    <glyph glyph-name="Igrave" unicode="&#xcc;" 
d="M256 0h-128v1536h256v-1536h-128z" />
    <glyph glyph-name="Iacute" unicode="&#xcd;" 
d="M256 0h-128v1536h256v-1536h-128z" />
    <glyph glyph-name="Icircumflex" unicode="&#xce;" 
d="M256 0h-128v1536h256v-1536h-128z" />
    <glyph glyph-name="Idieresis" unicode="&#xcf;" 
d="M256 0h-128v1536h256v-1536h-128z" />
    <glyph glyph-name="Eth" unicode="&#xd0;" 
d="M896 0h-128h-640v640h-128v256h128v640h896v-128h128v-128h128v-128h128v-768h-128v-128h-128v-128h-128v-128h-128zM768 256h128v128h128v128h128v512h-128v128h-128v128h-512v-384h384v-256h-384v-384h384z" />
    <glyph glyph-name="Ntilde" unicode="&#xd1;" 
d="M1280 0h-128v128h-128v128h-128v128h-128v256h-128v128h-128v128h-128v-896h-256v1536h256v-128h128v-128h128v-256h128v-128h128v-128h128v640h128v128h256v-1536h-128z" />
    <glyph glyph-name="Ograve" unicode="&#xd2;" 
d="M1152 0h-128h-512v128h-128v128h-128v128h-128v768h128v128h128v128h128v128h768v-128h128v-128h128v-128h128v-768h-128v-128h-128v-128h-128v-128h-128zM1024 256h128v128h128v128h128v512h-128v128h-128v128h-512v-128h-128v-128h-128v-512h128v-128h128v-128h384z
" />
    <glyph glyph-name="Oacute" unicode="&#xd3;" 
d="M1152 0h-128h-512v128h-128v128h-128v128h-128v768h128v128h128v128h128v128h768v-128h128v-128h128v-128h128v-768h-128v-128h-128v-128h-128v-128h-128zM1024 256h128v128h128v128h128v512h-128v128h-128v128h-512v-128h-128v-128h-128v-512h128v-128h128v-128h384z
" />
    <glyph glyph-name="Ocircumflex" unicode="&#xd4;" 
d="M1152 0h-128h-512v128h-128v128h-128v128h-128v768h128v128h128v128h128v128h768v-128h128v-128h128v-128h128v-768h-128v-128h-128v-128h-128v-128h-128zM1024 256h128v128h128v128h128v512h-128v128h-128v128h-512v-128h-128v-128h-128v-512h128v-128h128v-128h384z
" />
    <glyph glyph-name="Otilde" unicode="&#xd5;" 
d="M1152 0h-128h-512v128h-128v128h-128v128h-128v768h128v128h128v128h128v128h768v-128h128v-128h128v-128h128v-768h-128v-128h-128v-128h-128v-128h-128zM1024 256h128v128h128v128h128v512h-128v128h-128v128h-512v-128h-128v-128h-128v-512h128v-128h128v-128h384z
" />
    <glyph glyph-name="Odieresis" unicode="&#xd6;" 
d="M1152 0h-128h-512v128h-128v128h-128v128h-128v768h128v128h128v128h128v128h768v-128h128v-128h128v-128h128v-768h-128v-128h-128v-128h-128v-128h-128zM1024 256h128v128h128v128h128v512h-128v128h-128v128h-512v-128h-128v-128h-128v-512h128v-128h128v-128h384z
" />
    <glyph glyph-name="multiply" unicode="&#xd7;" 
d="M768 256v128h128v-128h-128zM256 256v128h128v-128h-128zM768 384h-128v128h128v-128zM384 384v128h128v-128h-128zM640 512h-128v128h128v-128zM640 640v128h128v-128h-128zM512 640h-128v128h128v-128zM768 768v128h128v-128h-128zM384 768h-128v128h128v-128z" />
    <glyph glyph-name="Oslash" unicode="&#xd8;" 
d="M1152 0h-128h-896v128h128v256h-128v768h128v128h128v128h128v128h1152v-128h-128v-256h128v-768h-128v-128h-128v-128h-128v-128h-128zM1024 256h128v128h128v128h128v512h-256v-256h-128v-128h-128v-128h-128v-128h-128v-128h384zM512 512h128v256h128v128h128v128h128
v128h128v128h-512v-128h-128v-128h-128v-512h128z" />
    <glyph glyph-name="Ugrave" unicode="&#xd9;" 
d="M896 0h-128h-384v128h-128v128h-128v1280h256v-1152h128v-128h384v128h128v1152h256v-1280h-128v-128h-128v-128h-128z" />
    <glyph glyph-name="Uacute" unicode="&#xda;" 
d="M896 0h-128h-384v128h-128v128h-128v1280h256v-1152h128v-128h384v128h128v1152h256v-1280h-128v-128h-128v-128h-128z" />
    <glyph glyph-name="Ucircumflex" unicode="&#xdb;" 
d="M896 0h-128h-384v128h-128v128h-128v1280h256v-1152h128v-128h384v128h128v1152h256v-1280h-128v-128h-128v-128h-128z" />
    <glyph glyph-name="Udieresis" unicode="&#xdc;" 
d="M896 0h-128h-384v128h-128v128h-128v1280h256v-1152h128v-128h384v128h128v1152h256v-1280h-128v-128h-128v-128h-128z" />
    <glyph glyph-name="Yacute" unicode="&#xdd;" 
d="M640 0h-128v768h-128v256h-128v256h-128v128h-128v128h384v-256h128v-128h128v-128h128v256h128v128h128v128h256v-256h-128v-128h-128v-256h-128v-256h-128v-640h-128z" />
    <glyph glyph-name="Thorn" unicode="&#xde;" 
d="M256 0h-128v1536h256v-256h512v-128h256v-256h128v-256h-128v-256h-256v-128h-512v-256h-128zM768 512h128v512h-512v-512h384z" />
    <glyph glyph-name="germandbls" unicode="&#xdf;" 
d="M256 -384v128h-128v1536h128v128h128v128h640v-128h128v-512h-128v-128h128v-128h128v-256h-128v-256h-128v-128h-512v128h128v128h256v384h-256v128h-128v128h256v128h128v256h-384v-128h-128v-1536h-128z" />
    <glyph glyph-name="agrave" unicode="&#xe0;" 
d="M512 1280v128h-128v128h256v-256h-128zM896 0h-128h-640v512h128v128h512v256h-384v-128h-256v256h256v128h512v-128h128v-1024h-128zM640 128v128h128v256h-256v-128h-128v-128h128v-128h128z" />
    <glyph glyph-name="aacute" unicode="&#xe1;" 
d="M896 0h-128h-640v512h128v128h512v256h-384v-128h-256v256h256v128h512v-128h128v-1024h-128zM640 128v128h128v256h-256v-128h-128v-128h128v-128h128zM640 1280h-128v256h256v-256h-128z" />
    <glyph glyph-name="acircumflex" unicode="&#xe2;" 
d="M768 1280v128h-256v-128h-256v128h128v128h512v-256h-128zM896 0h-128h-640v512h128v128h512v256h-384v-128h-256v256h256v128h512v-128h128v-1024h-128zM640 128v128h128v256h-256v-128h-128v-128h128v-128h128z" />
    <glyph glyph-name="atilde" unicode="&#xe3;" 
d="M896 0h-128h-640v512h128v128h512v256h-384v-128h-256v256h256v128h512v-128h128v-1024h-128zM640 128v128h128v256h-256v-128h-128v-128h128v-128h128zM768 1536h128v-128h-640v128h512z" />
    <glyph glyph-name="adieresis" unicode="&#xe4;" 
d="M768 1280v128h-128v128h256v-256h-128zM384 1280v128h-128v128h256v-256h-128zM896 0h-128h-640v512h128v128h512v256h-384v-128h-256v256h256v128h512v-128h128v-1024h-128zM640 128v128h128v256h-256v-128h-128v-128h128v-128h128z" />
    <glyph glyph-name="aring" unicode="&#xe5;" 
d="M896 0h-128h-640v512h128v128h512v256h-384v-128h-256v256h256v128h128v128h-128v256h128v-128h128v128h256v-128h-128v-128h-128v-128h256v-128h128v-1024h-128zM640 128v128h128v256h-256v-128h-128v-128h128v-128h128z" />
    <glyph glyph-name="ae" unicode="&#xe6;" 
d="M1536 0h-128h-1280v512h128v128h512v256h-384v-128h-256v256h256v128h512v-128h256v128h512v-128h128v-512h-640v-256h640v-128h-128v-128h-128zM640 128v128h128v256h-256v-128h-128v-128h128v-128h128zM1408 640h128v256h-384v-256h256z" />
    <glyph glyph-name="ccedilla" unicode="&#xe7;" 
d="M768 -512h-128h-128v128h256v128h-256v256h-128v128h-128v128h-128v640h128v128h128v128h512v-128h128v-128h128v-128h-256v128h-384v-128h-128v-512h512v128h256v-256h-128v-128h-256v-128h128v-384h-128z" />
    <glyph glyph-name="egrave" unicode="&#xe8;" 
d="M512 1280v128h-128v128h256v-256h-128zM896 0h-128h-384v128h-128v128h-128v640h128v128h128v128h512v-128h128v-128h128v-384h-768v-256h512v128h128v-128h128v-128h-128v-128h-128zM768 640h128v128h-128v128h-384v-256h384z" />
    <glyph glyph-name="eacute" unicode="&#xe9;" 
d="M896 0h-128h-384v128h-128v128h-128v640h128v128h128v128h512v-128h128v-128h128v-384h-768v-256h512v128h128v-128h128v-128h-128v-128h-128zM768 640h128v128h-128v128h-384v-256h384zM640 1280h-128v128h128v128h256v-128h-128v-128h-128z" />
    <glyph glyph-name="ecircumflex" unicode="&#xea;" 
d="M768 1280v128h-256v-128h-256v128h128v128h512v-256h-128zM896 0h-128h-384v128h-128v128h-128v640h128v128h128v128h512v-128h128v-128h128v-384h-768v-256h512v128h128v-128h128v-128h-128v-128h-128zM768 640h128v128h-128v128h-384v-256h384z" />
    <glyph glyph-name="edieresis" unicode="&#xeb;" 
d="M768 1280v128h-128v128h384v-128h-128v-128h-128zM384 1280v128h-128v128h256v-256h-128zM896 0h-128h-384v128h-128v128h-128v640h128v128h128v128h512v-128h128v-128h128v-384h-768v-256h512v128h128v-128h128v-128h-128v-128h-128zM768 640h128v128h-128v128h-384
v-256h384z" />
    <glyph glyph-name="igrave" unicode="&#xec;" 
d="M128 1280v128h-128v128h256v-256h-128zM256 0h-128v1152h256v-1152h-128z" />
    <glyph glyph-name="iacute" unicode="&#xed;" 
d="M256 0h-128v1152h256v-1152h-128zM256 1280h-128v256h384v-128h-128v-128h-128z" />
    <glyph glyph-name="icircumflex" unicode="&#xee;" 
d="M384 1280v128h-256v-128h-256v128h128v128h512v-256h-128zM256 0h-128v1152h256v-1152h-128z" />
    <glyph glyph-name="idieresis" unicode="&#xef;" 
d="M384 1280v128h-128v128h384v-128h-128v-128h-128zM0 1280v128h-128v128h256v-256h-128zM256 0h-128v1152h256v-1152h-128z" />
    <glyph glyph-name="eth" unicode="&#xf0;" 
d="M896 0h-128h-384v128h-128v128h-128v640h128v128h256v384h-384v128h1024v-128h-128v-128h128v-256h128v-640h-128v-256h-128v-128h-128zM768 256h128v256h128v128h-128v128h-128v128h-256v-128h-128v-512h384zM896 1024v128h-128v128h-128v-128h128v-128h128z" />
    <glyph glyph-name="ntilde" unicode="&#xf1;" 
d="M1024 0h-128v768h-128v128h-256v-128h-128v-768h-256v1152h256v-128h128v128h384v-128h128v-128h128v-896h-128zM768 1536h128v-128h-640v128h512z" />
    <glyph glyph-name="ograve" unicode="&#xf2;" 
d="M896 0h-128h-384v128h-128v128h-128v640h128v128h128v128h512v-128h256v-256h128v-384h-128v-256h-128v-128h-128zM768 256h128v256h128v128h-128v256h-384v-128h-128v-512h384zM640 1280h-128v128h-128v128h384v-256h-128z" />
    <glyph glyph-name="oacute" unicode="&#xf3;" 
d="M640 1280v128v128h256v-128h-128v-128h-128zM896 0h-128h-384v128h-128v128h-128v640h128v128h128v128h512v-128h256v-256h128v-384h-128v-256h-128v-128h-128zM768 256h128v256h128v128h-128v256h-384v-128h-128v-512h384z" />
    <glyph glyph-name="ocircumflex" unicode="&#xf4;" 
d="M384 1280v128v128h512v-128h128v-128h-256v128h-256v-128h-128zM896 0h-128h-384v128h-128v128h-128v640h128v128h128v128h512v-128h256v-256h128v-384h-128v-256h-128v-128h-128zM768 256h128v256h128v128h-128v256h-384v-128h-128v-512h384z" />
    <glyph glyph-name="otilde" unicode="&#xf5;" 
d="M384 1280v128v128h640v-128h-512v-128h-128zM896 0h-128h-384v128h-128v128h-128v640h128v128h128v128h512v-128h256v-256h128v-384h-128v-256h-128v-128h-128zM768 256h128v256h128v128h-128v256h-384v-128h-128v-512h384z" />
    <glyph glyph-name="odieresis" unicode="&#xf6;" 
d="M768 1280v128v128h256v-128h-128v-128h-128zM384 1280v128v128h256v-128h-128v-128h-128zM896 0h-128h-384v128h-128v128h-128v640h128v128h128v128h512v-128h256v-256h128v-384h-128v-256h-128v-128h-128zM768 256h128v256h128v128h-128v256h-384v-128h-128v-512h384z
" />
    <glyph glyph-name="divide" unicode="&#xf7;" 
d="M640 0h-128v256h256v-256h-128zM1024 384h-128h-768v256h1024v-256h-128zM640 768h-128v256h256v-256h-128z" />
    <glyph glyph-name="oslash" unicode="&#xf8;" 
d="M896 0h-128h-640v896h128v128h128v128h768v-384h128v-384h-128v-256h-128v-128h-128zM768 256h128v256h128v128h-256v-256h-128v-128h128zM512 512v128h128v128h128v128h-256v-128h-128v-256h128z" />
    <glyph glyph-name="ugrave" unicode="&#xf9;" 
d="M512 1280v128h-128v128h256v-256h-128zM1024 0h-128h-640v128h-128v1024h256v-896h384v768h128v128h128v-128h128v-1024h-128z" />
    <glyph glyph-name="uacute" unicode="&#xfa;" 
d="M1024 0h-128h-640v128h-128v1024h256v-896h384v768h128v128h128v-128h128v-1024h-128zM640 1280h-128v256h256v-256h-128z" />
    <glyph glyph-name="ucircumflex" unicode="&#xfb;" 
d="M768 1280v128h-256v-128h-256v128h128v128h512v-256h-128zM1024 0h-128h-640v128h-128v1024h256v-896h384v768h128v128h128v-128h128v-1024h-128z" />
    <glyph glyph-name="udieresis" unicode="&#xfc;" 
d="M768 1280v128h-128v128h256v-256h-128zM384 1280v128h-128v128h256v-256h-128zM1024 0h-128h-640v128h-128v1024h256v-896h384v768h128v128h128v-128h128v-1024h-128z" />
    <glyph glyph-name="yacute" unicode="&#xfd;" 
d="M384 -384h-128h-128v128h128v128h128v512h-128v256h-128v384h-128v128h256v-128h128v-256h128v-384h128v256h128v384h128v128h256v-256h-128v-384h-128v-256h-128v-384h-128v-128h-128v-128h-128zM640 1280h-128v256h256v-256h-128z" />
    <glyph glyph-name="thorn" unicode="&#xfe;" 
d="M256 -384h-128v1920h256v-512h128v128h512v-128h128v-128h128v-640h-128v-128h-128v-128h-640v-384h-128zM768 256h128v128h128v384h-128v128h-384v-128h-128v-384h128v-128h256z" />
    <glyph glyph-name="ydieresis" unicode="&#xff;" 
d="M768 1280v128h-128v128h256v-256h-128zM384 1280v128h-128v128h256v-256h-128zM384 -384h-128h-128v128h128v128h128v512h-128v256h-128v384h-128v128h256v-128h128v-256h128v-384h128v256h128v384h128v128h256v-256h-128v-384h-128v-256h-128v-384h-128v-128h-128v-128
h-128z" />
    <glyph glyph-name="Amacron" unicode="&#x100;" 
d="M1280 0h-128v128h-128v256h-512v-128h-128v-256h-384v128h128v384h128v384h128v384h128v256h384v-128h128v-384h128v-384h128v-384h128v-256h-128zM768 640h128v256h-128v256h-128v-384h-128v-128h256z" />
    <glyph glyph-name="amacron" unicode="&#x101;" 
d="M896 0h-128h-640v512h128v128h512v256h-384v-128h-256v256h256v128h512v-128h128v-1024h-128zM640 128v128h128v256h-256v-128h-128v-128h128v-128h128zM768 1536h128v-128h-640v128h512z" />
    <glyph glyph-name="Abreve" unicode="&#x102;" 
d="M1280 0h-128v128h-128v256h-512v-128h-128v-256h-384v128h128v384h128v384h128v384h128v256h384v-128h128v-384h128v-384h128v-384h128v-256h-128zM768 640h128v256h-128v256h-128v-384h-128v-128h256z" />
    <glyph glyph-name="abreve" unicode="&#x103;" 
d="M896 0h-128h-640v512h128v128h512v256h-384v-128h-256v256h256v128h512v-128h128v-1024h-128zM640 128v128h128v256h-256v-128h-128v-128h128v-128h128zM640 1280h-128v128h-256v128h640v-128h-128v-128h-128z" />
    <glyph glyph-name="Aogonek" unicode="&#x104;" 
d="M1280 -256h128v-128h-384v128h-128v128h128v512h-512v-128h-128v-256h-384v128h128v384h128v384h128v384h128v256h384v-128h128v-384h128v-384h128v-384h128v-256h-256v-256h128zM768 640h128v256h-128v256h-128v-384h-128v-128h256z" />
    <glyph glyph-name="aogonek" unicode="&#x105;" 
d="M1024 -256h128v-128h-512v384h-512v512h128v128h512v256h-384v-128h-256v256h256v128h512v-128h128v-1024h-128v-256h128zM640 128v128h128v256h-256v-128h-128v-128h128v-128h128z" />
    <glyph glyph-name="Cacute" unicode="&#x106;" 
d="M1280 1024v128h-128v128h-512v-128h-128v-128h-128v-512h128v-128h128v-128h512v128h128v128h128v-128h128v-128h-128v-128h-128v-128h-768v128h-128v128h-128v128h-128v768h128v128h128v128h128v128h640v-128h256v-128h128v-128h-128v-128h-128z" />
    <glyph glyph-name="cacute" unicode="&#x107;" 
d="M640 1280v128v128h256v-128h-128v-128h-128zM896 0h-128h-384v128h-128v128h-128v640h128v128h128v128h512v-128h128v-128h128v-128h-256v128h-384v-128h-128v-512h512v128h256v-256h-128v-128h-128z" />
    <glyph glyph-name="Ccircumflex" unicode="&#x108;" 
d="M1280 1024v128h-128v128h-512v-128h-128v-128h-128v-512h128v-128h128v-128h512v128h128v128h128v-128h128v-128h-128v-128h-128v-128h-768v128h-128v128h-128v128h-128v768h128v128h128v128h128v128h640v-128h256v-128h128v-128h-128v-128h-128z" />
    <glyph glyph-name="ccircumflex" unicode="&#x109;" 
d="M384 1280v128v128h512v-128h128v-128h-256v128h-256v-128h-128zM896 0h-128h-384v128h-128v128h-128v640h128v128h128v128h512v-128h128v-128h128v-128h-256v128h-384v-128h-128v-512h512v128h256v-256h-128v-128h-128z" />
    <glyph glyph-name="Cdotaccent" unicode="&#x10a;" 
d="M1280 1024v128h-128v128h-512v-128h-128v-128h-128v-512h128v-128h128v-128h512v128h128v128h128v-128h128v-128h-128v-128h-128v-128h-768v128h-128v128h-128v128h-128v768h128v128h128v128h128v128h640v-128h256v-128h128v-128h-128v-128h-128z" />
    <glyph glyph-name="cdotaccent" unicode="&#x10b;" 
d="M640 1280v128h-128v128h256v-256h-128zM896 0h-128h-384v128h-128v128h-128v640h128v128h128v128h512v-128h128v-128h128v-128h-256v128h-384v-128h-128v-512h512v128h256v-256h-128v-128h-128z" />
    <glyph glyph-name="Ccaron" unicode="&#x10c;" 
d="M1280 1024v128h-128v128h-512v-128h-128v-128h-128v-512h128v-128h128v-128h512v128h128v128h128v-128h128v-128h-128v-128h-128v-128h-768v128h-128v128h-128v128h-128v768h128v128h128v128h128v128h640v-128h256v-128h128v-128h-128v-128h-128z" />
    <glyph glyph-name="ccaron" unicode="&#x10d;" 
d="M896 0h-128h-384v128h-128v128h-128v640h128v128h128v128h512v-128h128v-128h128v-128h-256v128h-384v-128h-128v-512h512v128h256v-256h-128v-128h-128zM640 1280h-128v128h-128v128h512v-128h-128v-128h-128z" />
    <glyph glyph-name="Dcaron" unicode="&#x10e;" 
d="M896 0h-128h-640v1536h896v-128h128v-128h128v-128h128v-768h-128v-128h-128v-128h-128v-128h-128zM768 256h128v128h128v128h128v512h-128v128h-128v128h-512v-1024h384z" />
    <glyph glyph-name="dcaron" unicode="&#x10f;" 
d="M1536 1280v128h-128v128h256v-256h-128zM1152 0h-128h-640v128h-128v128h-128v640h128v128h128v128h512v-128h128v512h256v-1536h-128zM768 256h128v128h128v256h-128v256h-384v-128h-128v-512h384z" />
    <glyph glyph-name="Dcroat" unicode="&#x110;" 
d="M896 0h-128h-640v640h-128v256h128v640h896v-128h128v-128h128v-128h128v-768h-128v-128h-128v-128h-128v-128h-128zM768 256h128v128h128v128h128v512h-128v128h-128v128h-512v-384h384v-256h-384v-384h384z" />
    <glyph glyph-name="dcroat" unicode="&#x111;" 
d="M1152 0h-128h-640v128h-128v128h-128v640h128v128h128v128h512v128h-128v128h256v128h256v-128h128v-128h-128v-1280h-128zM768 256h128v128h128v256h-128v256h-384v-128h-128v-512h384zM1024 1024v128h-128v-128h128z" />
    <glyph glyph-name="Emacron" unicode="&#x112;" 
d="M1024 0h-128h-768v1536h1024v-256h-768v-384h768v-256h-768v-384h768v-256h-128z" />
    <glyph glyph-name="emacron" unicode="&#x113;" 
d="M896 0h-128h-384v128h-128v128h-128v640h128v128h128v128h512v-128h128v-128h128v-384h-768v-256h512v128h128v-128h128v-128h-128v-128h-128zM768 640h128v128h-128v128h-384v-256h384zM768 1536h128v-128h-512v128h384z" />
    <glyph glyph-name="Ebreve" unicode="&#x114;" 
d="M1024 0h-128h-768v1536h1024v-256h-768v-384h768v-256h-768v-384h768v-256h-128z" />
    <glyph glyph-name="ebreve" unicode="&#x115;" 
d="M896 0h-128h-384v128h-128v128h-128v640h128v128h128v128h512v-128h128v-128h128v-384h-768v-256h512v128h128v-128h128v-128h-128v-128h-128zM768 640h128v128h-128v128h-384v-256h384zM640 1280h-128v128h-128v128h512v-128h-128v-128h-128z" />
    <glyph glyph-name="Edotaccent" unicode="&#x116;" 
d="M1024 0h-128h-768v1536h1024v-256h-768v-384h768v-256h-768v-384h768v-256h-128z" />
    <glyph glyph-name="edotaccent" unicode="&#x117;" 
d="M512 1280v128v128h256v-128h-128v-128h-128zM896 0h-128h-384v128h-128v128h-128v640h128v128h128v128h512v-128h128v-128h128v-384h-768v-256h512v128h128v-128h128v-128h-128v-128h-128zM768 640h128v128h-128v128h-384v-256h384z" />
    <glyph glyph-name="Eogonek" unicode="&#x118;" 
d="M1024 -256h128v-128h-512v384h-512v1536h1024v-256h-768v-384h768v-256h-768v-384h768v-256h-256v-256h128z" />
    <glyph glyph-name="eogonek" unicode="&#x119;" 
d="M768 -256h128v-128h-512v128h-128v128h128v256h-128v128h-128v640h128v128h128v128h512v-128h128v-128h128v-384h-768v-256h512v128h128v-128h128v-128h-128v-128h-512v-256h256zM768 640h128v128h-128v128h-384v-256h384z" />
    <glyph glyph-name="Ecaron" unicode="&#x11a;" 
d="M1024 0h-128h-768v1536h1024v-256h-768v-384h768v-256h-768v-384h768v-256h-128z" />
    <glyph glyph-name="ecaron" unicode="&#x11b;" 
d="M896 0h-128h-384v128h-128v128h-128v640h128v128h128v128h512v-128h128v-128h128v-384h-768v-256h512v128h128v-128h128v-128h-128v-128h-128zM768 640h128v128h-128v128h-384v-256h384zM640 1280h-128v128h-128v128h512v-128h-128v-128h-128z" />
    <glyph glyph-name="Gcircumflex" unicode="&#x11c;" 
d="M1280 1024v128h-128v128h-512v-128h-128v-128h-128v-512h128v-128h128v-128h512v128h128v256h-384v256h640v-640h-128v-128h-128v-128h-768v128h-128v128h-128v128h-128v768h128v128h128v128h128v128h640v-128h256v-128h128v-128h-128v-128h-128z" />
    <glyph glyph-name="gcircumflex" unicode="&#x11d;" 
d="M384 1280v128v128h512v-128h128v-128h-256v128h-256v-128h-128zM896 -384h-128h-512v128h-128v128h128v128h128v-128h256v-128h128v128h128v256h-128v-128h-256v128h-256v128h-128v640h128v128h128v128h384v-128h256v128h128v-1408h-128v-128h-128zM640 256h128v128h128
v384h-128v128h-256v-128h-128v-384h128v-128h128z" />
    <glyph glyph-name="Gbreve" unicode="&#x11e;" 
d="M1280 1024v128h-128v128h-512v-128h-128v-128h-128v-512h128v-128h128v-128h512v128h128v256h-384v256h640v-640h-128v-128h-128v-128h-768v128h-128v128h-128v128h-128v768h128v128h128v128h128v128h640v-128h256v-128h128v-128h-128v-128h-128z" />
    <glyph glyph-name="gbreve" unicode="&#x11f;" 
d="M896 -384h-128h-512v128h-128v128h128v128h128v-128h256v-128h128v128h128v256h-128v-128h-256v128h-256v128h-128v640h128v128h128v128h384v-128h256v128h128v-1408h-128v-128h-128zM640 256h128v128h128v384h-128v128h-256v-128h-128v-384h128v-128h128zM640 1280h-128
v128h-128v128h512v-128h-128v-128h-128z" />
    <glyph glyph-name="Gdotaccent" unicode="&#x120;" 
d="M1280 1024v128h-128v128h-512v-128h-128v-128h-128v-512h128v-128h128v-128h512v128h128v256h-384v256h640v-640h-128v-128h-128v-128h-768v128h-128v128h-128v128h-128v768h128v128h128v128h128v128h640v-128h256v-128h128v-128h-128v-128h-128z" />
    <glyph glyph-name="gdotaccent" unicode="&#x121;" 
d="M640 1280v128h-128v128h256v-256h-128zM896 -384h-128h-512v128h-128v128h128v128h128v-128h256v-128h128v128h128v256h-128v-128h-256v128h-256v128h-128v640h128v128h128v128h384v-128h256v128h128v-1408h-128v-128h-128zM640 256h128v128h128v384h-128v128h-256v-128
h-128v-384h128v-128h128z" />
    <glyph glyph-name="Gcommaaccent" unicode="&#x122;" 
d="M1280 1024v128h-128v128h-512v-128h-128v-128h-128v-512h128v-128h128v-128h512v128h128v256h-384v256h640v-640h-128v-128h-128v-128h-768v128h-128v128h-128v128h-128v768h128v128h128v128h128v128h640v-128h256v-128h128v-128h-128v-128h-128zM896 -512h-128v384h128
v-128h128v-256h-128z" />
    <glyph glyph-name="gcommaaccent" unicode="&#x123;" 
d="M896 -384h-128h-512v128h-128v128h128v128h128v-128h256v-128h128v128h128v256h-128v-128h-256v128h-256v128h-128v640h128v128h128v128h384v-128h256v128h128v-1408h-128v-128h-128zM640 256h128v128h128v384h-128v128h-256v-128h-128v-384h128v-128h128zM640 1280h-128
v256h256v-256h-128z" />
    <glyph glyph-name="Hcircumflex" unicode="&#x124;" 
d="M1280 0h-128h-128v640h-640v-640h-256v1536h256v-640h640v640h384v-1536h-128z" />
    <glyph glyph-name="hcircumflex" unicode="&#x125;" 
d="M1024 0h-128v768h-128v128h-256v-128h-128v-768h-256v1536h256v-512h128v128h384v-128h128v-128h128v-896h-128z" />
    <glyph glyph-name="Hbar" unicode="&#x126;" 
d="M1280 0h-128h-128v640h-640v-640h-256v1152h-128v128h128v256h256v-256h640v256h384v-256h128v-128h-128v-1152h-128zM896 896h128v256h-640v-256h512z" />
    <glyph glyph-name="hbar" unicode="&#x127;" 
d="M1024 0h-128v768h-128v128h-256v-128h-128v-768h-256v1280h-256v128h256v128h256v-128h256v-128h-256v-256h128v128h384v-128h128v-128h128v-896h-128z" />
    <glyph glyph-name="Itilde" unicode="&#x128;" 
d="M256 0h-128v1536h256v-1536h-128z" />
    <glyph glyph-name="itilde" unicode="&#x129;" 
d="M256 0h-128v1152h256v-1152h-128zM384 1536h128v-128h-640v128h512z" />
    <glyph glyph-name="Imacron" unicode="&#x12a;" 
d="M256 0h-128v1536h256v-1536h-128z" />
    <glyph glyph-name="imacron" unicode="&#x12b;" 
d="M256 0h-128v1152h256v-1152h-128zM384 1536h128v-128h-512v128h384z" />
    <glyph glyph-name="Ibreve" unicode="&#x12c;" 
d="M256 0h-128v1536h256v-1536h-128z" />
    <glyph glyph-name="ibreve" unicode="&#x12d;" 
d="M256 0h-128v1152h256v-1152h-128zM256 1280h-128v128h-128v128h512v-128h-128v-128h-128z" />
    <glyph glyph-name="Iogonek" unicode="&#x12e;" 
d="M384 -256h128v-128h-512v128h-128v128h128v128h128v-256h256zM128 0v128v1408h256v-1536h-256z" />
    <glyph glyph-name="iogonek" unicode="&#x12f;" 
d="M128 1280v128v128h256v-128h-128v-128h-128zM256 -256h128v-128h-512v384h128v128h128v1024h256v-1152h-256v-256h128z" />
    <glyph glyph-name="Idotaccent" unicode="&#x130;" 
d="M256 0h-128v1536h256v-1536h-128z" />
    <glyph glyph-name="dotlessi" unicode="&#x131;" 
d="M256 0h-128v1152h256v-1152h-128z" />
    <glyph glyph-name="Jcircumflex" unicode="&#x134;" 
d="M256 0h-128v256h128v128h128v1152h256v-1280h-128v-128h-128v-128h-128z" />
    <glyph glyph-name="jcircumflex" unicode="&#x135;" 
d="M-128 -512v128v128h128v128h128v1280h256v-1408h-128v-128h-256v-128h-128zM512 1280h-128v128h-256v-128h-256v128h128v128h512v-128h128v-128h-128z" />
    <glyph glyph-name="Kcommaaccent" unicode="&#x136;" 
d="M768 -512h-128v128h-128v128h128v128h128v-128h128v-256h-128zM1152 0h-128v128h-128v256h-128v128h-128v128h-128v-128h-128v-512h-256v1536h256v-640h128v128h128v128h128v128h128v256h384v-128h-128v-128h-128v-256h-128v-384h128v-128h128v-256h128v-256h-128z" />
    <glyph glyph-name="kcommaaccent" unicode="&#x137;" 
d="M640 -512h-128v384h256v-384h-128zM1024 0h-128h-128v256h-128v128h-256v-384h-256v1536h256v-768h128v128h128v128h128v128h256v-256h-128v-128h-128v-256h128v-256h128v-128h128v-128h-128z" />
    <glyph glyph-name="kgreenlandic" unicode="&#x138;" 
d="M1024 0h-128h-128v256h-128v128h-128v128h-128v-512h-256v1152h256v-384h256v128h128v256h256v-256h-128v-256h-128v-128h128v-256h128v-128h128v-128h-128z" />
    <glyph glyph-name="Lacute" unicode="&#x139;" 
d="M896 0h-128h-640v1536h256v-1280h640v-256h-128z" />
    <glyph glyph-name="lacute" unicode="&#x13a;" 
d="M256 0h-128v1536h256v-1536h-128z" />
    <glyph glyph-name="Lcommaaccent" unicode="&#x13b;" 
d="M640 -512h-128v384h256v-384h-128zM896 0h-128h-640v1536h256v-1280h640v-256h-128z" />
    <glyph glyph-name="lcommaaccent" unicode="&#x13c;" 
d="M256 -512v128h-128v256h256v-384h-128zM256 0h-128v1536h256v-1536h-128z" />
    <glyph glyph-name="Lcaron" unicode="&#x13d;" 
d="M896 0h-128h-640v1536h256v-1280h640v-256h-128zM896 1152h-128v384h256v-384h-128z" />
    <glyph glyph-name="lcaron" unicode="&#x13e;" 
d="M640 1280v128v128h128v-256h-128zM256 0h-128v1536h256v-1536h-128z" />
    <glyph glyph-name="Ldot" unicode="&#x13f;" 
d="M896 0h-128h-640v1536h256v-1280h640v-256h-128zM768 640h-128v256h256v-256h-128z" />
    <glyph glyph-name="ldot" unicode="&#x140;" 
d="M256 0h-128v1536h256v-1536h-128zM640 640h-128v256h256v-256h-128z" />
    <glyph glyph-name="Lslash" unicode="&#x141;" 
d="M896 0h-128h-640v640h-128v128h128v768h256v-640h256v-128h-128v-128h-128v-384h640v-256h-128z" />
    <glyph glyph-name="lslash" unicode="&#x142;" 
d="M256 0h-128v640h-128v128h128v768h256v-512h128v-256h-128v-768h-128z" />
    <glyph glyph-name="Nacute" unicode="&#x143;" 
d="M1280 0h-128v128h-128v128h-128v128h-128v256h-128v128h-128v128h-128v-896h-256v1536h256v-128h128v-128h128v-256h128v-128h128v-128h128v640h128v128h256v-1536h-128z" />
    <glyph glyph-name="nacute" unicode="&#x144;" 
d="M1024 0h-128v768h-128v128h-256v-128h-128v-768h-256v1152h256v-128h128v128h384v-128h128v-128h128v-896h-128zM640 1280h-128v256h256v-256h-128z" />
    <glyph glyph-name="Ncommaaccent" unicode="&#x145;" 
d="M768 -512h-128v384h256v-384h-128zM1280 0h-128v128h-128v128h-128v128h-128v256h-128v128h-128v128h-128v-896h-256v1536h256v-128h128v-128h128v-256h128v-128h128v-128h128v640h128v128h256v-1536h-128z" />
    <glyph glyph-name="ncommaaccent" unicode="&#x146;" 
d="M640 -512h-128v384h256v-384h-128zM1024 0h-128v768h-128v128h-256v-128h-128v-768h-256v1152h256v-128h128v128h384v-128h128v-128h128v-896h-128z" />
    <glyph glyph-name="Ncaron" unicode="&#x147;" 
d="M1280 0h-128v128h-128v128h-128v128h-128v256h-128v128h-128v128h-128v-896h-256v1536h256v-128h128v-128h128v-256h128v-128h128v-128h128v640h128v128h256v-1536h-128z" />
    <glyph glyph-name="ncaron" unicode="&#x148;" 
d="M1024 0h-128v768h-128v128h-256v-128h-128v-768h-256v1152h256v-128h128v128h384v-128h128v-128h128v-896h-128zM640 1280h-128h-128v256h512v-128h-128v-128h-128z" />
    <glyph glyph-name="Eng" unicode="&#x14a;" 
d="M896 -512v128v128h128v128h128v256h-128v128h-128v128h-128v256h-128v128h-128v128h-128v-896h-256v1536h256v-128h128v-128h128v-256h128v-128h128v-128h128v640h128v128h256v-1792h-128v-128h-256v-128h-128z" />
    <glyph glyph-name="eng" unicode="&#x14b;" 
d="M640 -512v128h-128v128h256v1152h-256v-128h-128v-768h-256v1152h256v-128h128v128h384v-128h128v-256h128v-896h-128v-256h-256v-128h-128z" />
    <glyph glyph-name="Omacron" unicode="&#x14c;" 
d="M1152 0h-128h-512v128h-128v128h-128v128h-128v768h128v128h128v128h128v128h768v-128h128v-128h128v-128h128v-768h-128v-128h-128v-128h-128v-128h-128zM1024 256h128v128h128v128h128v512h-128v128h-128v128h-512v-128h-128v-128h-128v-512h128v-128h128v-128h384z
" />
    <glyph glyph-name="omacron" unicode="&#x14d;" 
d="M896 0h-128h-384v128h-128v128h-128v640h128v128h128v128h512v-128h256v-256h128v-384h-128v-256h-128v-128h-128zM768 256h128v256h128v128h-128v256h-384v-128h-128v-512h384zM896 1536h128v-128h-640v128h512z" />
    <glyph glyph-name="Obreve" unicode="&#x14e;" 
d="M1152 0h-128h-512v128h-128v128h-128v128h-128v768h128v128h128v128h128v128h768v-128h128v-128h128v-128h128v-768h-128v-128h-128v-128h-128v-128h-128zM1024 256h128v128h128v128h128v512h-128v128h-128v128h-512v-128h-128v-128h-128v-512h128v-128h128v-128h384z
" />
    <glyph glyph-name="obreve" unicode="&#x14f;" 
d="M896 0h-128h-384v128h-128v128h-128v640h128v128h128v128h512v-128h256v-256h128v-384h-128v-256h-128v-128h-128zM768 256h128v256h128v128h-128v256h-384v-128h-128v-512h384zM640 1280h-128v128h-128v128h512v-128h-128v-128h-128z" />
    <glyph glyph-name="Ohungarumlaut" unicode="&#x150;" 
d="M1152 0h-128h-512v128h-128v128h-128v128h-128v768h128v128h128v128h128v128h768v-128h128v-128h128v-128h128v-768h-128v-128h-128v-128h-128v-128h-128zM1024 256h128v128h128v128h128v512h-128v128h-128v128h-512v-128h-128v-128h-128v-512h128v-128h128v-128h384z
" />
    <glyph glyph-name="ohungarumlaut" unicode="&#x151;" 
d="M896 0h-128h-384v128h-128v128h-128v640h128v128h128v128h512v-128h256v-256h128v-384h-128v-256h-128v-128h-128zM768 256h128v256h128v128h-128v256h-384v-128h-128v-512h384zM896 1280h-128v256h256v-256h-128zM512 1280h-128v256h256v-256h-128z" />
    <glyph glyph-name="OE" unicode="&#x152;" 
d="M1664 0h-128h-128v128h-128v-128h-768v128h-128v128h-128v128h-128v768h128v128h128v128h128v128h768v-128h128v128h384v-256h-128v-384h128v-256h-128v-384h128v-256h-128zM1024 256h128v128h128v128h128v512h-128v128h-128v128h-512v-128h-128v-128h-128v-512h128v-128
h128v-128h384z" />
    <glyph glyph-name="oe" unicode="&#x153;" 
d="M1664 0h-128h-256v128h-256v-128h-640v128h-128v128h-128v640h128v128h128v128h512v-128h384v128h512v-256h-512v-256h512v-128h-512v-256h512v-256h-128zM768 256h128v256h128v128h-128v256h-384v-128h-128v-512h384z" />
    <glyph glyph-name="Racute" unicode="&#x154;" 
d="M1152 0h-128v128h-128v128h-128v256h-384v-512h-256v1536h896v-128h128v-128h128v-384h-128v-256h-128v-256h128v-256h128v-128h-128zM640 768h128v128h128v384h-512v-384h128v-128h128z" />
    <glyph glyph-name="racute" unicode="&#x155;" 
d="M384 1280v128v128h256v-128h-128v-128h-128zM256 0h-128v1152h256v-128h128v128h256v-256h-256v-128h-128v-768h-128z" />
    <glyph glyph-name="Rcommaaccent" unicode="&#x156;" 
d="M640 -512v128h-128v128h128v128h128v-128h128v-128h-128v-128h-128zM1152 0h-128v128h-128v128h-128v256h-384v-512h-256v1536h896v-128h128v-128h128v-384h-128v-256h-128v-256h128v-256h128v-128h-128zM640 768h128v128h128v384h-512v-384h128v-128h128z" />
    <glyph glyph-name="rcommaaccent" unicode="&#x157;" 
d="M256 -512v128h-128v256h256v-384h-128zM256 0h-128v1152h256v-128h128v128h256v-256h-256v-128h-128v-768h-128z" />
    <glyph glyph-name="Rcaron" unicode="&#x158;" 
d="M1152 0h-128v128h-128v128h-128v256h-384v-512h-256v1536h896v-128h128v-128h128v-384h-128v-256h-128v-256h128v-256h128v-128h-128zM640 768h128v128h128v384h-512v-384h128v-128h128z" />
    <glyph glyph-name="rcaron" unicode="&#x159;" 
d="M256 0h-128v1152h256v-128h128v128h256v-256h-256v-128h-128v-768h-128zM512 1280h-128h-128v128h-128v128h512v-256h-128z" />
    <glyph glyph-name="Sacute" unicode="&#x15a;" 
d="M896 0h-128h-384v128h-128v128h-128v256h256v-256h512v256h-128v128h-384v128h-128v128h-128v384h128v128h128v128h640v-128h128v-256h-256v128h-512v-256h128v-128h384v-128h256v-256h128v-128h-128v-256h-128v-128h-128z" />
    <glyph glyph-name="sacute" unicode="&#x15b;" 
d="M768 768v128h-384v-128h128v-128h256v-128h128v-128h128v-128h-128v-256h-640v128h-128v256h128v-128h384v128h-128v128h-256v128h-128v384h128v128h512v-128h128v-256h-128zM512 1280v128v128h256v-128h-128v-128h-128z" />
    <glyph glyph-name="Scircumflex" unicode="&#x15c;" 
d="M896 0h-128h-384v128h-128v128h-128v256h256v-256h512v256h-128v128h-384v128h-128v128h-128v384h128v128h128v128h640v-128h128v-256h-256v128h-512v-256h128v-128h384v-128h256v-256h128v-128h-128v-256h-128v-128h-128z" />
    <glyph glyph-name="scircumflex" unicode="&#x15d;" 
d="M768 768v128h-384v-128h128v-128h256v-128h128v-128h128v-128h-128v-256h-640v128h-128v256h128v-128h384v128h-128v128h-256v128h-128v384h128v128h512v-128h128v-256h-128zM256 1280v128v128h512v-128h128v-128h-256v128h-256v-128h-128z" />
    <glyph glyph-name="Scedilla" unicode="&#x15e;" 
d="M768 -512h-128h-128v128h256v128h-256v256h-128v128h-128v128h-128v256h256v-256h512v256h-128v128h-384v128h-128v128h-128v384h128v128h128v128h640v-128h128v-256h-256v128h-512v-256h128v-128h384v-128h256v-256h128v-128h-128v-256h-128v-128h-256v-128h128v-384
h-128z" />
    <glyph glyph-name="scedilla" unicode="&#x15f;" 
d="M768 768v128h-384v-128h128v-128h256v-128h128v-128h128v-128h-128v-256h-256v-128h128v-384h-384v128h128v128h-128v256h-128v128h-128v256h128v-128h384v128h-128v128h-256v128h-128v384h128v128h512v-128h128v-256h-128z" />
    <glyph glyph-name="Scaron" unicode="&#x160;" 
d="M896 0h-128h-384v128h-128v128h-128v256h256v-256h512v256h-128v128h-384v128h-128v128h-128v384h128v128h128v128h640v-128h128v-256h-256v128h-512v-256h128v-128h384v-128h256v-256h128v-128h-128v-256h-128v-128h-128z" />
    <glyph glyph-name="scaron" unicode="&#x161;" 
d="M768 768v128h-384v-128h128v-128h256v-128h128v-128h128v-128h-128v-256h-640v128h-128v256h128v-128h384v128h-128v128h-256v128h-128v384h128v128h512v-128h128v-256h-128zM512 1280h-128v128h-128v128h512v-128h-128v-128h-128z" />
    <glyph glyph-name="Tcommaaccent" unicode="&#x162;" 
d="M640 -512h-128h-128v128h256v128h-256v128h128v128h-128v1280h-384v256h1024v-128h128v-128h-512v-1408h128v-128h128v-128h-128v-128h-128z" />
    <glyph glyph-name="tcommaaccent" unicode="&#x163;" 
d="M640 -512h-128v128h128v128h-128v256h-128v128h-128v768h-256v128h128v128h128v256h256v-256h256v-256h-256v-640h256v-256h-128v-128h256v-256h-128v-128h-128z" />
    <glyph glyph-name="Tcaron" unicode="&#x164;" 
d="M512 0h-128v1280h-384v256h1024v-128h128v-128h-512v-1280h-128z" />
    <glyph glyph-name="tcaron" unicode="&#x165;" 
d="M768 1280v128h-128v128h256v-256h-128zM640 0h-128h-128v128h-128v768h-256v128h128v128h128v256h256v-256h256v-256h-256v-640h256v-256h-128z" />
    <glyph glyph-name="Tbar" unicode="&#x166;" 
d="M512 0h-128v640h-256v256h256v384h-384v256h1024v-128h128v-128h-512v-384h256v-128h128v-128h-384v-640h-128z" />
    <glyph glyph-name="tbar" unicode="&#x167;" 
d="M640 0h-128h-128v128h-128v256h-128v128h-128v128h256v256h-256v128h128v128h128v256h256v-256h256v-256h-256v-256h256v-256h-256v-128h256v-256h-128z" />
    <glyph glyph-name="Utilde" unicode="&#x168;" 
d="M896 0h-128h-384v128h-128v128h-128v1280h256v-1152h128v-128h384v128h128v1152h256v-1280h-128v-128h-128v-128h-128z" />
    <glyph glyph-name="utilde" unicode="&#x169;" 
d="M1024 0h-128h-640v128h-128v1024h256v-896h384v768h128v128h128v-128h128v-1024h-128zM768 1536h128v-128h-640v128h512z" />
    <glyph glyph-name="Umacron" unicode="&#x16a;" 
d="M896 0h-128h-384v128h-128v128h-128v1280h256v-1152h128v-128h384v128h128v1152h256v-1280h-128v-128h-128v-128h-128z" />
    <glyph glyph-name="umacron" unicode="&#x16b;" 
d="M1024 0h-128h-640v128h-128v1024h256v-896h384v768h128v128h128v-128h128v-1024h-128zM768 1536h128v-128h-640v128h512z" />
    <glyph glyph-name="Ubreve" unicode="&#x16c;" 
d="M896 0h-128h-384v128h-128v128h-128v1280h256v-1152h128v-128h384v128h128v1152h256v-1280h-128v-128h-128v-128h-128z" />
    <glyph glyph-name="ubreve" unicode="&#x16d;" 
d="M1024 0h-128h-640v128h-128v1024h256v-896h384v768h128v128h128v-128h128v-1024h-128zM640 1280h-128v128h-128v128h512v-128h-128v-128h-128z" />
    <glyph glyph-name="Uring" unicode="&#x16e;" 
d="M896 0h-128h-384v128h-128v128h-128v1280h256v-1152h128v-128h384v128h128v1152h256v-1280h-128v-128h-128v-128h-128z" />
    <glyph glyph-name="uring" unicode="&#x16f;" 
d="M512 1152v128h-128v256h128v-128h256v128h128v-256h-256v-128h-128zM1024 0h-128h-640v128h-128v1024h256v-896h384v768h128v128h128v-128h128v-1024h-128z" />
    <glyph glyph-name="Uhungarumlaut" unicode="&#x170;" 
d="M896 0h-128h-384v128h-128v128h-128v1280h256v-1152h128v-128h384v128h128v1152h256v-1280h-128v-128h-128v-128h-128z" />
    <glyph glyph-name="uhungarumlaut" unicode="&#x171;" 
d="M768 1280v128v128h256v-128h-128v-128h-128zM384 1280v128v128h256v-128h-128v-128h-128zM1024 0h-128h-640v128h-128v1024h256v-896h384v768h128v128h128v-128h128v-1024h-128z" />
    <glyph glyph-name="Uogonek" unicode="&#x172;" 
d="M896 -256h128v-128h-512v384h-128v128h-128v128h-128v1280h256v-1152h128v-128h384v128h128v1152h256v-1280h-128v-128h-128v-128h-256v-256h128z" />
    <glyph glyph-name="uogonek" unicode="&#x173;" 
d="M1024 -256h128v-128h-512v384h-384v128h-128v1024h256v-896h384v768h128v128h128v-128h128v-1024h-256v-256h128z" />
    <glyph glyph-name="Wcircumflex" unicode="&#x174;" 
d="M1536 0h-128h-128v512h-128v384h-128v-128h-128v-512h-128v-256h-384v384h-128v512h-128v512h-128v128h384v-512h128v-512h128v256h128v512h128v256h256v-128h128v-512h128v-384h128v384h128v512h128v-1152h-128v-256h-128z" />
    <glyph glyph-name="wcircumflex" unicode="&#x175;" 
d="M640 1280v128v128h512v-128h128v-128h-256v128h-256v-128h-128zM1280 0h-128v256h-128v384h-128v-128h-128v-384h-128v-128h-256v256h-128v384h-128v384h-128v128h256v-128h128v-384h128v-128h128v384h128v256h256v-256h128v-384h128v128h128v384h128v128h256v-256h-128
v-256h-128v-384h-128v-256h-128z" />
    <glyph glyph-name="Ycircumflex" unicode="&#x176;" 
d="M640 0h-128v768h-128v256h-128v256h-128v128h-128v128h384v-256h128v-128h128v-128h128v256h128v128h128v128h256v-256h-128v-128h-128v-256h-128v-256h-128v-640h-128z" />
    <glyph glyph-name="ycircumflex" unicode="&#x177;" 
d="M768 1280v128h-256v-128h-256v128h128v128h512v-256h-128zM384 -384h-128h-128v128h128v128h128v512h-128v256h-128v384h-128v128h256v-128h128v-256h128v-384h128v256h128v384h128v128h256v-256h-128v-384h-128v-256h-128v-384h-128v-128h-128v-128h-128z" />
    <glyph glyph-name="Ydieresis" unicode="&#x178;" 
d="M640 0h-128v768h-128v256h-128v256h-128v128h-128v128h384v-256h128v-128h128v-128h128v256h128v128h128v128h256v-256h-128v-128h-128v-256h-128v-256h-128v-640h-128z" />
    <glyph glyph-name="Zacute" unicode="&#x179;" 
d="M1024 0h-128h-896v256h128v256h128v128h128v128h128v256h128v128h128v128h-768v128h128v128h1024v-256h-128v-256h-128v-128h-128v-128h-128v-256h-128v-128h-128v-128h768v-256h-128z" />
    <glyph glyph-name="zacute" unicode="&#x17a;" 
d="M896 0h-128h-768v256h128v128h128v128h128v256h128v128h-512v128h128v128h768v-384h-128v-128h-128v-128h-128v-256h384v-128h128v-128h-128zM512 1280h-128v128h128v128h256v-128h-128v-128h-128z" />
    <glyph glyph-name="Zdotaccent" unicode="&#x17b;" 
d="M1024 0h-128h-896v256h128v256h128v128h128v128h128v256h128v128h128v128h-768v128h128v128h1024v-256h-128v-256h-128v-128h-128v-128h-128v-256h-128v-128h-128v-128h768v-256h-128z" />
    <glyph glyph-name="zdotaccent" unicode="&#x17c;" 
d="M384 1280v128v128h256v-128h-128v-128h-128zM896 0h-128h-768v256h128v128h128v128h128v256h128v128h-512v128h128v128h768v-384h-128v-128h-128v-128h-128v-256h384v-128h128v-128h-128z" />
    <glyph glyph-name="Zcaron" unicode="&#x17d;" 
d="M1024 0h-128h-896v256h128v256h128v128h128v128h128v256h128v128h128v128h-768v128h128v128h1024v-256h-128v-256h-128v-128h-128v-128h-128v-256h-128v-128h-128v-128h768v-256h-128z" />
    <glyph glyph-name="zcaron" unicode="&#x17e;" 
d="M896 0h-128h-768v256h128v128h128v128h128v256h128v128h-512v128h128v128h768v-384h-128v-128h-128v-128h-128v-256h384v-128h128v-128h-128zM512 1280h-128v128h-128v128h512v-128h-128v-128h-128z" />
    <glyph glyph-name="uni018F" unicode="&#x18f;" 
d="M1024 0h-128h-384v128h-256v256h-128v512h1152v128h-128v128h-128v128h-512v-128h-384v128h128v128h128v128h768v-128h128v-128h128v-128h128v-768h-128v-128h-128v-128h-128v-128h-128zM1024 256h128v256h128v128h-896v-128h128v-256h512z" />
    <glyph glyph-name="florin" unicode="&#x192;" 
d="M384 0h-128h-128v128h128v128h128v384h-128v256h128v256h128v256h128v128h384v-128h-128v-128h-128v-384h128v-256h-128v-384h-128v-128h-128v-128h-128z" />
    <glyph glyph-name="Ohorn" unicode="&#x1a0;" 
d="M1152 0h-128h-512v128h-128v128h-128v128h-128v768h128v128h128v128h128v128h1152v-128h-128v-256h128v-768h-128v-128h-128v-128h-128v-128h-128zM1024 256h128v128h128v128h128v512h-128v128h-128v128h-512v-128h-128v-128h-128v-512h128v-128h128v-128h384z" />
    <glyph glyph-name="ohorn" unicode="&#x1a1;" 
d="M896 0h-128h-384v128h-128v128h-128v640h128v128h128v128h640v256h128v-128h128v-128h-128v-384h128v-384h-128v-256h-128v-128h-128zM768 256h128v256h128v128h-128v256h-384v-128h-128v-512h384z" />
    <glyph glyph-name="Uhorn" unicode="&#x1af;" 
d="M896 0h-128h-384v128h-128v128h-128v1280h256v-1152h128v-128h384v128h128v1152h640v-128h-256v-128h-128v-1024h-128v-128h-128v-128h-128z" />
    <glyph glyph-name="uhorn" unicode="&#x1b0;" 
d="M1024 0h-128h-640v128h-128v1024h256v-896h384v768h128v128h256v256h128v-384h-128v-1024h-128z" />
    <glyph glyph-name="uni01C4" unicode="&#x1c4;" 
d="M1664 0h-128v256h128v256h128v-512h-128zM896 0h-128h-640v1536h896v-128h128v-128h128v-128h128v-768h-128v-128h-128v-128h-128v-128h-128zM768 256h128v128h128v128h128v512h-128v128h-128v128h-512v-1024h384zM1664 1280h-128v256h256v-256h-128z" />
    <glyph glyph-name="uni01C5" unicode="&#x1c5;" 
d="M1664 0h-128v256h128v128h128v-384h-128zM896 0h-128h-640v1536h896v-128h128v-128h128v-128h128v-768h-128v-128h-128v-128h-128v-128h-128zM768 256h128v128h128v128h128v512h-128v128h-128v128h-512v-1024h384zM1664 896h-128v256h256v-256h-128z" />
    <glyph glyph-name="uni01C6" unicode="&#x1c6;" 
d="M1664 1280v128h-128v128h256v-256h-128zM1664 0h-128h-128v256h128v256h128v128h128v-640h-128zM1152 0h-128h-640v128h-128v128h-128v640h128v128h128v128h512v-128h128v512h256v-1536h-128zM768 256h128v128h128v256h-128v256h-384v-128h-128v-512h384zM1664 896h-128
h-128v256h384v-256h-128z" />
    <glyph glyph-name="uni01C7" unicode="&#x1c7;" 
d="M1664 0h-128h-128v128h-128v128h-128v128h384v-128h256v-256h-128zM896 0h-128h-640v1536h256v-1280h640v-256h-128z" />
    <glyph glyph-name="uni01C8" unicode="&#x1c8;" 
d="M1024 -512v128v128h128v128h128v1280h256v-1408h-128v-128h-256v-128h-128zM896 0h-128h-640v1536h256v-1280h640v-256h-128zM1408 1280h-128v256h256v-256h-128z" />
    <glyph glyph-name="uni01C9" unicode="&#x1c9;" 
d="M384 -512v128v128h128v128h128v1280h256v-1408h-128v-128h-256v-128h-128zM256 0h-128v1536h256v-1536h-128zM768 1280h-128v256h256v-256h-128z" />
    <glyph glyph-name="uni01CA" unicode="&#x1ca;" 
d="M1664 0h-128v256h256v-256h-128zM1280 0h-128v128h-128v128h-128v128h-128v256h-128v128h-128v128h-128v-896h-256v1536h256v-128h128v-128h128v-256h128v-128h128v-128h128v640h128v128h256v-1536h-128z" />
    <glyph glyph-name="uni01CB" unicode="&#x1cb;" 
d="M1408 -512v128v128h128v128h128v1280h128v-1536h-256v-128h-128zM1664 1280v128v128h128v-256h-128zM1280 0h-128v128h-128v128h-128v128h-128v256h-128v128h-128v128h-128v-896h-256v1536h256v-128h128v-128h128v-256h128v-128h128v-128h128v640h128v128h256v-1536h-128
z" />
    <glyph glyph-name="uni01CC" unicode="&#x1cc;" 
d="M1152 -512v128h-128v128h256v1280h128v128h128v-128h128v-1152h-128v-256h-256v-128h-128zM1024 0h-128v768h-128v128h-256v-128h-128v-768h-256v1152h256v-128h128v128h384v-128h128v-128h128v-896h-128zM1536 1280h-128h-128v128h128v128h128v-128h128v-128h-128z" />
    <glyph glyph-name="Gcaron" unicode="&#x1e6;" 
d="M1280 1024v128h-128v128h-512v-128h-128v-128h-128v-512h128v-128h128v-128h512v128h128v256h-384v256h640v-640h-128v-128h-128v-128h-768v128h-128v128h-128v128h-128v768h128v128h128v128h128v128h640v-128h256v-128h128v-128h-128v-128h-128z" />
    <glyph glyph-name="gcaron" unicode="&#x1e7;" 
d="M896 -384h-128h-512v128h-128v128h128v128h128v-128h256v-128h128v128h128v256h-128v-128h-256v128h-256v128h-128v640h128v128h128v128h384v-128h256v128h128v-1408h-128v-128h-128zM640 256h128v128h128v384h-128v128h-256v-128h-128v-384h128v-128h128zM640 1280h-128
v128h-128v128h512v-128h-128v-128h-128z" />
    <glyph glyph-name="uni01EA" unicode="&#x1ea;" 
d="M1152 -256h128v-128h-512v384h-256v128h-128v128h-128v128h-128v768h128v128h128v128h128v128h768v-128h128v-128h128v-128h128v-768h-128v-128h-128v-128h-128v-128h-256v-256h128zM1024 256h128v128h128v128h128v512h-128v128h-128v128h-512v-128h-128v-128h-128v-512
h128v-128h128v-128h384z" />
    <glyph glyph-name="uni01EB" unicode="&#x1eb;" 
d="M768 -256h128v-128h-512v512h-128v128h-128v640h128v128h128v128h512v-128h256v-256h128v-384h-128v-256h-128v-128h-384v-128h-128v-128h256zM768 256h128v256h128v128h-128v256h-384v-128h-128v-512h384z" />
    <glyph glyph-name="Aringacute" unicode="&#x1fa;" 
d="M1280 0h-128v128h-128v256h-512v-128h-128v-256h-384v128h128v384h128v384h128v384h128v256h384v-128h128v-384h128v-384h128v-384h128v-256h-128zM768 640h128v256h-128v256h-128v-384h-128v-128h256z" />
    <glyph glyph-name="aringacute" unicode="&#x1fb;" 
d="M896 0h-128h-640v512h128v128h512v256h-384v-128h-256v256h256v128h128v128h-128v256h128v-128h128v128h256v-128h-128v-128h-128v-128h256v-128h128v-1024h-128zM640 128v128h128v256h-256v-128h-128v-128h128v-128h128z" />
    <glyph glyph-name="AEacute" unicode="&#x1fc;" 
d="M1664 0h-128h-640v384h-384v-128h-128v-256h-384v128h128v384h128v384h128v384h128v256h1280v-256h-512v-384h512v-256h-512v-384h512v-256h-128zM768 640h128v640h-128v-128h-128v-384h-128v-128h256z" />
    <glyph glyph-name="aeacute" unicode="&#x1fd;" 
d="M1536 0h-128h-1280v512h128v128h512v256h-384v-128h-256v256h256v128h512v-128h256v128h512v-128h128v-512h-640v-256h640v-128h-128v-128h-128zM640 128v128h128v256h-256v-128h-128v-128h128v-128h128zM1408 640h128v256h-384v-256h256zM1024 1280h-128v256h256v-256
h-128z" />
    <glyph glyph-name="Oslashacute" unicode="&#x1fe;" 
d="M1152 0h-128h-896v128h128v256h-128v768h128v128h128v128h128v128h1152v-128h-128v-256h128v-768h-128v-128h-128v-128h-128v-128h-128zM1024 256h128v128h128v128h128v512h-256v-256h-128v-128h-128v-128h-128v-128h-128v-128h384zM512 512h128v256h128v128h128v128h128
v128h128v128h-512v-128h-128v-128h-128v-512h128z" />
    <glyph glyph-name="oslashacute" unicode="&#x1ff;" 
d="M640 1280v128v128h256v-128h-128v-128h-128zM896 0h-128h-640v896h128v128h128v128h768v-384h128v-384h-128v-256h-128v-128h-128zM768 256h128v256h128v128h-256v-256h-128v-128h128zM512 512v128h128v128h128v128h-256v-128h-128v-256h128z" />
    <glyph glyph-name="uni0200" unicode="&#x200;" 
d="M1280 0h-128v128h-128v256h-512v-128h-128v-256h-384v128h128v384h128v384h128v384h128v256h384v-128h128v-384h128v-384h128v-384h128v-256h-128zM768 640h128v256h-128v256h-128v-384h-128v-128h256z" />
    <glyph glyph-name="uni0201" unicode="&#x201;" 
d="M896 0h-128h-640v512h128v128h512v256h-384v-128h-256v256h256v128h512v-128h128v-1024h-128zM640 128v128h128v256h-256v-128h-128v-128h128v-128h128zM768 1280h-128v128h-128v-128h-256v128h-128v128h640v-128h128v-128h-128z" />
    <glyph glyph-name="uni0202" unicode="&#x202;" 
d="M1280 0h-128v128h-128v256h-512v-128h-128v-256h-384v128h128v384h128v384h128v384h128v256h384v-128h128v-384h128v-384h128v-384h128v-256h-128zM768 640h128v256h-128v256h-128v-384h-128v-128h256z" />
    <glyph glyph-name="uni0203" unicode="&#x203;" 
d="M768 1280v128h-256v-128h-256v128h128v128h512v-256h-128zM896 0h-128h-640v512h128v128h512v256h-384v-128h-256v256h256v128h512v-128h128v-1024h-128zM640 128v128h128v256h-256v-128h-128v-128h128v-128h128z" />
    <glyph glyph-name="uni0204" unicode="&#x204;" 
d="M1024 0h-128h-768v1536h1024v-256h-768v-384h768v-256h-768v-384h768v-256h-128z" />
    <glyph glyph-name="uni0205" unicode="&#x205;" 
d="M896 0h-128h-384v128h-128v128h-128v640h128v128h128v128h512v-128h128v-128h128v-384h-768v-256h512v128h128v-128h128v-128h-128v-128h-128zM768 640h128v128h-128v128h-384v-256h384zM768 1280h-128v256h256v-256h-128zM384 1280h-128v256h256v-256h-128z" />
    <glyph glyph-name="uni0206" unicode="&#x206;" 
d="M1024 0h-128h-768v1536h1024v-256h-768v-384h768v-256h-768v-384h768v-256h-128z" />
    <glyph glyph-name="uni0207" unicode="&#x207;" 
d="M768 1280v128h-256v-128h-128v256h512v-256h-128zM896 0h-128h-384v128h-128v128h-128v640h128v128h128v128h512v-128h128v-128h128v-384h-768v-256h512v128h128v-128h128v-128h-128v-128h-128zM768 640h128v128h-128v128h-384v-256h384z" />
    <glyph glyph-name="uni0208" unicode="&#x208;" 
d="M256 0h-128v1536h256v-1536h-128z" />
    <glyph glyph-name="uni0209" unicode="&#x209;" 
d="M256 0h-128v1152h256v-1152h-128zM384 1280h-128v256h256v-256h-128zM0 1280h-128v256h256v-256h-128z" />
    <glyph glyph-name="uni020A" unicode="&#x20a;" 
d="M256 0h-128v1536h256v-1536h-128z" />
    <glyph glyph-name="uni020B" unicode="&#x20b;" 
d="M384 1280v128h-256v-128h-256v128h128v128h512v-256h-128zM256 0h-128v1152h256v-1152h-128z" />
    <glyph glyph-name="uni020C" unicode="&#x20c;" 
d="M1152 0h-128h-512v128h-128v128h-128v128h-128v768h128v128h128v128h128v128h768v-128h128v-128h128v-128h128v-768h-128v-128h-128v-128h-128v-128h-128zM1024 256h128v128h128v128h128v512h-128v128h-128v128h-512v-128h-128v-128h-128v-512h128v-128h128v-128h384z
" />
    <glyph glyph-name="uni020D" unicode="&#x20d;" 
d="M768 1280v128h-128v128h256v-256h-128zM384 1280v128h-128v128h256v-256h-128zM896 0h-128h-384v128h-128v128h-128v640h128v128h128v128h512v-128h256v-256h128v-384h-128v-256h-128v-128h-128zM768 256h128v256h128v128h-128v256h-384v-128h-128v-512h384z" />
    <glyph glyph-name="uni020E" unicode="&#x20e;" 
d="M1152 0h-128h-512v128h-128v128h-128v128h-128v768h128v128h128v128h128v128h768v-128h128v-128h128v-128h128v-768h-128v-128h-128v-128h-128v-128h-128zM1024 256h128v128h128v128h128v512h-128v128h-128v128h-512v-128h-128v-128h-128v-512h128v-128h128v-128h384z
" />
    <glyph glyph-name="uni020F" unicode="&#x20f;" 
d="M384 1280v128v128h512v-128h128v-128h-256v128h-256v-128h-128zM896 0h-128h-384v128h-128v128h-128v640h128v128h128v128h512v-128h256v-256h128v-384h-128v-256h-128v-128h-128zM768 256h128v256h128v128h-128v256h-384v-128h-128v-512h384z" />
    <glyph glyph-name="uni0210" unicode="&#x210;" 
d="M1152 0h-128v128h-128v128h-128v256h-384v-512h-256v1536h896v-128h128v-128h128v-384h-128v-256h-128v-256h128v-256h128v-128h-128zM640 768h128v128h128v384h-512v-384h128v-128h128z" />
    <glyph glyph-name="uni0211" unicode="&#x211;" 
d="M512 1280v128h-128v128h256v-256h-128zM128 1280v128h-128v128h256v-256h-128zM256 0h-128v1152h256v-128h128v128h256v-256h-256v-128h-128v-768h-128z" />
    <glyph glyph-name="uni0212" unicode="&#x212;" 
d="M1152 0h-128v128h-128v128h-128v256h-384v-512h-256v1536h896v-128h128v-128h128v-384h-128v-256h-128v-256h128v-256h128v-128h-128zM640 768h128v128h128v384h-512v-384h128v-128h128z" />
    <glyph glyph-name="uni0213" unicode="&#x213;" 
d="M128 1280v128v128h640v-256h-256v128h-256v-128h-128zM256 0h-128v1152h256v-128h128v128h256v-256h-256v-128h-128v-768h-128z" />
    <glyph glyph-name="uni0214" unicode="&#x214;" 
d="M896 0h-128h-384v128h-128v128h-128v1280h256v-1152h128v-128h384v128h128v1152h256v-1280h-128v-128h-128v-128h-128z" />
    <glyph glyph-name="uni0215" unicode="&#x215;" 
d="M1024 0h-128h-640v128h-128v1024h256v-896h384v768h128v128h128v-128h128v-1024h-128zM768 1280h-128v128h-128v-128h-256v128h-128v128h768v-256h-128z" />
    <glyph glyph-name="uni0216" unicode="&#x216;" 
d="M896 0h-128h-384v128h-128v128h-128v1280h256v-1152h128v-128h384v128h128v1152h256v-1280h-128v-128h-128v-128h-128z" />
    <glyph glyph-name="uni0217" unicode="&#x217;" 
d="M768 1280v128h-256v-128h-256v128h128v128h512v-256h-128zM1024 0h-128h-640v128h-128v1024h256v-896h384v768h128v128h128v-128h128v-1024h-128z" />
    <glyph glyph-name="Scommaaccent" unicode="&#x218;" 
d="M640 -512v128h-128v256h256v-384h-128zM896 0h-128h-384v128h-128v128h-128v256h256v-256h512v256h-128v128h-384v128h-128v128h-128v384h128v128h128v128h640v-128h128v-256h-256v128h-512v-256h128v-128h384v-128h256v-256h128v-128h-128v-256h-128v-128h-128z" />
    <glyph glyph-name="scommaaccent" unicode="&#x219;" 
d="M512 -512v128h-128v256h256v-384h-128zM768 768v128h-384v-128h128v-128h256v-128h128v-128h128v-128h-128v-256h-640v128h-128v256h128v-128h384v128h-128v128h-256v128h-128v384h128v128h512v-128h128v-256h-128z" />
    <glyph glyph-name="uni021A" unicode="&#x21a;" 
d="M512 -512v128h-128v128h128v128h128v-128h128v-128h-128v-128h-128zM512 0h-128v1280h-384v256h1024v-128h128v-128h-512v-1280h-128z" />
    <glyph glyph-name="uni021B" unicode="&#x21b;" 
d="M640 -512h-128v384h256v-384h-128zM640 0h-128h-128v128h-128v768h-256v128h128v128h128v256h256v-256h256v-256h-256v-640h256v-256h-128z" />
    <glyph glyph-name="uni022A" unicode="&#x22a;" 
d="M1152 0h-128h-512v128h-128v128h-128v128h-128v768h128v128h128v128h128v128h768v-128h128v-128h128v-128h128v-768h-128v-128h-128v-128h-128v-128h-128zM1024 256h128v128h128v128h128v512h-128v128h-128v128h-512v-128h-128v-128h-128v-512h128v-128h128v-128h384z
" />
    <glyph glyph-name="uni022B" unicode="&#x22b;" 
d="M768 1280v128v128h256v-128h-128v-128h-128zM384 1280v128v128h256v-128h-128v-128h-128zM896 0h-128h-384v128h-128v128h-128v640h128v128h128v128h512v-128h256v-256h128v-384h-128v-256h-128v-128h-128zM768 256h128v256h128v128h-128v256h-384v-128h-128v-512h384z
" />
    <glyph glyph-name="uni022C" unicode="&#x22c;" 
d="M1152 0h-128h-512v128h-128v128h-128v128h-128v768h128v128h128v128h128v128h768v-128h128v-128h128v-128h128v-768h-128v-128h-128v-128h-128v-128h-128zM1024 256h128v128h128v128h128v512h-128v128h-128v128h-512v-128h-128v-128h-128v-512h128v-128h128v-128h384z
" />
    <glyph glyph-name="uni022D" unicode="&#x22d;" 
d="M768 1280v128h-256v-128h-128v256h640v-128h-128v-128h-128zM896 0h-128h-384v128h-128v128h-128v640h128v128h128v128h512v-128h256v-256h128v-384h-128v-256h-128v-128h-128zM768 256h128v256h128v128h-128v256h-384v-128h-128v-512h384z" />
    <glyph glyph-name="uni0230" unicode="&#x230;" 
d="M1152 0h-128h-512v128h-128v128h-128v128h-128v768h128v128h128v128h128v128h768v-128h128v-128h128v-128h128v-768h-128v-128h-128v-128h-128v-128h-128zM1024 256h128v128h128v128h128v512h-128v128h-128v128h-512v-128h-128v-128h-128v-512h128v-128h128v-128h384z
" />
    <glyph glyph-name="uni0231" unicode="&#x231;" 
d="M640 1280v128h-128v128h256v-256h-128zM896 0h-128h-384v128h-128v128h-128v640h128v128h128v128h512v-128h256v-256h128v-384h-128v-256h-128v-128h-128zM768 256h128v256h128v128h-128v256h-384v-128h-128v-512h384z" />
    <glyph glyph-name="uni0232" unicode="&#x232;" 
d="M640 0h-128v768h-128v256h-128v256h-128v128h-128v128h384v-256h128v-128h128v-128h128v256h128v128h128v128h256v-256h-128v-128h-128v-256h-128v-256h-128v-640h-128z" />
    <glyph glyph-name="uni0233" unicode="&#x233;" 
d="M384 -384h-128h-128v128h128v128h128v512h-128v256h-128v384h-128v128h256v-128h128v-256h128v-384h128v256h128v384h128v128h256v-256h-128v-384h-128v-256h-128v-384h-128v-128h-128v-128h-128zM768 1536h128v-128h-640v128h512z" />
    <glyph glyph-name="uni0237" unicode="&#x237;" 
d="M-128 -512v128v128h128v128h128v1280h256v-1408h-128v-128h-256v-128h-128z" />
    <glyph glyph-name="uni0259" unicode="&#x259;" 
d="M768 0h-128h-384v128h-128v512h768v128h-128v128h-384v-128h-256v256h256v128h512v-128h128v-128h128v-640h-128v-128h-128v-128h-128zM768 256h128v128h-512v-128h384z" />
    <glyph glyph-name="uni02BB" unicode="&#x2bb;" 
d="M384 896h-128v512h128v128h128v-640h-128z" />
    <glyph glyph-name="afii57929" unicode="&#x2bc;" 
d="M256 896v128v512h256v-512h-128v-128h-128z" />
    <glyph glyph-name="uni02BE" unicode="&#x2be;" 
d="M256 1152v128v128h128v128h128v-256h-128v-128h-128z" />
    <glyph glyph-name="uni02BF" unicode="&#x2bf;" 
d="M384 1152v128h-128v256h128v-128h128v-256h-128z" />
    <glyph glyph-name="circumflex" unicode="&#x2c6;" 
d="M640 1152h-128v128h-256v-128h-256v128h128v128h128v128h256v-128h128v-128h128v-128h-128z" />
    <glyph glyph-name="caron" unicode="&#x2c7;" 
d="M384 1152h-128v128h-128v128h-128v128h256v-128h256v128h256v-128h-128v-128h-128v-128h-128z" />
    <glyph glyph-name="uni02C8" unicode="&#x2c8;" 
d="M384 1152h-128v384h256v-384h-128z" />
    <glyph glyph-name="uni02C9" unicode="&#x2c9;" 
d="M640 1536h128v-128h-512v128h384z" />
    <glyph glyph-name="uni02CA" unicode="&#x2ca;" 
d="M256 1152h-128v256h128v128h384v-128h-128v-128h-128v-128h-128z" />
    <glyph glyph-name="uni02CB" unicode="&#x2cb;" 
d="M512 1152h-128v128h-128v128h-128v128h384v-128h128v-256h-128z" />
    <glyph glyph-name="uni02CC" unicode="&#x2cc;" 
d="M256 -384v128v256h128v-384h-128z" />
    <glyph glyph-name="breve" unicode="&#x2d8;" 
d="M512 1280h128v-128h-384v128h256zM640 1280v128h128v-128h-128zM256 1280h-128v128h128v-128z" />
    <glyph glyph-name="dotaccent" unicode="&#x2d9;" 
d="M384 1280v128h-128v128h256v-256h-128z" />
    <glyph glyph-name="ring" unicode="&#x2da;" 
d="M512 1152h-128v128h-128v256h128v-128h256v128h128v-256h-128v-128h-128z" />
    <glyph glyph-name="ogonek" unicode="&#x2db;" 
d="M640 -256h128v-128h-512v384h256v-256h128z" />
    <glyph glyph-name="tilde" unicode="&#x2dc;" 
d="M768 1280h-128h-384v256h640v-256h-128z" />
    <glyph glyph-name="hungarumlaut" unicode="&#x2dd;" 
d="M768 1280h-128v128h128v128h256v-128h-128v-128h-128zM384 1280h-128v128h128v128h256v-128h-128v-128h-128z" />
    <glyph glyph-name="gravecomb" unicode="&#x300;" 
d="M-256 1280v128v128h128v-256h-128z" />
    <glyph glyph-name="acutecomb" unicode="&#x301;" 
d="M-256 1408v128h128v-128h-128z" />
    <glyph glyph-name="uni0302" unicode="&#x302;" 
d="M-256 1280v128v128h128v-256h-128z" />
    <glyph glyph-name="tildecomb" unicode="&#x303;" 
d="M-256 1280v128v128h128v-256h-128z" />
    <glyph glyph-name="uni0304" unicode="&#x304;" 
d="M-256 1408v128h128v-128h-128z" />
    <glyph glyph-name="uni0306" unicode="&#x306;" 
d="M-256 1408v128h128v-128h-128z" />
    <glyph glyph-name="uni0307" unicode="&#x307;" 
d="M-256 1280v128v128h128v-256h-128z" />
    <glyph glyph-name="uni0308" unicode="&#x308;" 
d="M128 1280v128h128v-128h-128zM-256 1280v128h128v-128h-128z" />
    <glyph glyph-name="uni030A" unicode="&#x30a;" 
d="M-256 1280v128v128h128v-256h-128z" />
    <glyph glyph-name="uni030B" unicode="&#x30b;" 
d="M128 1024v128v128h128v256h256v-256h-128v-128h-128v-128h-128zM-256 1024v128v128h128v256h256v-256h-128v-128h-128v-128h-128z" />
    <glyph glyph-name="uni030C" unicode="&#x30c;" 
d="M0 1152v128h128v-128h-128zM128 1280v128h128v-128h-128zM0 1280h-128v128h128v-128zM256 1408v128h128v-128h-128zM-128 1408h-128v128h128v-128z" />
    <glyph glyph-name="uni030F" unicode="&#x30f;" 
d="M256 1152v128h-128v256h256v-384h-128zM-128 1152v128h-128v256h256v-384h-128z" />
    <glyph glyph-name="uni0311" unicode="&#x311;" 
d="M128 1280v128h128v-128h-128zM-256 1280v128h128v-128h-128zM128 1408h-128h-128v128h256v-128z" />
    <glyph glyph-name="uni0312" unicode="&#x312;" 
d="M0 1024h-128h-128v384h128v-128h256v-256h-128zM0 1536h128v-128h-256v128h128z" />
    <glyph glyph-name="uni031B" unicode="&#x31b;" 
d="M128 1024h-128v128h128v128h-128v256h384v-384h-128v-128h-128z" />
    <glyph glyph-name="dotbelowcomb" unicode="&#x323;" 
d="M-256 -384v128v128h128v-256h-128z" />
    <glyph glyph-name="uni0324" unicode="&#x324;" 
d="M-256 -512v128v256h128v-384h-128z" />
    <glyph glyph-name="uni0326" unicode="&#x326;" 
d="M-256 -512v128v256h128v-384h-128z" />
    <glyph glyph-name="uni0327" unicode="&#x327;" 
d="M-256 -256v128h128v-128h-128z" />
    <glyph glyph-name="uni0328" unicode="&#x328;" 
d="M-256 -384v128h128v-128h-128z" />
    <glyph glyph-name="uni032E" unicode="&#x32e;" 
d="M-256 -384v128v128h128v-256h-128z" />
    <glyph glyph-name="uni0331" unicode="&#x331;" 
d="M-256 -384v128h128v-128h-128z" />
    <glyph glyph-name="Delta" unicode="&#x394;" 
d="M1152 0h-128h-1024v384h128v384h128v384h128v384h512v-384h128v-384h128v-384h128v-384h-128zM768 256h128v384h-128v384h-256v-384h-128v-384h384z" />
    <glyph glyph-name="Omega" unicode="&#x3a9;" 
d="M1536 0h-128h-384v256h128v128h128v128h128v512h-128v128h-128v128h-512v-128h-128v-128h-128v-512h128v-128h128v-128h128v-256h-640v256h128v128h-128v768h128v128h128v128h128v128h768v-128h128v-128h128v-128h128v-768h-128v-128h128v-256h-128z" />
    <glyph glyph-name="pi" unicode="&#x3c0;" 
d="M1024 0h-128v896h-384v-896h-256v896h-256v128h128v128h1152v-128h128v-128h-256v-896h-128z" />
    <glyph glyph-name="uni0E3F" unicode="&#xe3f;" 
d="M640 -256v128v128h-512v1536h896v-128h128v-128h128v-384h-128v-128h128v-640h-128v-128h-384v-256h-128zM896 256h128v384h-256v-384h128zM512 256h128v384h-256v-384h128zM896 896v128h128v128h-128v128h-128v-384h128zM640 896v128v256h-256v-256h128v-128h128z" />
    <glyph glyph-name="uni1E08" unicode="&#x1e08;" 
d="M1280 1024v128h-128v128h-512v-128h-128v-128h-128v-512h128v-128h128v-128h512v128h128v128h128v-128h128v-128h-128v-128h-128v-128h-384v-128h128v-384h-384v128h256v128h-256v256h-128v128h-128v128h-128v128h-128v768h128v128h128v128h128v128h640v-128h256v-128
h128v-128h-128v-128h-128z" />
    <glyph glyph-name="uni1E09" unicode="&#x1e09;" 
d="M640 1280v128v128h256v-128h-128v-128h-128zM768 -512h-128h-128v128h256v128h-256v256h-128v128h-128v128h-128v640h128v128h128v128h512v-128h128v-128h128v-128h-256v128h-384v-128h-128v-512h512v128h256v-256h-128v-128h-256v-128h128v-384h-128z" />
    <glyph glyph-name="uni1E0C" unicode="&#x1e0c;" 
d="M768 -384h-128v256h256v-256h-128zM896 0h-128h-640v1536h896v-128h128v-128h128v-128h128v-768h-128v-128h-128v-128h-128v-128h-128zM768 256h128v128h128v128h128v512h-128v128h-128v128h-512v-1024h384z" />
    <glyph glyph-name="uni1E0D" unicode="&#x1e0d;" 
d="M640 -512v128h-128v128h128v128h128v-384h-128zM1152 0h-128h-640v128h-128v128h-128v640h128v128h128v128h512v-128h128v512h256v-1536h-128zM768 256h128v128h128v256h-128v256h-384v-128h-128v-512h384z" />
    <glyph glyph-name="uni1E0E" unicode="&#x1e0e;" 
d="M896 -256h128v-128h-512v128h384zM896 0h-128h-640v1536h896v-128h128v-128h128v-128h128v-768h-128v-128h-128v-128h-128v-128h-128zM768 256h128v128h128v128h128v512h-128v128h-128v128h-512v-1024h384z" />
    <glyph glyph-name="uni1E0F" unicode="&#x1e0f;" 
d="M896 -256h128v-128h-640v128h512zM1152 0h-128h-640v128h-128v128h-128v640h128v128h128v128h512v-128h128v512h256v-1536h-128zM768 256h128v128h128v256h-128v256h-384v-128h-128v-512h384z" />
    <glyph glyph-name="uni1E14" unicode="&#x1e14;" 
d="M1024 0h-128h-768v1536h1024v-256h-768v-384h768v-256h-768v-384h768v-256h-128z" />
    <glyph glyph-name="uni1E15" unicode="&#x1e15;" 
d="M896 0h-128h-384v128h-128v128h-128v640h128v128h128v128h512v-128h128v-128h128v-384h-768v-256h512v128h128v-128h128v-128h-128v-128h-128zM768 640h128v128h-128v128h-384v-256h384zM768 1536h128v-128h-512v128h384z" />
    <glyph glyph-name="uni1E16" unicode="&#x1e16;" 
d="M1024 0h-128h-768v1536h1024v-256h-768v-384h768v-256h-768v-384h768v-256h-128z" />
    <glyph glyph-name="uni1E17" unicode="&#x1e17;" 
d="M896 0h-128h-384v128h-128v128h-128v640h128v128h128v128h512v-128h128v-128h128v-384h-768v-256h512v128h128v-128h128v-128h-128v-128h-128zM768 640h128v128h-128v128h-384v-256h384zM768 1536h128v-128h-512v128h384z" />
    <glyph glyph-name="uni1E1C" unicode="&#x1e1c;" 
d="M768 -512h-128h-128v128h128v128h-128v256h-384v1536h1024v-256h-768v-384h768v-256h-768v-384h768v-256h-384v-128h128v-384h-128z" />
    <glyph glyph-name="uni1E1D" unicode="&#x1e1d;" 
d="M768 -512h-128h-128v128h128v128h-128v256h-128v128h-128v128h-128v640h128v128h128v128h512v-128h128v-128h128v-384h-768v-256h512v128h128v-128h128v-128h-128v-128h-256v-128h128v-384h-128zM768 640h128v128h-128v128h-384v-256h384zM640 1280h-128v128h-128v128
h512v-128h-128v-128h-128z" />
    <glyph glyph-name="uni1E20" unicode="&#x1e20;" 
d="M1280 1024v128h-128v128h-512v-128h-128v-128h-128v-512h128v-128h128v-128h512v128h128v256h-384v256h640v-640h-128v-128h-128v-128h-768v128h-128v128h-128v128h-128v768h128v128h128v128h128v128h640v-128h256v-128h128v-128h-128v-128h-128z" />
    <glyph glyph-name="uni1E21" unicode="&#x1e21;" 
d="M896 -384h-128h-512v128h-128v128h128v128h128v-128h256v-128h128v128h128v256h-128v-128h-256v128h-256v128h-128v640h128v128h128v128h384v-128h256v128h128v-1408h-128v-128h-128zM640 256h128v128h128v384h-128v128h-256v-128h-128v-384h128v-128h128zM896 1536h128
v-128h-640v128h512z" />
    <glyph glyph-name="uni1E24" unicode="&#x1e24;" 
d="M640 -512v128v256h128v-128h128v-128h-128v-128h-128zM1280 0h-128h-128v640h-640v-640h-256v1536h256v-640h640v640h384v-1536h-128z" />
    <glyph glyph-name="uni1E25" unicode="&#x1e25;" 
d="M512 -512v128v256h128v-128h128v-128h-128v-128h-128zM1024 0h-128v768h-128v128h-256v-128h-128v-768h-256v1536h256v-512h128v128h384v-128h128v-128h128v-896h-128z" />
    <glyph glyph-name="uni1E2A" unicode="&#x1e2a;" 
d="M768 -512h-128v128h-128v128h-128v128h256v-128h256v128h128v-256h-128v-128h-128zM1280 0h-128h-128v640h-640v-640h-256v1536h256v-640h640v640h384v-1536h-128z" />
    <glyph glyph-name="uni1E2B" unicode="&#x1e2b;" 
d="M512 -512v128h-128v128h-128v128h256v-128h256v128h128v-256h-256v-128h-128zM1024 0h-128v768h-128v128h-256v-128h-128v-768h-256v1536h256v-512h128v128h384v-128h128v-128h128v-896h-128z" />
    <glyph glyph-name="uni1E2E" unicode="&#x1e2e;" 
d="M256 0h-128v1536h256v-1536h-128z" />
    <glyph glyph-name="uni1E2F" unicode="&#x1e2f;" 
d="M384 1280v128h-128v128h384v-128h-128v-128h-128zM0 1280v128h-128v128h256v-256h-128zM256 0h-128v1152h256v-1152h-128z" />
    <glyph glyph-name="uni1E36" unicode="&#x1e36;" 
d="M512 -512v128v256h128v-128h128v-128h-128v-128h-128zM896 0h-128h-640v1536h256v-1280h640v-256h-128z" />
    <glyph glyph-name="uni1E37" unicode="&#x1e37;" 
d="M256 -384h-128v256h256v-256h-128zM256 0h-128v1536h256v-1536h-128z" />
    <glyph glyph-name="uni1E3A" unicode="&#x1e3a;" 
d="M768 -256h128v-128h-640v128h512zM896 0h-128h-640v1536h256v-1280h640v-256h-128z" />
    <glyph glyph-name="uni1E3B" unicode="&#x1e3b;" 
d="M384 -256h128v-128h-512v128h384zM256 0h-128v1536h256v-1536h-128z" />
    <glyph glyph-name="uni1E42" unicode="&#x1e42;" 
d="M896 -384h-128v128h128v128h128v-256h-128zM1536 0h-128v896h-128v-128h-128v-128h-128v-128h-256v128h-128v256h-128v128h-128v-1024h-256v1536h384v-256h128v-128h128v-256h256v128h128v256h128v128h128v128h256v-1536h-128z" />
    <glyph glyph-name="uni1E43" unicode="&#x1e43;" 
d="M896 -512v128h-128v128h128v128h128v-384h-128zM1664 0h-128v768h-128v128h-256v-896h-384v896h-256v-128h-128v-768h-256v1152h256v-128h128v128h384v-128h256v128h384v-128h128v-128h128v-896h-128z" />
    <glyph glyph-name="uni1E44" unicode="&#x1e44;" 
d="M1280 0h-128v128h-128v128h-128v128h-128v256h-128v128h-128v128h-128v-896h-256v1536h256v-128h128v-128h128v-256h128v-128h128v-128h128v640h128v128h256v-1536h-128z" />
    <glyph glyph-name="uni1E45" unicode="&#x1e45;" 
d="M512 1280v128v128h256v-128h-128v-128h-128zM1024 0h-128v768h-128v128h-256v-128h-128v-768h-256v1152h256v-128h128v128h384v-128h128v-128h128v-896h-128z" />
    <glyph glyph-name="uni1E46" unicode="&#x1e46;" 
d="M768 -384h-128v256h256v-256h-128zM1280 0h-128v128h-128v128h-128v128h-128v256h-128v128h-128v128h-128v-896h-256v1536h256v-128h128v-128h128v-256h128v-128h128v-128h128v640h128v128h256v-1536h-128z" />
    <glyph glyph-name="uni1E47" unicode="&#x1e47;" 
d="M512 -512v128v256h128v-128h128v-128h-128v-128h-128zM1024 0h-128v768h-128v128h-256v-128h-128v-768h-256v1152h256v-128h128v128h384v-128h128v-128h128v-896h-128z" />
    <glyph glyph-name="uni1E48" unicode="&#x1e48;" 
d="M896 -256h128v-128h-512v128h384zM1280 0h-128v128h-128v128h-128v128h-128v256h-128v128h-128v128h-128v-896h-256v1536h256v-128h128v-128h128v-256h128v-128h128v-128h128v640h128v128h256v-1536h-128z" />
    <glyph glyph-name="uni1E49" unicode="&#x1e49;" 
d="M768 -256h128v-128h-640v128h512zM1024 0h-128v768h-128v128h-256v-128h-128v-768h-256v1152h256v-128h128v128h384v-128h128v-128h128v-896h-128z" />
    <glyph glyph-name="uni1E4C" unicode="&#x1e4c;" 
d="M1152 0h-128h-512v128h-128v128h-128v128h-128v768h128v128h128v128h128v128h768v-128h128v-128h128v-128h128v-768h-128v-128h-128v-128h-128v-128h-128zM1024 256h128v128h128v128h128v512h-128v128h-128v128h-512v-128h-128v-128h-128v-512h128v-128h128v-128h384z
" />
    <glyph glyph-name="uni1E4D" unicode="&#x1e4d;" 
d="M384 1280v128v128h640v-128h-512v-128h-128zM896 0h-128h-384v128h-128v128h-128v640h128v128h128v128h512v-128h256v-256h128v-384h-128v-256h-128v-128h-128zM768 256h128v256h128v128h-128v256h-384v-128h-128v-512h384z" />
    <glyph glyph-name="uni1E4E" unicode="&#x1e4e;" 
d="M1152 0h-128h-512v128h-128v128h-128v128h-128v768h128v128h128v128h128v128h768v-128h128v-128h128v-128h128v-768h-128v-128h-128v-128h-128v-128h-128zM1024 256h128v128h128v128h128v512h-128v128h-128v128h-512v-128h-128v-128h-128v-512h128v-128h128v-128h384z
" />
    <glyph glyph-name="uni1E4F" unicode="&#x1e4f;" 
d="M384 1280v128v128h640v-128h-512v-128h-128zM896 0h-128h-384v128h-128v128h-128v640h128v128h128v128h512v-128h256v-256h128v-384h-128v-256h-128v-128h-128zM768 256h128v256h128v128h-128v256h-384v-128h-128v-512h384z" />
    <glyph glyph-name="uni1E50" unicode="&#x1e50;" 
d="M1152 0h-128h-512v128h-128v128h-128v128h-128v768h128v128h128v128h128v128h768v-128h128v-128h128v-128h128v-768h-128v-128h-128v-128h-128v-128h-128zM1024 256h128v128h128v128h128v512h-128v128h-128v128h-512v-128h-128v-128h-128v-512h128v-128h128v-128h384z
" />
    <glyph glyph-name="uni1E51" unicode="&#x1e51;" 
d="M896 0h-128h-384v128h-128v128h-128v640h128v128h128v128h512v-128h256v-256h128v-384h-128v-256h-128v-128h-128zM768 256h128v256h128v128h-128v256h-384v-128h-128v-512h384zM896 1536h128v-128h-640v128h512z" />
    <glyph glyph-name="uni1E52" unicode="&#x1e52;" 
d="M1152 0h-128h-512v128h-128v128h-128v128h-128v768h128v128h128v128h128v128h768v-128h128v-128h128v-128h128v-768h-128v-128h-128v-128h-128v-128h-128zM1024 256h128v128h128v128h128v512h-128v128h-128v128h-512v-128h-128v-128h-128v-512h128v-128h128v-128h384z
" />
    <glyph glyph-name="uni1E53" unicode="&#x1e53;" 
d="M896 0h-128h-384v128h-128v128h-128v640h128v128h128v128h512v-128h256v-256h128v-384h-128v-256h-128v-128h-128zM768 256h128v256h128v128h-128v256h-384v-128h-128v-512h384zM896 1536h128v-128h-640v128h512z" />
    <glyph glyph-name="uni1E5A" unicode="&#x1e5a;" 
d="M640 -512v128h-128v128h128v128h128v-384h-128zM1152 0h-128v128h-128v128h-128v256h-384v-512h-256v1536h896v-128h128v-128h128v-384h-128v-256h-128v-256h128v-256h128v-128h-128zM640 768h128v128h128v384h-512v-384h128v-128h128z" />
    <glyph glyph-name="uni1E5B" unicode="&#x1e5b;" 
d="M256 -384h-128v256h256v-256h-128zM256 0h-128v1152h256v-128h128v128h256v-256h-256v-128h-128v-768h-128z" />
    <glyph glyph-name="uni1E5E" unicode="&#x1e5e;" 
d="M896 -256h128v-128h-640v128h512zM1152 0h-128v128h-128v128h-128v256h-384v-512h-256v1536h896v-128h128v-128h128v-384h-128v-256h-128v-256h128v-256h128v-128h-128zM640 768h128v128h128v384h-512v-384h128v-128h128z" />
    <glyph glyph-name="uni1E5F" unicode="&#x1e5f;" 
d="M384 -256h128v-128h-512v128h384zM256 0h-128v1152h256v-128h128v128h256v-256h-256v-128h-128v-768h-128z" />
    <glyph glyph-name="uni1E60" unicode="&#x1e60;" 
d="M896 0h-128h-384v128h-128v128h-128v256h256v-256h512v256h-128v128h-384v128h-128v128h-128v384h128v128h128v128h640v-128h128v-256h-256v128h-512v-256h128v-128h384v-128h256v-256h128v-128h-128v-256h-128v-128h-128z" />
    <glyph glyph-name="uni1E61" unicode="&#x1e61;" 
d="M768 768v128h-384v-128h128v-128h256v-128h128v-128h128v-128h-128v-256h-640v128h-128v256h128v-128h384v128h-128v128h-256v128h-128v384h128v128h512v-128h128v-256h-128zM512 1280v128h-128v128h256v-256h-128z" />
    <glyph glyph-name="uni1E62" unicode="&#x1e62;" 
d="M640 -512v128h-128v128h128v128h128v-384h-128zM896 0h-128h-384v128h-128v128h-128v256h256v-256h512v256h-128v128h-384v128h-128v128h-128v384h128v128h128v128h640v-128h128v-256h-256v128h-512v-256h128v-128h384v-128h256v-256h128v-128h-128v-256h-128v-128h-128z
" />
    <glyph glyph-name="uni1E63" unicode="&#x1e63;" 
d="M768 768v128h-384v-128h128v-128h256v-128h128v-128h128v-128h-128v-256h-640v128h-128v256h128v-128h384v128h-128v128h-256v128h-128v384h128v128h512v-128h128v-256h-128zM512 -384h-128v128h128v128h128v-256h-128z" />
    <glyph glyph-name="uni1E64" unicode="&#x1e64;" 
d="M896 0h-128h-384v128h-128v128h-128v256h256v-256h512v256h-128v128h-384v128h-128v128h-128v384h128v128h128v128h640v-128h128v-256h-256v128h-512v-256h128v-128h384v-128h256v-256h128v-128h-128v-256h-128v-128h-128z" />
    <glyph glyph-name="uni1E65" unicode="&#x1e65;" 
d="M768 768v128h-384v-128h128v-128h256v-128h128v-128h128v-128h-128v-256h-640v128h-128v256h128v-128h384v128h-128v128h-256v128h-128v384h128v128h512v-128h128v-256h-128zM512 1280v128h-128v128h256v-256h-128z" />
    <glyph glyph-name="uni1E66" unicode="&#x1e66;" 
d="M896 0h-128h-384v128h-128v128h-128v256h256v-256h512v256h-128v128h-384v128h-128v128h-128v384h128v128h128v128h640v-128h128v-256h-256v128h-512v-256h128v-128h384v-128h256v-256h128v-128h-128v-256h-128v-128h-128z" />
    <glyph glyph-name="uni1E67" unicode="&#x1e67;" 
d="M768 768v128h-384v-128h128v-128h256v-128h128v-128h128v-128h-128v-256h-640v128h-128v256h128v-128h384v128h-128v128h-256v128h-128v384h128v128h512v-128h128v-256h-128zM512 1280h-128v128h-128v128h512v-128h-128v-128h-128z" />
    <glyph glyph-name="uni1E68" unicode="&#x1e68;" 
d="M640 -512v128h-128v128h128v128h128v-384h-128zM896 0h-128h-384v128h-128v128h-128v256h256v-256h512v256h-128v128h-384v128h-128v128h-128v384h128v128h128v128h640v-128h128v-256h-256v128h-512v-256h128v-128h384v-128h256v-256h128v-128h-128v-256h-128v-128h-128z
" />
    <glyph glyph-name="uni1E69" unicode="&#x1e69;" 
d="M768 768v128h-384v-128h128v-128h256v-128h128v-128h128v-128h-128v-256h-640v128h-128v256h128v-128h384v128h-128v128h-256v128h-128v384h128v128h512v-128h128v-256h-128zM512 1280v128h-128v128h256v-256h-128zM512 -384h-128v128h128v128h128v-256h-128z" />
    <glyph glyph-name="uni1E6C" unicode="&#x1e6c;" 
d="M512 -512v128h-128v128h128v128h128v-384h-128zM512 0h-128v1280h-384v256h1024v-128h128v-128h-512v-1280h-128z" />
    <glyph glyph-name="uni1E6D" unicode="&#x1e6d;" 
d="M512 -512v128v256h128v-128h128v-128h-128v-128h-128zM640 0h-128h-128v128h-128v768h-256v128h128v128h128v256h256v-256h256v-256h-256v-640h256v-256h-128z" />
    <glyph glyph-name="uni1E6E" unicode="&#x1e6e;" 
d="M768 -256h128v-128h-640v128h512zM512 0h-128v1280h-384v256h1024v-128h128v-128h-512v-1280h-128z" />
    <glyph glyph-name="uni1E6F" unicode="&#x1e6f;" 
d="M768 -256h128v-128h-512v128h384zM640 0h-128h-128v128h-128v768h-256v128h128v128h128v256h256v-256h256v-256h-256v-640h256v-256h-128z" />
    <glyph glyph-name="uni1E78" unicode="&#x1e78;" 
d="M896 0h-128h-384v128h-128v128h-128v1280h256v-1152h128v-128h384v128h128v1152h256v-1280h-128v-128h-128v-128h-128z" />
    <glyph glyph-name="uni1E79" unicode="&#x1e79;" 
d="M1024 0h-128h-640v128h-128v1024h256v-896h384v768h128v128h128v-128h128v-1024h-128zM768 1536h128v-128h-640v128h512z" />
    <glyph glyph-name="uni1E7A" unicode="&#x1e7a;" 
d="M896 0h-128h-384v128h-128v128h-128v1280h256v-1152h128v-128h384v128h128v1152h256v-1280h-128v-128h-128v-128h-128z" />
    <glyph glyph-name="uni1E7B" unicode="&#x1e7b;" 
d="M1024 0h-128h-640v128h-128v1024h256v-896h384v768h128v128h128v-128h128v-1024h-128zM768 1536h128v-128h-640v128h512z" />
    <glyph glyph-name="Wgrave" unicode="&#x1e80;" 
d="M1536 0h-128h-128v512h-128v384h-128v-128h-128v-512h-128v-256h-384v384h-128v512h-128v512h-128v128h384v-512h128v-512h128v256h128v512h128v256h256v-128h128v-512h128v-384h128v384h128v512h128v-1152h-128v-256h-128z" />
    <glyph glyph-name="wgrave" unicode="&#x1e81;" 
d="M1280 0h-128v256h-128v384h-128v-128h-128v-384h-128v-128h-256v256h-128v384h-128v384h-128v128h256v-128h128v-384h128v-128h128v384h128v256h256v-256h128v-384h128v128h128v384h128v128h256v-256h-128v-256h-128v-384h-128v-256h-128zM896 1280h-128v128h-128v128
h256v-128h128v-128h-128z" />
    <glyph glyph-name="Wacute" unicode="&#x1e82;" 
d="M1536 0h-128h-128v512h-128v384h-128v-128h-128v-512h-128v-256h-384v384h-128v512h-128v512h-128v128h384v-512h128v-512h128v256h128v512h128v256h256v-128h128v-512h128v-384h128v384h128v512h128v-1152h-128v-256h-128z" />
    <glyph glyph-name="wacute" unicode="&#x1e83;" 
d="M1280 0h-128v256h-128v384h-128v-128h-128v-384h-128v-128h-256v256h-128v384h-128v384h-128v128h256v-128h128v-384h128v-128h128v384h128v256h256v-256h128v-384h128v128h128v384h128v128h256v-256h-128v-256h-128v-384h-128v-256h-128zM896 1280h-128v128h128v128h256
v-128h-128v-128h-128z" />
    <glyph glyph-name="Wdieresis" unicode="&#x1e84;" 
d="M1536 0h-128h-128v512h-128v384h-128v-128h-128v-512h-128v-256h-384v384h-128v512h-128v512h-128v128h384v-512h128v-512h128v256h128v512h128v256h256v-128h128v-512h128v-384h128v384h128v512h128v-1152h-128v-256h-128z" />
    <glyph glyph-name="wdieresis" unicode="&#x1e85;" 
d="M1024 1280v128h-256v-128h-128v128h-128v128h768v-128h-128v-128h-128zM1280 0h-128v256h-128v384h-128v-128h-128v-384h-128v-128h-256v256h-128v384h-128v384h-128v128h256v-128h128v-384h128v-128h128v384h128v256h256v-256h128v-384h128v128h128v384h128v128h256
v-256h-128v-256h-128v-384h-128v-256h-128z" />
    <glyph glyph-name="uni1E8E" unicode="&#x1e8e;" 
d="M640 0h-128v768h-128v256h-128v256h-128v128h-128v128h384v-256h128v-128h128v-128h128v256h128v128h128v128h256v-256h-128v-128h-128v-256h-128v-256h-128v-640h-128z" />
    <glyph glyph-name="uni1E8F" unicode="&#x1e8f;" 
d="M512 1280v128v128h256v-128h-128v-128h-128zM384 -384h-128h-128v128h128v128h128v512h-128v256h-128v384h-128v128h256v-128h128v-256h128v-384h128v256h128v384h128v128h256v-256h-128v-384h-128v-256h-128v-384h-128v-128h-128v-128h-128z" />
    <glyph glyph-name="uni1E92" unicode="&#x1e92;" 
d="M512 -512v128h-128v128h128v128h128v-128h128v-128h-128v-128h-128zM1024 0h-128h-896v256h128v256h128v128h128v128h128v256h128v128h128v128h-768v128h128v128h1024v-256h-128v-256h-128v-128h-128v-128h-128v-256h-128v-128h-128v-128h768v-256h-128z" />
    <glyph glyph-name="uni1E93" unicode="&#x1e93;" 
d="M512 -384h-128v256h128v-128h128v-128h-128zM896 0h-128h-768v256h128v128h128v128h128v256h128v128h-512v128h128v128h768v-384h-128v-128h-128v-128h-128v-256h384v-128h128v-128h-128z" />
    <glyph glyph-name="uni1E97" unicode="&#x1e97;" 
d="M640 0h-128h-128v128h-128v768h-256v128h128v128h128v256h256v-256h256v-256h-256v-640h256v-256h-128z" />
    <glyph glyph-name="uni1E9E" unicode="&#x1e9e;" 
d="M1664 0v128h-128v128h-128v128h128v128h128v-128h128v-384h-128zM896 0h-128h-384v128h-128v128h-128v256h256v-256h512v256h-128v128h-384v128h-128v128h-128v384h128v128h128v128h640v-128h128v-256h-256v128h-512v-256h128v-128h384v-128h256v-256h128v-128h-128v-256
h-128v-128h-128zM1664 768h-128v256h-128v128h128v256h128v128h128v-768h-128z" />
    <glyph glyph-name="uni1EA0" unicode="&#x1ea0;" 
d="M640 -512v128v256h128v-128h128v-128h-128v-128h-128zM1280 0h-128v128h-128v256h-512v-128h-128v-256h-384v128h128v384h128v384h128v384h128v256h384v-128h128v-384h128v-384h128v-384h128v-256h-128zM768 640h128v256h-128v256h-128v-384h-128v-128h256z" />
    <glyph glyph-name="uni1EA1" unicode="&#x1ea1;" 
d="M512 -512v128v256h128v-128h128v-128h-128v-128h-128zM896 0h-128h-640v512h128v128h512v256h-384v-128h-256v256h256v128h512v-128h128v-1024h-128zM640 128v128h128v256h-256v-128h-128v-128h128v-128h128z" />
    <glyph glyph-name="uni1EA2" unicode="&#x1ea2;" 
d="M1280 0h-128v128h-128v256h-512v-128h-128v-256h-384v128h128v384h128v384h128v384h128v256h384v-128h128v-384h128v-384h128v-384h128v-256h-128zM768 640h128v256h-128v256h-128v-384h-128v-128h256z" />
    <glyph glyph-name="uni1EA3" unicode="&#x1ea3;" 
d="M896 0h-128h-640v512h128v128h512v256h-384v-128h-256v256h256v128h512v-128h128v-1024h-128zM640 128v128h128v256h-256v-128h-128v-128h128v-128h128zM640 1280h-128v256h256v-256h-128z" />
    <glyph glyph-name="uni1EA4" unicode="&#x1ea4;" 
d="M1280 0h-128v128h-128v256h-512v-128h-128v-256h-384v128h128v384h128v384h128v384h128v256h384v-128h128v-384h128v-384h128v-384h128v-256h-128zM768 640h128v256h-128v256h-128v-384h-128v-128h256z" />
    <glyph glyph-name="uni1EA5" unicode="&#x1ea5;" 
d="M768 1280v128h-256v-128h-256v128h128v128h512v-256h-128zM896 0h-128h-640v512h128v128h512v256h-384v-128h-256v256h256v128h512v-128h128v-1024h-128zM640 128v128h128v256h-256v-128h-128v-128h128v-128h128z" />
    <glyph glyph-name="uni1EA6" unicode="&#x1ea6;" 
d="M1280 0h-128v128h-128v256h-512v-128h-128v-256h-384v128h128v384h128v384h128v384h128v256h384v-128h128v-384h128v-384h128v-384h128v-256h-128zM768 640h128v256h-128v256h-128v-384h-128v-128h256z" />
    <glyph glyph-name="uni1EA7" unicode="&#x1ea7;" 
d="M768 1280v128h-256v-128h-256v128h128v128h512v-256h-128zM896 0h-128h-640v512h128v128h512v256h-384v-128h-256v256h256v128h512v-128h128v-1024h-128zM640 128v128h128v256h-256v-128h-128v-128h128v-128h128z" />
    <glyph glyph-name="uni1EA8" unicode="&#x1ea8;" 
d="M1280 0h-128v128h-128v256h-512v-128h-128v-256h-384v128h128v384h128v384h128v384h128v256h384v-128h128v-384h128v-384h128v-384h128v-256h-128zM768 640h128v256h-128v256h-128v-384h-128v-128h256z" />
    <glyph glyph-name="uni1EA9" unicode="&#x1ea9;" 
d="M768 1280v128h-256v-128h-256v128h128v128h512v-256h-128zM896 0h-128h-640v512h128v128h512v256h-384v-128h-256v256h256v128h512v-128h128v-1024h-128zM640 128v128h128v256h-256v-128h-128v-128h128v-128h128z" />
    <glyph glyph-name="uni1EAA" unicode="&#x1eaa;" 
d="M1280 0h-128v128h-128v256h-512v-128h-128v-256h-384v128h128v384h128v384h128v384h128v256h384v-128h128v-384h128v-384h128v-384h128v-256h-128zM768 640h128v256h-128v256h-128v-384h-128v-128h256z" />
    <glyph glyph-name="uni1EAB" unicode="&#x1eab;" 
d="M768 1280v128h-256v-128h-256v128h128v128h512v-256h-128zM896 0h-128h-640v512h128v128h512v256h-384v-128h-256v256h256v128h512v-128h128v-1024h-128zM640 128v128h128v256h-256v-128h-128v-128h128v-128h128z" />
    <glyph glyph-name="uni1EAC" unicode="&#x1eac;" 
d="M640 -512v128v256h128v-128h128v-128h-128v-128h-128zM1280 0h-128v128h-128v256h-512v-128h-128v-256h-384v128h128v384h128v384h128v384h128v256h384v-128h128v-384h128v-384h128v-384h128v-256h-128zM768 640h128v256h-128v256h-128v-384h-128v-128h256z" />
    <glyph glyph-name="uni1EAD" unicode="&#x1ead;" 
d="M512 -512v128v256h128v-128h128v-128h-128v-128h-128zM768 1280v128h-256v-128h-256v128h128v128h512v-256h-128zM896 0h-128h-640v512h128v128h512v256h-384v-128h-256v256h256v128h512v-128h128v-1024h-128zM640 128v128h128v256h-256v-128h-128v-128h128v-128h128z
" />
    <glyph glyph-name="uni1EAE" unicode="&#x1eae;" 
d="M1280 0h-128v128h-128v256h-512v-128h-128v-256h-384v128h128v384h128v384h128v384h128v256h384v-128h128v-384h128v-384h128v-384h128v-256h-128zM768 640h128v256h-128v256h-128v-384h-128v-128h256z" />
    <glyph glyph-name="uni1EAF" unicode="&#x1eaf;" 
d="M896 0h-128h-640v512h128v128h512v256h-384v-128h-256v256h256v128h512v-128h128v-1024h-128zM640 128v128h128v256h-256v-128h-128v-128h128v-128h128zM640 1280h-128v128h-256v128h640v-128h-128v-128h-128z" />
    <glyph glyph-name="uni1EB0" unicode="&#x1eb0;" 
d="M1280 0h-128v128h-128v256h-512v-128h-128v-256h-384v128h128v384h128v384h128v384h128v256h384v-128h128v-384h128v-384h128v-384h128v-256h-128zM768 640h128v256h-128v256h-128v-384h-128v-128h256z" />
    <glyph glyph-name="uni1EB1" unicode="&#x1eb1;" 
d="M896 0h-128h-640v512h128v128h512v256h-384v-128h-256v256h256v128h512v-128h128v-1024h-128zM640 128v128h128v256h-256v-128h-128v-128h128v-128h128zM640 1280h-128v128h-256v128h640v-128h-128v-128h-128z" />
    <glyph glyph-name="uni1EB2" unicode="&#x1eb2;" 
d="M1280 0h-128v128h-128v256h-512v-128h-128v-256h-384v128h128v384h128v384h128v384h128v256h384v-128h128v-384h128v-384h128v-384h128v-256h-128zM768 640h128v256h-128v256h-128v-384h-128v-128h256z" />
    <glyph glyph-name="uni1EB3" unicode="&#x1eb3;" 
d="M896 0h-128h-640v512h128v128h512v256h-384v-128h-256v256h256v128h512v-128h128v-1024h-128zM640 128v128h128v256h-256v-128h-128v-128h128v-128h128zM640 1280h-128v128h-256v128h640v-128h-128v-128h-128z" />
    <glyph glyph-name="uni1EB4" unicode="&#x1eb4;" 
d="M1280 0h-128v128h-128v256h-512v-128h-128v-256h-384v128h128v384h128v384h128v384h128v256h384v-128h128v-384h128v-384h128v-384h128v-256h-128zM768 640h128v256h-128v256h-128v-384h-128v-128h256z" />
    <glyph glyph-name="uni1EB5" unicode="&#x1eb5;" 
d="M896 0h-128h-640v512h128v128h512v256h-384v-128h-256v256h256v128h512v-128h128v-1024h-128zM640 128v128h128v256h-256v-128h-128v-128h128v-128h128zM640 1280h-128v128h-256v128h640v-128h-128v-128h-128z" />
    <glyph glyph-name="uni1EB6" unicode="&#x1eb6;" 
d="M640 -512v128v256h128v-128h128v-128h-128v-128h-128zM1280 0h-128v128h-128v256h-512v-128h-128v-256h-384v128h128v384h128v384h128v384h128v256h384v-128h128v-384h128v-384h128v-384h128v-256h-128zM768 640h128v256h-128v256h-128v-384h-128v-128h256z" />
    <glyph glyph-name="uni1EB7" unicode="&#x1eb7;" 
d="M512 -512v128v256h128v-128h128v-128h-128v-128h-128zM896 0h-128h-640v512h128v128h512v256h-384v-128h-256v256h256v128h512v-128h128v-1024h-128zM640 128v128h128v256h-256v-128h-128v-128h128v-128h128zM640 1280h-128v128h-256v128h640v-128h-128v-128h-128z" />
    <glyph glyph-name="uni1EB8" unicode="&#x1eb8;" 
d="M640 -384h-128v256h256v-256h-128zM1024 0h-128h-768v1536h1024v-256h-768v-384h768v-256h-768v-384h768v-256h-128z" />
    <glyph glyph-name="uni1EB9" unicode="&#x1eb9;" 
d="M640 -384h-128v256h128v-128h128v-128h-128zM896 0h-128h-384v128h-128v128h-128v640h128v128h128v128h512v-128h128v-128h128v-384h-768v-256h512v128h128v-128h128v-128h-128v-128h-128zM768 640h128v128h-128v128h-384v-256h384z" />
    <glyph glyph-name="uni1EBA" unicode="&#x1eba;" 
d="M1024 0h-128h-768v1536h1024v-256h-768v-384h768v-256h-768v-384h768v-256h-128z" />
    <glyph glyph-name="uni1EBB" unicode="&#x1ebb;" 
d="M896 0h-128h-384v128h-128v128h-128v640h128v128h128v128h512v-128h128v-128h128v-384h-768v-256h512v128h128v-128h128v-128h-128v-128h-128zM768 640h128v128h-128v128h-384v-256h384zM640 1280h-128v128h128v128h128v-256h-128z" />
    <glyph glyph-name="uni1EBC" unicode="&#x1ebc;" 
d="M1024 0h-128h-768v1536h1024v-256h-768v-384h768v-256h-768v-384h768v-256h-128z" />
    <glyph glyph-name="uni1EBD" unicode="&#x1ebd;" 
d="M896 0h-128h-384v128h-128v128h-128v640h128v128h128v128h512v-128h128v-128h128v-384h-768v-256h512v128h128v-128h128v-128h-128v-128h-128zM768 640h128v128h-128v128h-384v-256h384zM768 1536h128v-128h-640v128h512z" />
    <glyph glyph-name="uni1EBE" unicode="&#x1ebe;" 
d="M1024 0h-128h-768v1536h1024v-256h-768v-384h768v-256h-768v-384h768v-256h-128z" />
    <glyph glyph-name="uni1EBF" unicode="&#x1ebf;" 
d="M768 1280v128h-256v-128h-256v128h128v128h512v-256h-128zM896 0h-128h-384v128h-128v128h-128v640h128v128h128v128h512v-128h128v-128h128v-384h-768v-256h512v128h128v-128h128v-128h-128v-128h-128zM768 640h128v128h-128v128h-384v-256h384z" />
    <glyph glyph-name="uni1EC0" unicode="&#x1ec0;" 
d="M1024 0h-128h-768v1536h1024v-256h-768v-384h768v-256h-768v-384h768v-256h-128z" />
    <glyph glyph-name="uni1EC1" unicode="&#x1ec1;" 
d="M768 1280v128h-256v-128h-256v128h128v128h512v-256h-128zM896 0h-128h-384v128h-128v128h-128v640h128v128h128v128h512v-128h128v-128h128v-384h-768v-256h512v128h128v-128h128v-128h-128v-128h-128zM768 640h128v128h-128v128h-384v-256h384z" />
    <glyph glyph-name="uni1EC2" unicode="&#x1ec2;" 
d="M1024 0h-128h-768v1536h1024v-256h-768v-384h768v-256h-768v-384h768v-256h-128z" />
    <glyph glyph-name="uni1EC3" unicode="&#x1ec3;" 
d="M768 1280v128h-256v-128h-256v128h128v128h512v-256h-128zM896 0h-128h-384v128h-128v128h-128v640h128v128h128v128h512v-128h128v-128h128v-384h-768v-256h512v128h128v-128h128v-128h-128v-128h-128zM768 640h128v128h-128v128h-384v-256h384z" />
    <glyph glyph-name="uni1EC4" unicode="&#x1ec4;" 
d="M1024 0h-128h-768v1536h1024v-256h-768v-384h768v-256h-768v-384h768v-256h-128z" />
    <glyph glyph-name="uni1EC5" unicode="&#x1ec5;" 
d="M768 1280v128h-256v-128h-256v128h128v128h512v-256h-128zM896 0h-128h-384v128h-128v128h-128v640h128v128h128v128h512v-128h128v-128h128v-384h-768v-256h512v128h128v-128h128v-128h-128v-128h-128zM768 640h128v128h-128v128h-384v-256h384z" />
    <glyph glyph-name="uni1EC6" unicode="&#x1ec6;" 
d="M640 -384h-128v256h256v-256h-128zM1024 0h-128h-768v1536h1024v-256h-768v-384h768v-256h-768v-384h768v-256h-128z" />
    <glyph glyph-name="uni1EC7" unicode="&#x1ec7;" 
d="M768 1280v128h-256v-128h-256v128h128v128h512v-256h-128zM640 -384h-128v256h128v-128h128v-128h-128zM896 0h-128h-384v128h-128v128h-128v640h128v128h128v128h512v-128h128v-128h128v-384h-768v-256h512v128h128v-128h128v-128h-128v-128h-128zM768 640h128v128h-128
v128h-384v-256h384z" />
    <glyph glyph-name="uni1EC8" unicode="&#x1ec8;" 
d="M256 0h-128v1536h256v-1536h-128z" />
    <glyph glyph-name="uni1EC9" unicode="&#x1ec9;" 
d="M256 0h-128v1152h256v-1152h-128zM256 1280h-128v128h128v128h128v-256h-128z" />
    <glyph glyph-name="uni1ECA" unicode="&#x1eca;" 
d="M256 -512v128h-128v128h128v128h128v-384h-128zM256 0h-128v1536h256v-1536h-128z" />
    <glyph glyph-name="uni1ECB" unicode="&#x1ecb;" 
d="M256 -384h-128v256h256v-256h-128zM256 0h-128v1152h256v-1152h-128zM256 1280h-128v256h256v-256h-128z" />
    <glyph glyph-name="uni1ECC" unicode="&#x1ecc;" 
d="M896 -384h-128v256h256v-256h-128zM1152 0h-128h-512v128h-128v128h-128v128h-128v768h128v128h128v128h128v128h768v-128h128v-128h128v-128h128v-768h-128v-128h-128v-128h-128v-128h-128zM1024 256h128v128h128v128h128v512h-128v128h-128v128h-512v-128h-128v-128
h-128v-512h128v-128h128v-128h384z" />
    <glyph glyph-name="uni1ECD" unicode="&#x1ecd;" 
d="M640 -512v128h-128v128h128v128h128v-384h-128zM896 0h-128h-384v128h-128v128h-128v640h128v128h128v128h512v-128h256v-256h128v-384h-128v-256h-128v-128h-128zM768 256h128v256h128v128h-128v256h-384v-128h-128v-512h384z" />
    <glyph glyph-name="uni1ECE" unicode="&#x1ece;" 
d="M1152 0h-128h-512v128h-128v128h-128v128h-128v768h128v128h128v128h128v128h768v-128h128v-128h128v-128h128v-768h-128v-128h-128v-128h-128v-128h-128zM1024 256h128v128h128v128h128v512h-128v128h-128v128h-512v-128h-128v-128h-128v-512h128v-128h128v-128h384z
" />
    <glyph glyph-name="uni1ECF" unicode="&#x1ecf;" 
d="M640 1280v128v128h256v-128h-128v-128h-128zM896 0h-128h-384v128h-128v128h-128v640h128v128h128v128h512v-128h256v-256h128v-384h-128v-256h-128v-128h-128zM768 256h128v256h128v128h-128v256h-384v-128h-128v-512h384z" />
    <glyph glyph-name="uni1ED0" unicode="&#x1ed0;" 
d="M1152 0h-128h-512v128h-128v128h-128v128h-128v768h128v128h128v128h128v128h768v-128h128v-128h128v-128h128v-768h-128v-128h-128v-128h-128v-128h-128zM1024 256h128v128h128v128h128v512h-128v128h-128v128h-512v-128h-128v-128h-128v-512h128v-128h128v-128h384z
" />
    <glyph glyph-name="uni1ED1" unicode="&#x1ed1;" 
d="M384 1280v128v128h512v-128h128v-128h-256v128h-256v-128h-128zM896 0h-128h-384v128h-128v128h-128v640h128v128h128v128h512v-128h256v-256h128v-384h-128v-256h-128v-128h-128zM768 256h128v256h128v128h-128v256h-384v-128h-128v-512h384z" />
    <glyph glyph-name="uni1ED2" unicode="&#x1ed2;" 
d="M1152 0h-128h-512v128h-128v128h-128v128h-128v768h128v128h128v128h128v128h768v-128h128v-128h128v-128h128v-768h-128v-128h-128v-128h-128v-128h-128zM1024 256h128v128h128v128h128v512h-128v128h-128v128h-512v-128h-128v-128h-128v-512h128v-128h128v-128h384z
" />
    <glyph glyph-name="uni1ED3" unicode="&#x1ed3;" 
d="M384 1280v128v128h512v-128h128v-128h-256v128h-256v-128h-128zM896 0h-128h-384v128h-128v128h-128v640h128v128h128v128h512v-128h256v-256h128v-384h-128v-256h-128v-128h-128zM768 256h128v256h128v128h-128v256h-384v-128h-128v-512h384z" />
    <glyph glyph-name="uni1ED4" unicode="&#x1ed4;" 
d="M1152 0h-128h-512v128h-128v128h-128v128h-128v768h128v128h128v128h128v128h768v-128h128v-128h128v-128h128v-768h-128v-128h-128v-128h-128v-128h-128zM1024 256h128v128h128v128h128v512h-128v128h-128v128h-512v-128h-128v-128h-128v-512h128v-128h128v-128h384z
" />
    <glyph glyph-name="uni1ED5" unicode="&#x1ed5;" 
d="M384 1280v128v128h512v-128h128v-128h-256v128h-256v-128h-128zM896 0h-128h-384v128h-128v128h-128v640h128v128h128v128h512v-128h256v-256h128v-384h-128v-256h-128v-128h-128zM768 256h128v256h128v128h-128v256h-384v-128h-128v-512h384z" />
    <glyph glyph-name="uni1ED6" unicode="&#x1ed6;" 
d="M1152 0h-128h-512v128h-128v128h-128v128h-128v768h128v128h128v128h128v128h768v-128h128v-128h128v-128h128v-768h-128v-128h-128v-128h-128v-128h-128zM1024 256h128v128h128v128h128v512h-128v128h-128v128h-512v-128h-128v-128h-128v-512h128v-128h128v-128h384z
" />
    <glyph glyph-name="uni1ED7" unicode="&#x1ed7;" 
d="M384 1280v128v128h512v-128h128v-128h-256v128h-256v-128h-128zM896 0h-128h-384v128h-128v128h-128v640h128v128h128v128h512v-128h256v-256h128v-384h-128v-256h-128v-128h-128zM768 256h128v256h128v128h-128v256h-384v-128h-128v-512h384z" />
    <glyph glyph-name="uni1ED8" unicode="&#x1ed8;" 
d="M896 -384h-128v256h256v-256h-128zM1152 0h-128h-512v128h-128v128h-128v128h-128v768h128v128h128v128h128v128h768v-128h128v-128h128v-128h128v-768h-128v-128h-128v-128h-128v-128h-128zM1024 256h128v128h128v128h128v512h-128v128h-128v128h-512v-128h-128v-128
h-128v-512h128v-128h128v-128h384z" />
    <glyph glyph-name="uni1ED9" unicode="&#x1ed9;" 
d="M640 -512v128h-128v128h128v128h128v-384h-128zM384 1280v128v128h512v-128h128v-128h-256v128h-256v-128h-128zM896 0h-128h-384v128h-128v128h-128v640h128v128h128v128h512v-128h256v-256h128v-384h-128v-256h-128v-128h-128zM768 256h128v256h128v128h-128v256h-384
v-128h-128v-512h384z" />
    <glyph glyph-name="uni1EDA" unicode="&#x1eda;" 
d="M1152 0h-128h-512v128h-128v128h-128v128h-128v768h128v128h128v128h128v128h1152v-128h-128v-256h128v-768h-128v-128h-128v-128h-128v-128h-128zM1024 256h128v128h128v128h128v512h-128v128h-128v128h-512v-128h-128v-128h-128v-512h128v-128h128v-128h384z" />
    <glyph glyph-name="uni1EDB" unicode="&#x1edb;" 
d="M640 1280v128v128h256v-128h-128v-128h-128zM896 0h-128h-384v128h-128v128h-128v640h128v128h128v128h640v256h128v-128h128v-128h-128v-384h128v-384h-128v-256h-128v-128h-128zM768 256h128v256h128v128h-128v256h-384v-128h-128v-512h384z" />
    <glyph glyph-name="uni1EDC" unicode="&#x1edc;" 
d="M1152 0h-128h-512v128h-128v128h-128v128h-128v768h128v128h128v128h128v128h1152v-128h-128v-256h128v-768h-128v-128h-128v-128h-128v-128h-128zM1024 256h128v128h128v128h128v512h-128v128h-128v128h-512v-128h-128v-128h-128v-512h128v-128h128v-128h384z" />
    <glyph glyph-name="uni1EDD" unicode="&#x1edd;" 
d="M896 0h-128h-384v128h-128v128h-128v640h128v128h128v128h640v256h128v-128h128v-128h-128v-384h128v-384h-128v-256h-128v-128h-128zM768 256h128v256h128v128h-128v256h-384v-128h-128v-512h384zM640 1280h-128v128h-128v128h384v-256h-128z" />
    <glyph glyph-name="uni1EDE" unicode="&#x1ede;" 
d="M1152 0h-128h-512v128h-128v128h-128v128h-128v768h128v128h128v128h128v128h1152v-128h-128v-256h128v-768h-128v-128h-128v-128h-128v-128h-128zM1024 256h128v128h128v128h128v512h-128v128h-128v128h-512v-128h-128v-128h-128v-512h128v-128h128v-128h384z" />
    <glyph glyph-name="uni1EDF" unicode="&#x1edf;" 
d="M640 1280v128v128h256v-128h-128v-128h-128zM896 0h-128h-384v128h-128v128h-128v640h128v128h128v128h640v256h128v-128h128v-128h-128v-384h128v-384h-128v-256h-128v-128h-128zM768 256h128v256h128v128h-128v256h-384v-128h-128v-512h384z" />
    <glyph glyph-name="uni1EE0" unicode="&#x1ee0;" 
d="M1152 0h-128h-512v128h-128v128h-128v128h-128v768h128v128h128v128h128v128h1152v-128h-128v-256h128v-768h-128v-128h-128v-128h-128v-128h-128zM1024 256h128v128h128v128h128v512h-128v128h-128v128h-512v-128h-128v-128h-128v-512h128v-128h128v-128h384z" />
    <glyph glyph-name="uni1EE1" unicode="&#x1ee1;" 
d="M384 1280v128v128h640v-128h128v-128h128v-128h-128v-384h128v-384h-128v-256h-128v-128h-640v128h-128v128h-128v640h128v128h128v128h640v128h-128v128h-384v-128h-128zM768 256h128v256h128v128h-128v256h-384v-128h-128v-512h384z" />
    <glyph glyph-name="uni1EE2" unicode="&#x1ee2;" 
d="M896 -384h-128v256h256v-256h-128zM1152 0h-128h-512v128h-128v128h-128v128h-128v768h128v128h128v128h128v128h1152v-128h-128v-256h128v-768h-128v-128h-128v-128h-128v-128h-128zM1024 256h128v128h128v128h128v512h-128v128h-128v128h-512v-128h-128v-128h-128v-512
h128v-128h128v-128h384z" />
    <glyph glyph-name="uni1EE3" unicode="&#x1ee3;" 
d="M640 -512v128h-128v128h128v128h128v-384h-128zM896 0h-128h-384v128h-128v128h-128v640h128v128h128v128h640v256h128v-128h128v-128h-128v-384h128v-384h-128v-256h-128v-128h-128zM768 256h128v256h128v128h-128v256h-384v-128h-128v-512h384z" />
    <glyph glyph-name="uni1EE4" unicode="&#x1ee4;" 
d="M640 -512v128v256h128v-128h128v-128h-128v-128h-128zM896 0h-128h-384v128h-128v128h-128v1280h256v-1152h128v-128h384v128h128v1152h256v-1280h-128v-128h-128v-128h-128z" />
    <glyph glyph-name="uni1EE5" unicode="&#x1ee5;" 
d="M512 -512v128v256h128v-128h128v-128h-128v-128h-128zM1024 0h-128h-640v128h-128v1024h256v-896h384v768h128v128h128v-128h128v-1024h-128z" />
    <glyph glyph-name="uni1EE6" unicode="&#x1ee6;" 
d="M896 0h-128h-384v128h-128v128h-128v1280h256v-1152h128v-128h384v128h128v1152h256v-1280h-128v-128h-128v-128h-128z" />
    <glyph glyph-name="uni1EE7" unicode="&#x1ee7;" 
d="M1024 0h-128h-640v128h-128v1024h256v-896h384v768h128v128h128v-128h128v-1024h-128zM640 1280h-128v128h128v128h128v-256h-128z" />
    <glyph glyph-name="uni1EE8" unicode="&#x1ee8;" 
d="M896 0h-128h-384v128h-128v128h-128v1280h256v-1152h128v-128h384v128h128v1152h640v-128h-256v-128h-128v-1024h-128v-128h-128v-128h-128z" />
    <glyph glyph-name="uni1EE9" unicode="&#x1ee9;" 
d="M1024 0h-128h-640v128h-128v1024h256v-896h384v768h128v128h256v256h128v-384h-128v-1024h-128zM640 1280h-128v256h256v-256h-128z" />
    <glyph glyph-name="uni1EEA" unicode="&#x1eea;" 
d="M896 0h-128h-384v128h-128v128h-128v1280h256v-1152h128v-128h384v128h128v1152h640v-128h-256v-128h-128v-1024h-128v-128h-128v-128h-128z" />
    <glyph glyph-name="uni1EEB" unicode="&#x1eeb;" 
d="M512 1280v128h-128v128h256v-256h-128zM1024 0h-128h-640v128h-128v1024h256v-896h384v768h128v128h256v256h128v-384h-128v-1024h-128z" />
    <glyph glyph-name="uni1EEC" unicode="&#x1eec;" 
d="M896 0h-128h-384v128h-128v128h-128v1280h256v-1152h128v-128h384v128h128v1152h640v-128h-256v-128h-128v-1024h-128v-128h-128v-128h-128z" />
    <glyph glyph-name="uni1EED" unicode="&#x1eed;" 
d="M1024 0h-128h-640v128h-128v1024h256v-896h384v768h128v128h256v256h128v-384h-128v-1024h-128zM640 1280h-128v128h128v128h128v-256h-128z" />
    <glyph glyph-name="uni1EEE" unicode="&#x1eee;" 
d="M896 0h-128h-384v128h-128v128h-128v1280h256v-1152h128v-128h384v128h128v1152h640v-128h-256v-128h-128v-1024h-128v-128h-128v-128h-128z" />
    <glyph glyph-name="uni1EEF" unicode="&#x1eef;" 
d="M1024 0h-128h-640v128h-128v1024h256v-896h384v768h128v128h256v256h128v-384h-128v-1024h-128zM768 1536h128v-128h-640v128h512z" />
    <glyph glyph-name="uni1EF0" unicode="&#x1ef0;" 
d="M640 -512v128v256h128v-128h128v-128h-128v-128h-128zM896 0h-128h-384v128h-128v128h-128v1280h256v-1152h128v-128h384v128h128v1152h640v-128h-256v-128h-128v-1024h-128v-128h-128v-128h-128z" />
    <glyph glyph-name="uni1EF1" unicode="&#x1ef1;" 
d="M512 -512v128v256h128v-128h128v-128h-128v-128h-128zM1024 0h-128h-640v128h-128v1024h256v-896h384v768h128v128h256v256h128v-384h-128v-1024h-128z" />
    <glyph glyph-name="Ygrave" unicode="&#x1ef2;" 
d="M640 0h-128v768h-128v256h-128v256h-128v128h-128v128h384v-256h128v-128h128v-128h128v256h128v128h128v128h256v-256h-128v-128h-128v-256h-128v-256h-128v-640h-128z" />
    <glyph glyph-name="ygrave" unicode="&#x1ef3;" 
d="M512 1280v128h-128v128h256v-256h-128zM384 -384h-128h-128v128h128v128h128v512h-128v256h-128v384h-128v128h256v-128h128v-256h128v-384h128v256h128v384h128v128h256v-256h-128v-384h-128v-256h-128v-384h-128v-128h-128v-128h-128z" />
    <glyph glyph-name="uni1EF4" unicode="&#x1ef4;" 
d="M640 -512v128h-128v128h128v128h128v-384h-128zM640 0h-128v768h-128v256h-128v256h-128v128h-128v128h384v-256h128v-128h128v-128h128v256h128v128h128v128h256v-256h-128v-128h-128v-256h-128v-256h-128v-640h-128z" />
    <glyph glyph-name="uni1EF5" unicode="&#x1ef5;" 
d="M1024 -256v128h-128v128h384v-128h-128v-128h-128zM384 -384h-128h-128v128h128v128h128v512h-128v256h-128v384h-128v128h256v-128h128v-256h128v-384h128v256h128v384h128v128h256v-256h-128v-384h-128v-256h-128v-384h-128v-128h-128v-128h-128z" />
    <glyph glyph-name="uni1EF6" unicode="&#x1ef6;" 
d="M640 0h-128v768h-128v256h-128v256h-128v128h-128v128h384v-256h128v-128h128v-128h128v256h128v128h128v128h256v-256h-128v-128h-128v-256h-128v-256h-128v-640h-128z" />
    <glyph glyph-name="uni1EF7" unicode="&#x1ef7;" 
d="M384 -384h-128h-128v128h128v128h128v512h-128v256h-128v384h-128v128h256v-128h128v-256h128v-384h128v256h128v384h128v128h256v-256h-128v-384h-128v-256h-128v-384h-128v-128h-128v-128h-128zM640 1280h-128v256h256v-256h-128z" />
    <glyph glyph-name="uni1EF8" unicode="&#x1ef8;" 
d="M640 0h-128v768h-128v256h-128v256h-128v128h-128v128h384v-256h128v-128h128v-128h128v256h128v128h128v128h256v-256h-128v-128h-128v-256h-128v-256h-128v-640h-128z" />
    <glyph glyph-name="uni1EF9" unicode="&#x1ef9;" 
d="M384 -384h-128h-128v128h128v128h128v512h-128v256h-128v384h-128v128h256v-128h128v-256h128v-384h128v256h128v384h128v128h256v-256h-128v-384h-128v-256h-128v-384h-128v-128h-128v-128h-128zM768 1536h128v-128h-640v128h512z" />
    <glyph glyph-name="uni2000" unicode="&#x2000;" 
 />
    <glyph glyph-name="uni2001" unicode="&#x2001;" 
 />
    <glyph glyph-name="uni2002" unicode="&#x2002;" 
 />
    <glyph glyph-name="uni2003" unicode="&#x2003;" 
 />
    <glyph glyph-name="uni2004" unicode="&#x2004;" 
 />
    <glyph glyph-name="uni2005" unicode="&#x2005;" 
 />
    <glyph glyph-name="uni2006" unicode="&#x2006;" 
 />
    <glyph glyph-name="uni2007" unicode="&#x2007;" 
 />
    <glyph glyph-name="uni2008" unicode="&#x2008;" 
 />
    <glyph glyph-name="uni2009" unicode="&#x2009;" 
 />
    <glyph glyph-name="uni200A" unicode="&#x200a;" 
 />
    <glyph glyph-name="uni2010" unicode="&#x2010;" 
d="M896 384h-128h-512v256h896v-128h-128v-128h-128z" />
    <glyph glyph-name="figuredash" unicode="&#x2012;" 
d="M1024 384h-128h-640v256h896v-256h-128z" />
    <glyph glyph-name="endash" unicode="&#x2013;" 
d="M1024 384h-128h-640v128h-128v128h1024v-256h-128z" />
    <glyph glyph-name="emdash" unicode="&#x2014;" 
d="M1664 384h-128h-1280v128h-128v128h1664v-256h-128z" />
    <glyph glyph-name="afii00208" unicode="&#x2015;" 
d="M1664 384h-128h-1280v256h1536v-256h-128z" />
    <glyph glyph-name="quoteleft" unicode="&#x2018;" 
d="M384 1024h-128v384h128v-128h128v-256h-128zM384 1408v128h128v-128h-128z" />
    <glyph glyph-name="quoteright" unicode="&#x2019;" 
d="M256 1024v128h128v-128h-128zM384 1152v128h-128v256h256v-384h-128z" />
    <glyph glyph-name="quotesinglbase" unicode="&#x201a;" 
d="M256 -256v128h128v-128h-128zM384 -128v128h-128v256h256v-384h-128z" />
    <glyph glyph-name="quotedblleft" unicode="&#x201c;" 
d="M768 1024h-128v384h128v-128h128v-256h-128zM384 1024h-128v384h128v-128h128v-256h-128zM768 1408v128h128v-128h-128zM384 1408v128h128v-128h-128z" />
    <glyph glyph-name="quotedblright" unicode="&#x201d;" 
d="M256 1024v128h128v-128h-128zM768 1024h-128v128h128v128h-128v256h256v-512h-128zM384 1152v128h-128v256h256v-384h-128z" />
    <glyph glyph-name="quotedblbase" unicode="&#x201e;" 
d="M640 -256v128h128v-128h-128zM256 -256v128h128v-128h-128zM768 -128v128h-128v256h256v-384h-128zM384 -128v128h-128v256h256v-384h-128z" />
    <glyph glyph-name="dagger" unicode="&#x2020;" 
d="M640 -384h-128v1280h-384v256h384v384h256v-384h384v-128h128v-128h-384v-128h-128v-1152h-128z" />
    <glyph glyph-name="daggerdbl" unicode="&#x2021;" 
d="M768 -384h-128v384h-384v128h-128v128h384v128h128v384h-128v128h-384v128h128v128h384v384h256v-384h384v-256h-384v-640h384v-256h-384v-384h-128z" />
    <glyph glyph-name="bullet" unicode="&#x2022;" 
d="M640 256h-128h-128v128h-128v384h128v128h384v-128h128v-384h-128v-128h-128z" />
    <glyph glyph-name="ellipsis" unicode="&#x2026;" 
d="M1280 0h-128h-128v256h384v-256h-128zM768 0h-128v256h256v-256h-128zM384 0h-128v256h256v-256h-128z" />
    <glyph glyph-name="perthousand" unicode="&#x2030;" 
d="M1664 0h-128h-256v256h-128v256h128v128h128v128h384v-256h-384v-256h128v-128h128v128h128v-256h-128zM512 0h-128v128h128v256h128v128h128v128h128v128h128v256h128v128h128v128h128v128h128v128h256v-128h-128v-128h-128v-256h-128v-128h-128v-128h-128v-128h-128
v-256h-128v-128h-128v-128h-128v-128h-128zM640 768h-128h-256v256h-128v256h128v256h512v-128h128v-512h-128v-128h-128zM640 1024h128v256h-384v-256h256z" />
    <glyph glyph-name="minute" unicode="&#x2032;" 
d="M256 896v128v512h256v-512h-128v-128h-128z" />
    <glyph glyph-name="second" unicode="&#x2033;" 
d="M640 896v128v512h256v-512h-128v-128h-128zM256 896v128v512h256v-512h-128v-128h-128z" />
    <glyph glyph-name="guilsinglleft" unicode="&#x2039;" 
d="M512 128h-128v128h-128v128h-128v256h128v256h256v128h128v-256h-128v-128h-128v-128h128v-256h128v-128h-128z" />
    <glyph glyph-name="guilsinglright" unicode="&#x203a;" 
d="M256 128h-128v128h128v128h128v256h-128v128h-128v256h256v-128h128v-128h128v-384h-128v-128h-128v-128h-128z" />
    <glyph glyph-name="fraction" unicode="&#x2044;" 
d="M-256 0v128v128h128v256h128v256h128v128h128v256h128v256h128v128h256v-128h-128v-256h-128v-128h-128v-256h-128v-256h-128v-128h-128v-256h-128v-128h-128z" />
    <glyph glyph-name="uni2070" unicode="&#x2070;" 
d="M384 384v128h-128v128h-128v256h-128v256h128v256h128v128h512v-128h128v-768h-128v-128h-256v-128h-128zM512 640h128v640h-256v-128h-128v-384h128v-128h128z" />
    <glyph glyph-name="uni2074" unicode="&#x2074;" 
d="M640 512h-128v128h-384v128h-128v128h128v128h128v256h128v128h128v128h256v-640h128v-256h-128v-128h-128zM512 896v128v128h-128v-256h128z" />
    <glyph glyph-name="uni2075" unicode="&#x2075;" 
d="M384 384v128h-256v256h128v-128h256v128h128v128h-128v128h-128v-128h-256v640h640v-256h-384v-128h256v-128h128v-512h-256v-128h-128z" />
    <glyph glyph-name="uni2076" unicode="&#x2076;" 
d="M384 384v128h-256v128h-128v256h128v256h128v128h128v256h256v-256h-128v-128h128v-128h128v-512h-256v-128h-128zM384 640h128v128h128v128h-384v-256h128z" />
    <glyph glyph-name="uni2077" unicode="&#x2077;" 
d="M256 512h-128v128h128v256h128v256h128v128h-384v128h-128v128h768v-256h-128v-256h-128v-384h-128v-128h-128z" />
    <glyph glyph-name="uni2078" unicode="&#x2078;" 
d="M384 384v128h-256v896h128v128h384v-128h128v-512h128v-256h-128v-128h-256v-128h-128zM512 640h128v256h-384v-128h128v-128h128zM512 1152v128v128h-128v-256h128z" />
    <glyph glyph-name="uni2079" unicode="&#x2079;" 
d="M384 512h-128v256h128v128h-256v128h-128v256h128v128h128v128h384v-128h128v-512h-128v-128h-128v-256h-128zM384 1024h128v128h128v128h-384v-256h128z" />
    <glyph glyph-name="uni207A" unicode="&#x207a;" 
d="M512 640h-128v256h-256v128h128v128h128v128h256v-128h128v-128h128v-128h-256v-256h-128z" />
    <glyph glyph-name="uni207B" unicode="&#x207b;" 
d="M768 896h-128h-384v128h128v128h512v-256h-128z" />
    <glyph glyph-name="uni207C" unicode="&#x207c;" 
d="M768 640h-128h-256v128h-128v128h640v-256h-128zM768 1024h-128h-384v256h640v-256h-128z" />
    <glyph glyph-name="uni207D" unicode="&#x207d;" 
d="M384 256h-128v256h-128v768h128v128h128v128h128v-256h-128v-896h128v-128h-128z" />
    <glyph glyph-name="uni207E" unicode="&#x207e;" 
d="M256 256h-128v128h128v896h-128v256h128v-128h128v-256h128v-640h-128v-256h-128z" />
    <glyph glyph-name="uni2080" unicode="&#x2080;" 
d="M640 0h-128h-256v128h-128v256h-128v256h128v256h128v128h512v-128h128v-768h-128v-128h-128zM512 256h128v640h-256v-128h-128v-384h128v-128h128z" />
    <glyph glyph-name="uni2081" unicode="&#x2081;" 
d="M384 0h-128v896h-256v128h512v-1024h-128z" />
    <glyph glyph-name="uni2082" unicode="&#x2082;" 
d="M128 768v128v128h512v-128h128v-256h-128v-256h-128v-128h256v-256h-768v128h128v256h128v128h128v128h128v256h-256v-128h-128z" />
    <glyph glyph-name="uni2083" unicode="&#x2083;" 
d="M512 0h-128h-256v128h-128v128h512v256h-256v128h128v256h-256v128h640v-256h-128v-128h128v-512h-128v-128h-128z" />
    <glyph glyph-name="uni2084" unicode="&#x2084;" 
d="M640 0h-128v256h-512v128h128v256h128v128h128v256h384v-640h128v-128h-128v-256h-128zM512 384v128v128h-128v-256h128z" />
    <glyph glyph-name="uni2085" unicode="&#x2085;" 
d="M512 128h128v-128h-384v128h256zM640 128v128v256h128v-384h-128zM256 128h-128v128h128v-128zM640 512h-128h-384v512h640v-128h-512v-256h384v-128z" />
    <glyph glyph-name="uni2086" unicode="&#x2086;" 
d="M512 128h128v-128h-512v128h384zM640 128v128v128h128v-256h-128zM128 128h-128v640h128v-256h512v-128h-512v-256zM128 768v128h128v-128h-128zM512 1024h128v-128h-384v128h256z" />
    <glyph glyph-name="uni2087" unicode="&#x2087;" 
d="M256 0h-128v256h128v256h128v256h128v128h-512v128h768v-256h-128v-256h-128v-256h-128v-256h-128z" />
    <glyph glyph-name="uni2088" unicode="&#x2088;" 
d="M512 128h128v-128h-384v128h256zM640 128v128v256h128v-384h-128zM256 128h-128v384h128v-384zM640 512h-128h-256v128h384v-128zM640 640v128v128h128v-256h-128zM256 640h-128v256h128v-256zM640 896h-128h-256v128h384v-128z" />
    <glyph glyph-name="uni2089" unicode="&#x2089;" 
d="M384 128h128v-128h-256v128h128zM512 128v128h128v-128h-128zM640 256v128h-384v128h-128v384h128v128h384v-128h128v-640h-128zM512 512v128h128v128h-128v128h-128v-128h-128v-128h128v-128h128z" />
    <glyph glyph-name="uni208A" unicode="&#x208a;" 
d="M512 256h-128v128h-128v128h-128v128h256v256h256v-256h256v-128h-128v-128h-128v-128h-128z" />
    <glyph glyph-name="uni208B" unicode="&#x208b;" 
d="M768 384h-128h-256v128h-128v128h640v-256h-128z" />
    <glyph glyph-name="uni208C" unicode="&#x208c;" 
d="M768 384h128v-128h-640v128h512zM768 768h128v-128h-640v128h512z" />
    <glyph glyph-name="uni208D" unicode="&#x208d;" 
d="M384 -256v128h-128v128h-128v768h128v256h256v-128h-128v-896h128v-256h-128z" />
    <glyph glyph-name="uni208E" unicode="&#x208e;" 
d="M128 -256v128v128h128v896h-128v128h256v-256h128v-640h-128v-256h-128v-128h-128z" />
    <glyph glyph-name="colonmonetary" unicode="&#x20a1;" 
d="M768 -256v128v128h-128v-256h-128v384h-128v128h-128v128h-128v768h128v128h128v128h128v128h640v-128h256v-128h128v-128h-128v-128h-128v128h-128v-128h-128v-768h128v128h128v128h128v-128h128v-128h-128v-128h-128v-128h-384v-256h-128zM896 384v128v640h-128v-768
h128zM512 512h128v640h-128v-128h-128v-512h128z" />
    <glyph glyph-name="franc" unicode="&#x20a3;" 
d="M384 0h-128v256h-128v128h128v1152h1024v-256h-768v-384h640v-256h-640v-256h384v-128h-384v-256h-128z" />
    <glyph glyph-name="lira" unicode="&#x20a4;" 
d="M1152 0h-128h-896v256h128v256h-128v512h128v256h128v128h128v128h512v-128h128v-128h128v-128h-256v128h-384v-128h-128v-128h384v-512h-384v-256h640v-128h128v-128h-128z" />
    <glyph glyph-name="uni20A6" unicode="&#x20a6;" 
d="M1152 0h-128v128h-128v256h-128v256h-256v-640h-256v640h-128v256h128v640h384v-256h128v-384h256v640h256v-640h128v-128h128v-128h-256v-640h-128zM640 896v128h-128v-128h128z" />
    <glyph glyph-name="peseta" unicode="&#x20a7;" 
d="M384 0h-128v896h-128v256h128v384h768v-128h256v-256h128v-256h-128v-128h-128v-128h-256v-128h-384v-512h-128zM768 768h128v128h-384v-128h256zM896 1152h128v128h-512v-128h384z" />
    <glyph glyph-name="uni20A8" unicode="&#x20a8;" 
d="M1664 0h-128v128h-128v256h256v-128h128v-256h-128zM1152 0h-128v128h-128v128h-128v256h-384v-512h-256v1536h896v-128h128v-128h128v-384h-128v-256h-128v-256h128v-256h128v-128h-128zM1664 512h-128v256h-128v128h128v128h128v128h128v-640h-128zM640 768h128v128
h128v384h-512v-384h128v-128h128z" />
    <glyph glyph-name="uni20A9" unicode="&#x20a9;" 
d="M1408 0h-128h-128v640h-384v-512h-128v-128h-256v256h-128v384h-256v256h256v128h-128v512h256v-512h128v-128h128v128h128v512h384v-640h256v256h128v384h256v-384h-128v-256h128v-256h-128v-256h-128v-384h-128zM1408 512v128h-128v-128h128zM640 512v128h-128v-128
h128zM1024 896v128v128h-128v-256h128z" />
    <glyph glyph-name="afii57636" unicode="&#x20aa;" 
d="M1024 0h-128h-768v1536h640v-128h128v128h256v-1536h-128zM768 256h128v128h-256v-128h128zM512 1152h128v128h-256v-128h128z" />
    <glyph glyph-name="dong" unicode="&#x20ab;" 
d="M896 256v128h-256v-128h-256v128h-256v640h128v128h256v128h128v128h128v128h256v-128h128v-128h-128v-1024h-128zM896 128h128v-128h-896v128h768zM640 512h128v384h-128v128h-256v-512h256zM768 1152v128h-128v-128h128z" />
    <glyph glyph-name="Euro" unicode="&#x20ac;" 
d="M1024 0h-128h-384v128h-256v256h-256v256h128v128h-128v256h128v128h128v256h256v128h640v-128h256v-256h-256v128h-640v-128h-128v-128h640v-128h-128v-128h-512v-128h640v-128h-128v-128h-384v-128h640v128h256v-256h-256v-128h-128z" />
    <glyph glyph-name="uni20AD" unicode="&#x20ad;" 
d="M1280 0h-128h-128v256h-128v128h-128v128h-128v128h-128v-640h-256v640h-128v256h128v640h256v-640h128v128h128v128h128v256h128v128h256v-256h-128v-256h-128v-128h256v-128h128v-128h-384v-128h128v-128h128v-256h128v-128h-128z" />
    <glyph glyph-name="uni20AE" unicode="&#x20ae;" 
d="M128 256v128v128h256v128h-256v256h256v384h-384v256h1024v-128h128v-128h-512v-256h384v-128h-256v-256h256v-128h-256v-128h-128v-384h-256v384h-128v-128h-128z" />
    <glyph glyph-name="uni20B1" unicode="&#x20b1;" 
d="M384 0h-128v896h-128v384h128v256h768v-128h256v-128h128v-384h-128v-128h-128v-128h-256v-128h-384v-512h-128z" />
    <glyph glyph-name="uni20B2" unicode="&#x20b2;" 
d="M768 -256v128v128h-256v128h-128v128h-128v128h-128v768h128v128h128v128h128v128h640v-128h256v-128h128v-128h-128v-128h-128v128h-128v128h-256v-384h640v-640h-128v-128h-128v-128h-384v-256h-128zM1024 256h128v128h128v256h-384v-384h128zM768 256v128v896h-128
v-128h-128v-128h-128v-512h128v-128h128v-128h128z" />
    <glyph glyph-name="uni20B3" unicode="&#x20b3;" 
d="M1280 0h-128v128h-128v256h-640v-384h-384v128h128v256h-128v128h256v128h-256v128h128v128h256v384h128v256h384v-128h128v-384h128v-128h256v-256h-128v-128h128v-128h-128v-128h128v-256h-128zM768 512h128v128h-384v-128h256zM768 896v128v128h-128v-256h128z" />
    <glyph glyph-name="uni20B4" unicode="&#x20b4;" 
d="M896 0h-128h-384v128h-128v128h-128v768h768v256h-384v-128h-384v128h128v128h128v128h640v-128h128v-384h128v-512h-896v-128h128v-128h384v128h256v-256h-128v-128h-128z" />
    <glyph glyph-name="uni20B5" unicode="&#x20b5;" 
d="M768 -256v128v128h-256v128h-128v128h-128v128h-128v768h128v128h128v128h128v128h640v-128h256v-128h128v-128h-128v-128h-128v128h-128v128h-256v-1024h256v128h128v128h128v-128h128v-128h-128v-128h-128v-128h-384v-256h-128zM768 256v128v896h-128v-128h-128v-128
h-128v-512h128v-128h128v-128h128z" />
    <glyph glyph-name="uni20B8" unicode="&#x20b8;" 
d="M512 0h-128v896h-384v256h1152v-128h-128v-128h-384v-896h-128zM896 1536h128v-128h-1024v128h896z" />
    <glyph glyph-name="uni20B9" unicode="&#x20b9;" 
d="M1024 0h-128h-128v128h-128v128h-128v128h-256v128h-128v256h640v128h-512v128h-128v128h768v128h-768v256h1280v-128h-256v-128h128v-128h128v-128h-128v-128h-128v-256h-384v-256h128v-128h128v-128h128v-128h-128z" />
    <glyph glyph-name="uni20BA" unicode="&#x20ba;" 
d="M768 0h-128h-384v512h-128v256h128v128h-128v256h128v384h256v-384h128v128h256v-256h-384v-128h384v-128h-128v-128h-256v-384h384v128h128v128h256v-128h-128v-256h-256v-128h-128z" />
    <glyph glyph-name="uni20BC" unicode="&#x20bc;" 
d="M640 0v128v896h-128v-128h-128v-896h-256v1024h128v128h128v128h256v256h128v-128h128v-128h256v-128h128v-1152h-256v1024h-256v-1024h-128z" />
    <glyph glyph-name="uni20BD" unicode="&#x20bd;" 
d="M384 0h-128v256h-128v128h128v128h-128v256h128v768h768v-128h256v-640h-128v-128h-256v-128h-384v-128h384v-128h-384v-256h-128zM768 768h128v128h128v384h-512v-512h256z" />
    <glyph glyph-name="uni20BE" unicode="&#x20be;" 
d="M1536 0h-128h-1280v256h128v128h-128v768h128v128h128v128h128v128h768v-128h128v-128h128v-128h128v-128h-384v128h-128v-128h-512v128h-128v-128h-128v-512h128v-128h128v-128h1024v-256h-128z" />
    <glyph glyph-name="uni20BF" unicode="&#x20bf;" 
d="M640 -256v128h-128v128h-384v1536h896v-128h128v-128h128v-384h-128v-128h128v-640h-128v-128h-256v-128h-128v-128h-128zM896 256h128v384h-640v-384h512zM768 896h128v128h128v128h-128v128h-512v-256h128v-128h256z" />
    <glyph glyph-name="afii61289" unicode="&#x2113;" 
d="M1024 0h-128h-256v128h-128v128h-384v128h128v128h256v896h128v128h512v-128h128v-512h-128v-128h-128v-128h-128v-128h-128v-256h256v-128h128v-128h-128zM896 768v128v128h128v256h-256v-512h128z" />
    <glyph glyph-name="afii61352" unicode="&#x2116;" 
d="M1664 896v128v384h128v-512h-128zM1280 0h-128v128h-128v128h-128v128h-128v256h-128v128h-128v128h-128v-896h-256v1536h256v-128h128v-128h128v-256h128v-128h128v-128h128v640h128v128h256v-1536h-128z" />
    <glyph glyph-name="trademark" unicode="&#x2122;" 
d="M1408 768v128v384h-128v-128h-128v128h128v128h128v128h128v-768h-128zM896 768v128v640h128v-128h128v-128h-128v-512h-128zM384 768v128v512h-256v128h640v-128h-256v-640h-128z" />
    <glyph glyph-name="uni2126" unicode="&#x2126;" 
d="M1536 0h-128h-384v256h128v128h128v128h128v512h-128v128h-128v128h-512v-128h-128v-128h-128v-512h128v-128h128v-128h128v-256h-640v256h128v128h-128v768h128v128h128v128h128v128h768v-128h128v-128h128v-128h128v-768h-128v-128h128v-256h-128z" />
    <glyph glyph-name="estimated" unicode="&#x212e;" 
d="M512 0v128h128v-128h-128zM1280 128v128h128v-128h-128zM1408 640v128h-128v512h128v-128h128v-256h128v-128h-128v-128h-128zM512 128h-128h-128v256h-128v768h128v128h128v-1024h128v-128zM1280 1280h-128v128h128v-128zM384 1280v128h128v-128h-128z" />
    <glyph glyph-name="onethird" unicode="&#x2153;" 
d="M1152 640v128h128v-128h-128zM256 640v128v384h-128v128h128v128h128v-768h-128zM1408 128h128v-128h-256v128h128zM384 0h-128v128h128v256h128v256h128v128h128v256h128v256h128v128h128v128h128v-256h-128v-128h-128v-256h-128v-256h-128v-128h-128v-256h-128v-256
h-128zM1536 128v128v128h128v-256h-128zM1280 128h-128v128h128v-128zM1536 384h-128h-128v128h256v-128zM1536 512v128v128h128v-256h-128zM1536 768h-128h-128v128h256v-128z" />
    <glyph glyph-name="twothirds" unicode="&#x2154;" 
d="M1152 640v128h128v-128h-128zM128 1280v128h128v-128h-128zM1408 128h128v-128h-256v128h128zM512 0h-128v128h128v256h128v256h128v128h128v256h128v256h128v128h128v128h128v-256h-128v-128h-128v-256h-128v-256h-128v-128h-128v-256h-128v-256h-128zM1536 128v128v128
h-256v128h256v256h128v-640h-128zM1280 128h-128v128h128v-128zM1536 768h-128h-128v128h256v-128zM512 896h128v-128h-512v256h128v128h128v256h-128v128h256v-128h128v-256h-128v-128h-128v-128h128z" />
    <glyph glyph-name="oneeighth" unicode="&#x215b;" 
d="M256 768v128v256h-128v128h128v128h128v-640h-128zM1280 128h128v-128h-256v128h128zM384 0h-128v128h128v256h128v256h128v128h128v256h128v256h128v128h128v128h128v-256h-128v-128h-128v-256h-128v-256h-128v-128h-128v-256h-128v-256h-128zM1408 128v128v128h128
v-256h-128zM1152 128h-128v256h128v-256zM1408 384h-128h-128v128h256v-128zM1408 512v128v128h128v-256h-128zM1152 512h-128v256h128v-256zM1408 768h-128h-128v128h256v-128z" />
    <glyph glyph-name="threeeighths" unicode="&#x215c;" 
d="M1664 0h-128h-256v768h128v128h256v-128h128v-768h-128zM1536 128h128v256h-256v-256h128zM512 0h-128v128h128v256h128v256h128v128h128v256h128v256h128v128h128v128h128v-256h-128v-256h-128v-128h-128v-256h-128v-256h-128v-128h-128v-256h-128zM1536 512v128h-128
v-128h128zM384 640h-128h-128v128h-128v128h512v128h-256v256h128v128h-256v128h512v-256h-128v-128h128v-384h-128v-128h-128z" />
    <glyph glyph-name="fiveeighths" unicode="&#x215d;" 
d="M1664 0h-128h-256v768h128v128h256v-128h128v-768h-128zM1536 128h128v256h-256v-256h128zM512 0h-128v128h128v256h128v128h128v256h128v256h128v128h128v256h128v128h128v-256h-128v-256h-128v-128h-128v-256h-128v-256h-128v-128h-128v-256h-128zM1536 512v128h-128
v-128h128zM384 640h-128h-128v256h384v128h-384v512h512v-128h-384v-128h256v-128h128v-384h-128v-128h-128z" />
    <glyph glyph-name="seveneighths" unicode="&#x215e;" 
d="M384 0v128v128h128v256h128v128h128v256h128v256h128v128h128v256h256v-128h-128v-256h-128v-128h-128v-256h-128v-256h-128v-128h-128v-256h-128v-128h-128zM128 640v128v128h128v256h128v256h-384v128h640v-256h-128v-256h-128v-256h-128v-128h-128zM1536 0h-128h-128
v128h-128v256h128v128h-128v256h128v128h384v-256h128v-128h-128v-128h128v-256h-128v-128h-128zM1536 128v128v128h-128v-256h128zM1536 512v128h-128v-128h128z" />
    <glyph glyph-name="arrowleft" unicode="&#x2190;" 
d="M640 0h-128h-128v128h-128v128h-128v128h-128v384h128v128h128v128h128v128h384v-128h-128v-128h-128v-128h-128v-128h896v-128h-128v-128h-640v-128h128v-128h128v-128h-128z" />
    <glyph glyph-name="arrowup" unicode="&#x2191;" 
d="M1152 512v128h-128v128h-128v-768h-256v768h-256v-128h-128v-128h-128v384h128v128h128v128h256v128h256v-128h128v-128h128v-128h128v-384h-128z" />
    <glyph glyph-name="arrowright" unicode="&#x2192;" 
d="M896 0h-128v256h128v128h-640v128h-128v128h896v128h-128v128h-128v256h256v-128h128v-128h128v-128h128v-384h-128v-128h-128v-128h-128v-128h-128z" />
    <glyph glyph-name="arrowdown" unicode="&#x2193;" 
d="M768 0v128h-256v128h-128v128h-128v384h128v-128h128v-128h128v768h256v-768h256v128h128v128h128v-384h-128v-128h-256v-128h-128v-128h-128z" />
    <glyph glyph-name="arrowboth" unicode="&#x2194;" 
d="M1536 0h-128v128h128v128h128v128h-1024v-128h128v-128h128v-128h-384v128h-128v128h-128v256h-128v128h128v128h128v128h128v128h128v128h256v-128h-128v-128h-128v-256h1024v256h-128v128h-128v128h256v-128h128v-896h-128v-128h-128z" />
    <glyph glyph-name="arrowupdn" unicode="&#x2195;" 
d="M1152 640v128h-128v128h-128v-1024h128v128h128v128h128v-256h-128v-128h-128v-128h-128v-128h-384v128h-128v128h-128v128h-128v256h256v-128h128v-128h128v1024h-256v-128h-128v-128h-128v256h128v128h128v128h128v128h128v128h256v-128h128v-128h128v-128h128v-384
h-128z" />
    <glyph glyph-name="uni2196" unicode="&#x2196;" 
d="M256 0v128h-128v768h128v128h640v-128h128v-128h-384v-128h128v-128h128v-128h128v-128h128v-256h-256v128h-128v128h-128v128h-128v128h-128v-512h-128z" />
    <glyph glyph-name="uni2197" unicode="&#x2197;" 
d="M1024 0v128v384h-128v-128h-128v-128h-128v-128h-128v-128h-256v128h128v128h128v128h128v128h128v256h-384v128h128v128h640v-128h128v-768h-128v-128h-128z" />
    <glyph glyph-name="uni2198" unicode="&#x2198;" 
d="M1024 0h-128h-512v128h-128v128h384v128h-128v128h-128v128h-128v128h-128v128h128v128h128v-128h128v-128h128v-128h128v-128h128v384h256v-896h-128z" />
    <glyph glyph-name="uni2199" unicode="&#x2199;" 
d="M1024 0h-128h-640v896h256v-384h128v128h128v128h128v128h128v128h128v-128h128v-128h-128v-128h-128v-128h-128v-128h-128v-128h384v-256h-128z" />
    <glyph glyph-name="uni21A9" unicode="&#x21a9;" 
d="M768 0h-128h-128v128h-128v128h-128v128h-128v256h128v128h128v128h128v128h128v128h256v-128h-128v-128h-128v-256h896v128h128v256h-256v256h256v-128h128v-640h-256v-128h-896v-128h128v-128h128v-128h-128z" />
    <glyph glyph-name="uni21AA" unicode="&#x21aa;" 
d="M1152 0h-128v128h128v128h128v128h-896v128h-256v128h-128v512h128v128h384v-128h-128v-128h-128v-256h128v-128h896v128h-128v128h-128v256h256v-128h128v-128h128v-128h128v-384h-128v-128h-128v-128h-128v-128h-128z" />
    <glyph glyph-name="uni21B0" unicode="&#x21b0;" 
d="M1536 -256h-128v640h-768v-128h128v-128h128v-128h-384v128h-128v128h-128v128h-128v256h128v128h128v128h128v128h128v128h256v-128h-128v-128h-128v-256h1024v-896h-128z" />
    <glyph glyph-name="uni21B1" unicode="&#x21b1;" 
d="M128 -256v128h-128v768h1152v128h-128v128h-128v256h256v-128h128v-128h128v-128h128v-384h-128v-128h-128v-128h-128v-128h-256v256h128v128h-768v-640h-128z" />
    <glyph glyph-name="uni21B2" unicode="&#x21b2;" 
d="M768 0h-128h-128v128h-128v128h-128v128h-128v256h128v128h128v128h128v128h128v128h256v-128h-128v-128h-128v-256h768v640h256v-896h-1024v-128h128v-128h128v-128h-128z" />
    <glyph glyph-name="uni21B3" unicode="&#x21b3;" 
d="M1152 0h-128v128h128v128h128v128h-1024v896h256v-640h768v128h-128v128h-128v256h256v-128h128v-128h128v-128h128v-384h-128v-128h-128v-128h-128v-128h-128z" />
    <glyph glyph-name="partialdiff" unicode="&#x2202;" 
d="M896 0h-128h-384v128h-128v256h-128v256h128v256h128v128h512v256h-128v128h-512v128h768v-128h128v-256h128v-896h-128v-128h-128v-128h-128zM768 256h128v128h128v512h-384v-128h-128v-512h256z" />
    <glyph glyph-name="emptyset" unicode="&#x2205;" 
d="M256 0v128v256h-128v768h128v128h128v128h128v128h768v-128h128v128h128v-384h128v-768h-128v-128h-128v-128h-128v-128h-768v128h-128v-128h-128zM896 128h128v128h256v128h128v256h128v256h-128v256h-128v-128h-128v-128h-128v-128h-128v256h128v128h128v128h-128v128
h-256v-128h-256v-128h-128v-256h-128v-256h128v-256h128v128h128v128h128v128h128v-256h-128v-128h-128v-128h128v-128h128z" />
    <glyph glyph-name="uni2206" unicode="&#x2206;" 
d="M1152 0h-128h-1024v384h128v384h128v384h128v384h512v-384h128v-384h128v-384h128v-384h-128zM768 256h128v384h-128v384h-256v-384h-128v-384h384z" />
    <glyph glyph-name="product" unicode="&#x220f;" 
d="M1152 -256v128h-128v1408h-256v-1408h-128v-128h-128v128h-128v1408h-256v256h1536v-256h-256v-1408h-128v-128h-128z" />
    <glyph glyph-name="summation" unicode="&#x2211;" 
d="M1024 -256h-128h-640v128h-128v128h128v256h128v128h128v256h128v128h-128v128h-128v128h-128v256h-128v256h1152v-256h-768v-128h128v-128h128v-256h128v-256h-128v-256h-128v-256h640v-128h-128v-128h-128z" />
    <glyph glyph-name="minus" unicode="&#x2212;" 
d="M1024 384h-128h-640v256h896v-256h-128z" />
    <glyph glyph-name="uni2215" unicode="&#x2215;" 
d="M256 -128h-128v256h128v256h128v384h128v256h128v384h128v128h256v-256h-128v-256h-128v-384h-128v-384h-128v-256h-128v-128h-128z" />
    <glyph glyph-name="uni2219" unicode="&#x2219;" 
d="M640 384h-128h-128v128h-128v512h256v128h128v-128h256v-512h-128v-128h-128z" />
    <glyph glyph-name="radical" unicode="&#x221a;" 
d="M896 -256h-128v128h-128v256h-128v384h-128v128h-256v256h512v-384h128v-256h128v128h128v256h128v384h128v256h128v256h384v-256h-128v-128h-128v-256h-128v-256h-128v-256h-128v-384h-128v-256h-128z" />
    <glyph glyph-name="infinity" unicode="&#x221e;" 
d="M1536 256h-128h-384v128h-128v-128h-640v512h128v128h512v-128h128v128h512v-128h128v-512h-128zM1280 384h128v384h-128v-128h-128v-256h128zM640 384h128v256h-128v128h-128v-128h-128v-128h128v-128h128z" />
    <glyph glyph-name="integral" unicode="&#x222b;" 
d="M384 -384h-128v128h-128v128h256v1280h128v256h128v128h384v-128h-128v-128h-128v-1408h-128v-128h-128v-128h-128z" />
    <glyph glyph-name="approxequal" unicode="&#x2248;" 
d="M256 640v128v128h128v128h256v-128h640v-128h-128v-128h-384v128h-384v-128h-128zM1024 128h-128h-128v128h-512v128h128v128h384v-128h512v-128h-128v-128h-128z" />
    <glyph glyph-name="notequal" unicode="&#x2260;" 
d="M384 -128v128v128h-128v256h256v128h128v128h-384v256h512v128h128v-128h256v-256h-384v-256h384v-256h-512v-128h-128v-128h-128z" />
    <glyph glyph-name="lessequal" unicode="&#x2264;" 
d="M1024 0h-128h-640v256h896v-256h-128zM1024 384h-128h-128v128h-384v128h-128v256h128v128h384v128h384v-256h-384v-256h384v-256h-128z" />
    <glyph glyph-name="greaterequal" unicode="&#x2265;" 
d="M1024 0h-128h-640v256h896v-256h-128zM384 384h-128v256h256v128h128v128h-384v256h384v-128h384v-128h128v-256h-256v-128h-384v-128h-128z" />
    <glyph glyph-name="filledbox" unicode="&#x25a0;" 
d="M1664 0h-128h-1280v1536h1536v-1536h-128z" />
    <glyph glyph-name="H22073" unicode="&#x25a1;" 
d="M1664 0h-128h-1280v1536h1536v-1536h-128zM1536 256h128v1024h-1152v-1024h1024z" />
    <glyph glyph-name="triagup" unicode="&#x25b2;" 
d="M1536 0h-128h-1280v128h128v256h128v256h128v256h128v256h128v256h256v-256h128v-256h128v-256h128v-256h128v-256h128v-128h-128z" />
    <glyph glyph-name="uni25B3" unicode="&#x25b3;" 
d="M1536 0h-128h-1280v128h128v256h128v256h128v256h128v256h128v256h256v-256h128v-256h128v-256h128v-256h128v-256h128v-128h-128zM1152 256h128v256h-128v256h-128v256h-256v-256h-128v-256h-128v-256h640z" />
    <glyph glyph-name="uni25B6" unicode="&#x25b6;" 
d="M256 0v128v1408h128v-128h256v-128h256v-128h256v-128h256v-128h256v-128h128v-128h-256v-128h-256v-128h-256v-128h-256v-128h-384v-128h-128z" />
    <glyph glyph-name="uni25B7" unicode="&#x25b7;" 
d="M256 0v128v1408h128v-128h256v-128h256v-128h256v-128h256v-128h256v-128h128v-128h-256v-128h-256v-128h-256v-128h-256v-128h-384v-128h-128zM640 384h128v128h256v128h256v256h-256v128h-256v128h-256v-768h128z" />
    <glyph glyph-name="triagdn" unicode="&#x25bc;" 
d="M768 0v128v128h-128v256h-128v256h-128v256h-128v256h-128v256h1408v-256h-128v-384h-128v-256h-128v-256h-128v-256h-128v-128h-128z" />
    <glyph glyph-name="uni25BD" unicode="&#x25bd;" 
d="M768 0v128v128h-128v256h-128v256h-128v256h-128v256h-128v256h1408v-256h-128v-256h-128v-256h-128v-256h-128v-256h-128v-256h-128zM896 512v128h128v256h128v256h128v128h-896v-128h128v-256h128v-256h128v-128h128z" />
    <glyph glyph-name="uni25C0" unicode="&#x25c0;" 
d="M1536 0v128h-256v128h-256v128h-256v128h-256v128h-256v256h256v128h256v128h256v128h256v128h256v128h128v-1536h-128z" />
    <glyph glyph-name="uni25C1" unicode="&#x25c1;" 
d="M1408 0v128h-256v128h-256v128h-256v128h-256v128h-256v256h256v128h256v128h256v128h256v128h256v128h128v-1536h-128zM1408 256v128v896h-128v-128h-256v-128h-256v-128h-256v-256h256v-128h256v-128h256v-128h128z" />
    <glyph glyph-name="uni25C6" unicode="&#x25c6;" 
d="M896 0h-128v128h-128v128h-128v128h-128v128h-128v128h-128v256h128v128h128v128h128v128h128v128h128v128h256v-128h128v-128h128v-128h128v-128h128v-128h128v-256h-128v-128h-128v-128h-128v-128h-128v-128h-128v-128h-128z" />
    <glyph glyph-name="uni25C7" unicode="&#x25c7;" 
d="M896 0h-128v128h-128v128h-128v128h-128v128h-128v128h-128v256h128v128h128v128h128v128h128v128h128v128h256v-128h128v-128h128v-128h128v-128h128v-128h128v-256h-128v-128h-128v-128h-128v-128h-128v-128h-128v-128h-128zM896 256h128v128h128v128h128v128h128v256
h-128v128h-128v128h-128v128h-256v-128h-128v-128h-128v-128h-128v-256h128v-128h128v-128h128v-128h128z" />
    <glyph glyph-name="lozenge" unicode="&#x25ca;" 
d="M768 0h-128h-128v128h-128v256h-128v256h-128v256h128v256h128v256h128v128h384v-256h128v-256h128v-512h-128v-256h-128v-256h-128zM768 256v128v128h128v512h-128v256h-128v-256h-128v-512h128v-256h128z" />
    <glyph glyph-name="circle" unicode="&#x25cb;" 
d="M1152 0h-128h-384v128h-256v128h-128v384h-128v256h128v384h128v128h256v128h640v-128h256v-256h128v-256h128v-256h-128v-384h-128v-128h-256v-128h-128zM1024 128h128v128h256v256h128v512h-128v256h-256v128h-384v-128h-256v-256h-128v-640h128v-128h256v-128h256z
" />
    <glyph glyph-name="H18533" unicode="&#x25cf;" 
d="M1152 0h-128h-384v128h-256v128h-128v384h-128v256h128v384h128v128h256v128h640v-128h256v-256h128v-256h128v-256h-128v-384h-128v-128h-256v-128h-128z" />
    <glyph glyph-name="uni2605" unicode="&#x2605;" 
d="M1280 0v128h-128v128h-128v128h-128v-128h-128v-128h-256v256h128v256h-128v128h-256v128h512v256h128v256h128v-256h128v-256h512v-128h-256v-128h-128v-256h128v-384h-128z" />
    <glyph glyph-name="uni2606" unicode="&#x2606;" 
d="M1408 0h-128v128h-128v128h-384v-128h-128v-128h-256v128h128v256h128v128h-128v128h-128v128h-128v128h512v256h128v256h128v-256h128v-256h512v-128h-128v-128h-128v-128h-128v-128h128v-256h128v-128h-128zM1024 512v128h128v128h-128v128h-128v-128h-128v-128h128
v-128h128z" />
    <glyph glyph-name="uni2B0E" unicode="&#x2b0e;" 
d="M1024 0v128h-128v128h-256v128h-128v384h128v-128h128v-128h256v512h-768v128h-128v128h1152v-768h128v128h128v128h128v-384h-128v-128h-128v-128h-256v-128h-128z" />
    <glyph glyph-name="uni2B10" unicode="&#x2b10;" 
d="M768 0h-128v128h-128v128h-128v128h-128v128h-128v128h256v-128h256v768h1024v-256h-768v-512h128v128h128v128h128v-384h-128v-128h-128v-128h-128v-128h-128z" />
    <glyph glyph-name="uni3000" unicode="&#x3000;" 
 />
  </font>
</defs>
</svg>
